<svg xmlns="http://www.w3.org/2000/svg" width="2331" height="497"><path d="M390 113.052c-20.275 2.517-43.009 9.407-63.415 19.217l-12.961 6.231 12.438.624c22.576 1.134 39.198 5.509 60.534 15.934 17.286 8.446 32.772 19.131 53.404 36.849l3.5 3.005-9-2.458c-16-4.37-29.214-5.887-51-5.853-11 .016-21.8.35-24 .742l-4 .711 4.5-4.04c2.475-2.222 8.699-7.276 13.83-11.231 10.714-8.259 10.79-7.673-1.654-12.853-9.499-3.955-23.072-7.409-34.676-8.826-10.696-1.305-34.452-1.416-39.754-.185-4.489 1.043-15.894 10.409-30.246 24.84l-10 10.054-11.243.703-11.243.702-2.875-6.408c-6.728-14.995-14.016-38.519-16.517-53.31l-1.183-7-51.719-.259c-44.959-.225-51.72-.067-51.72 1.211 0 5.279 10.768 43.454 17.459 61.894 26.79 73.833 68.729 132.11 119.541 166.108 11.028 7.379 33.941 18.594 46 22.515 43.926 14.283 91.357 10.183 136-11.755l13.5-6.634-14.5-.646c-7.975-.356-18.025-1.412-22.334-2.348-25.012-5.433-52.485-19.593-78.166-40.288-11.012-8.874-15.335-13.125-12.171-11.969 14.462 5.286 37.289 7.986 62.947 7.445l20.777-.439-2.49 2.599c-1.369 1.43-7.204 6.192-12.966 10.583-5.762 4.39-10.504 8.26-10.537 8.599-.078.799 12.158 6.265 19.629 8.77 14.593 4.892 37.871 7.581 56.163 6.487 11.188-.669 11.429-.735 16.501-4.536 2.831-2.122 11.711-10.117 19.733-17.766l14.587-13.907 10.845-.27 10.844-.269 5.305 13.24c6.14 15.323 10.531 29.858 12.882 42.635.911 4.95 1.821 9.563 2.022 10.25.287.979 11.534 1.25 51.898 1.25 50.681 0 51.531-.033 51.531-1.979 0-3.297-7.805-32.546-12.672-47.485-17.455-53.584-42.317-99.173-74.006-135.703-33.861-39.033-74.9-64.382-117.943-72.852-12.472-2.454-39.103-3.454-51.379-1.929m620.667 49.615c-.367.366-.667 41.316-.667 91V344h35V162h-16.833c-9.259 0-17.134.3-17.5.667M1420 252.976V344H1455.011l-.256-90.75-.255-90.75-17.25-.274-17.25-.273v91.023m-339.919-84.329c-7.509 3.742-11.081 9.523-11.081 17.936 0 5.335.449 6.854 3.25 10.984 7.779 11.473 24.858 12.697 34.12 2.445 8.022-8.879 7.164-21.301-1.991-28.853-7.071-5.833-15.819-6.737-24.298-2.512m840.419-.802c-4.704 2.247-9.941 7.499-11.439 11.47-2.814 7.464-.005 17.111 6.56 22.526 11.024 9.094 26.99 5.682 33.546-7.168 4.527-8.873.372-21.391-8.647-26.051-5.59-2.889-14.847-3.248-20.02-.777M705 257v87h36v-70h62v70h37V170h-37v71h-62v-71h-36v87m824.244-.25l.256 86.75 18.25.273 18.25.272V274h57v-32h-57v-39h71v-33h-108.011l.255 86.75M245.769 204.686c-1.568.411-1.484.944.887 5.634 4.385 8.673 14.349 24.779 19.908 32.18 10.364 13.796 22.723 24.584 35.606 31.081 8 4.034 26.216 9.69 38.454 11.939 12.257 2.252 39.255 3.024 53.942 1.542 18.251-1.842 17.684-1.296 8.683-8.355-4.262-3.343-15.849-12.89-25.749-21.217-9.9-8.326-22.117-18.255-27.149-22.064-29.535-22.359-56.641-31.649-91.351-31.307-6.325.062-12.279.317-13.231.567m116.731.439c-4.4.473-9.948 1.2-12.329 1.617l-4.328.758 6.814 5c8.112 5.953 15.259 11.934 33.343 27.902 33.758 29.809 51.124 39.501 80.1 44.708 12.682 2.278 46.9 3.873 46.9 2.185 0-1.987-9.891-20.315-15.071-27.925-7.577-11.135-23.56-26.909-34.405-33.957-26.461-17.197-62.473-24.429-101.024-20.288m1467.902 17.819c-16.054 2.522-29.395 11.21-35.09 22.852-2.298 4.695-2.705 6.795-2.662 13.709.065 10.24 3.003 17.28 10.015 23.999 6.495 6.223 14.361 9.782 31.621 14.307 17.283 4.531 19.714 5.858 19.714 10.758 0 8.476-13.25 13.225-23.684 8.488-4.266-1.937-7.316-6.109-7.316-10.007 0-1.984-.532-2.05-16.64-2.05h-16.64l.568 5.503c1.114 10.789 7.786 21.127 17.771 27.535 16.238 10.42 41.67 11.185 60.236 1.813 7.304-3.687 14.457-10.692 17.717-17.351 2.039-4.164 2.452-6.505 2.468-14 .017-7.861-.335-9.723-2.786-14.714-3.216-6.55-9.599-12.624-17.073-16.248-2.816-1.366-11.871-4.316-20.121-6.555-18.918-5.134-23.006-7.798-20.948-13.649 1.361-3.873 6.866-7.334 11.662-7.334 6.339 0 12.19 4.01 13.314 9.126l.631 2.874h33.071l-.665-5.75c-2.226-19.225-18.369-32.067-42.244-33.604-4.302-.277-10.115-.143-12.919.298m191.134.169c-14.313 2.085-25.259 7.59-35.546 17.877-12.124 12.124-17.99 26.311-17.99 43.51 0 16.909 5.889 31.428 17.47 43.065 10.97 11.025 22.17 16.464 37.937 18.423 37.083 4.609 69.038-21.347 71.267-57.886 1.99-32.623-21.122-60.451-53.996-65.016-8.756-1.216-10.632-1.213-19.142.027m153.464.249c-8.18 1.777-14.872 5.413-20.75 11.273l-5.25 5.235V225h-34v119h34v-33.318c0-38.625.419-41.364 7.386-48.331 3.007-3.007 5.797-4.639 10.041-5.873 10.939-3.18 19.887.096 25.268 9.25l2.805 4.772.5 36.5.5 36.5 17.25.274 17.25.273v-37.435c0-42.146-.634-48.098-6.424-60.29-6.128-12.904-17.052-20.954-31.576-23.27-7.898-1.26-9.944-1.222-17 .31m-1267.267 1.202c-3.172.769-8.525 2.765-11.894 4.437-22.273 11.051-33.864 30.21-33.824 55.909.028 18.628 5.326 31.71 17.87 44.13 12.613 12.489 25.318 17.375 45.115 17.35 13.335-.016 20.733-1.677 31.942-7.171 7.191-3.524 20.058-14.151 20.058-16.566 0-.614-4.324-5.458-9.609-10.762l-9.609-9.646-6.296 4.766c-8.44 6.388-14.796 8.493-25.486 8.443-6.44-.03-9.591-.544-13-2.121-5.629-2.604-10.76-7.628-13.103-12.833l-1.801-4 43.329-.26 43.329-.261.623-3.114c2.145-10.723-.461-26.551-6.331-38.462-7.141-14.487-21.869-26.028-38.099-29.854-8.01-1.888-25.393-1.88-33.214.015m270.895.408c-11.516 3.104-19.283 7.661-28.149 16.517-12.569 12.553-17.479 24.584-17.479 42.827 0 18.252 5.376 31.39 17.875 43.684 13.188 12.972 26.892 18.456 46.125 18.456 13.441 0 21.642-2.098 31.792-8.133 6.058-3.601 18.208-15.062 18.208-17.175 0-.81-17.431-13.645-23.724-17.469-.894-.542-2.593.27-5.018 2.399-2.017 1.771-6.096 4.332-9.064 5.691-4.712 2.157-6.446 2.416-13.638 2.039-6.636-.349-9.131-.955-12.814-3.113-9.592-5.622-14.742-14.773-14.742-26.195 0-11.783 5.424-21.061 15.362-26.276 4.408-2.313 6.346-2.696 13.638-2.698 9.583-.002 14.627 1.934 21.035 8.073l3.534 3.386 12.671-8.742c6.969-4.809 12.691-9.364 12.716-10.123.024-.759-2.993-4.36-6.706-8.001-7.542-7.398-17.377-13.079-26.894-15.534-8.558-2.208-25.814-2.015-34.728.387m126.481-.391c-20.96 5.637-35.855 22.056-40.526 44.673-7.845 37.98 13.463 72.426 47.597 76.943 15.028 1.988 30.369-2.548 40.62-12.013l4.2-3.877V344h35V226h-35V238.255l-4.401-4.057c-8.557-7.887-18.324-11.23-32.531-11.132-5.262.036-11.994.718-14.959 1.515m344.908 39.669c.019 42.723.483 47.566 5.591 58.413 3.905 8.293 13.249 17.398 20.718 20.189 8.37 3.127 18.551 4.371 26.008 3.178 8.078-1.294 19.495-6.991 24-11.978l3.577-3.959.294 6.704.295 6.703 17.25.274 17.25.273V224.953l-17.25.273-17.25.274-.5 36c-.562 40.439-.554 40.394-8.171 46.915-4.825 4.13-11.089 5.977-18.252 5.383-7.359-.61-12.725-4.247-16.312-11.053l-2.765-5.245-.307-36.25-.307-36.25H1650l.017 39.25m262.442-38c-.263.688-.361 27.35-.219 59.25l.26 58 17.25.274 17.25.273V225h-17.031c-12.704 0-17.153.318-17.51 1.25M1073 285v59h35V226h-35v59m-157.006-31.124c-7.624 2.496-12.711 7.018-15.887 14.124l-2.011 4.5 26.102.267c14.356.147 26.247.121 26.425-.056.961-.962-2.155-8.247-4.833-11.297-4.874-5.552-10.047-7.713-19.29-8.059-4.4-.164-9.128.07-10.506.521m401.33 2.762c-6.002 2.126-12.763 8.517-15.99 15.112-2.252 4.602-2.773 7.012-2.749 12.714.094 22.268 21.771 36.194 41.215 26.478 9.911-4.952 15.172-12.876 15.975-24.058.7-9.751-1.646-15.915-8.766-23.035-4.321-4.321-6.945-6.049-11.022-7.26-6.525-1.938-13.105-1.921-18.663.049m704.424-.211c-24.771 8.84-24.477 47.859.423 56.13 6.245 2.074 15.756 1.588 21.329-1.09 12.121-5.824 18.625-20.622 15.105-34.362-2.663-10.395-9.125-17.706-18.504-20.935-4.486-1.544-13.666-1.416-18.353.257" fill="#005978" fill-rule="evenodd"/></svg>