<?xml version="1.0" encoding="utf-8"?>
<!-- Generator: Adobe Illustrator 25.4.1, SVG Export Plug-In . SVG Version: 6.00 Build 0)  -->
<svg version="1.1" id="レイヤー_1" xmlns="http://www.w3.org/2000/svg" xmlns:xlink="http://www.w3.org/1999/xlink" x="0px"
	 y="0px" viewBox="0 0 546 140" style="enable-background:new 0 0 546 140;" xml:space="preserve">
<style type="text/css">
	.st0{fill:#231815;}
	.st1{fill:#251E1C;}
	.st2{fill:#E95504;}
</style>
<g>
	<g>
		<g>
			<path class="st0" d="M223.8,115.7c2.9,3,8.8,5.8,13.7,6.3c5.8,0.6,9.8-0.1,13.3-3.7c5.2-5.4,3.9-13-1-16.4s-9.2-4.1-13.6-6.6
				c-1.6-0.9-2.7-2.9-2.6-4.4c0.2-3,3.8-4.9,8.1-4.2c2.9,0.5,5.6,2.1,6.9,3.1l5.1-5.1c-3.2-2.9-7.5-4.9-11.6-5.3
				c-8.9-0.8-15.8,3.9-16.5,11.7c-0.2,2.2,0.5,4.2,1.6,5.8c1.2,1.8,3.3,4.4,10.7,6.9c4.3,1.4,6.9,2.5,8,4.7c1.1,2.1,0.5,4.8-2.2,6
				c-3.2,1.5-7.5-0.1-8.5-0.5c-2.3-0.9-4.7-2.3-6.8-4.1L223.8,115.7z"/>
			<path class="st0" d="M181.3,87.1h-19.4v10.3h16.5v7.3h-16.5v17h-8.2V79.8h27.5v7.3H181.3z"/>
			<path class="st0" d="M269.4,121.6h-8.2V79.8h8.2V121.6z"/>
			<path class="st0" d="M345.8,121.6h-7.3L322,96v25.6h-8.2V79.8h7.3l16.5,25.6V79.8h8.2V121.6z"/>
			<path class="st0" d="M381.2,121.6h-27.5V79.8h27.5v7.3h-19.4v9.8h16.5v7.3h-16.5v10.2h19.4V121.6z"/>
			<path class="st0" d="M415.5,121.6H388V79.8h27.5v7.3h-19.4v9.8h16.5v7.3h-16.5v10.2h19.4V121.6z"/>
			<path class="st0" d="M454,121.6h-9.4l-8.2-16.7h-5.9v16.7h-8.2V79.8h16.4c4.1,0,7.5,1.3,10,3.8c2.4,2.4,3.6,5.4,3.6,9
				c0,2.8-0.8,5.2-2.3,7.2c-1.4,1.8-3.1,3-5.3,3.8L454,121.6z M443.7,92.6c0-1.6-0.5-3-1.6-4s-2.5-1.5-4.3-1.5h-7.7v11h7.7
				c1.8,0,3.2-0.5,4.3-1.5C443.1,95.5,443.7,94.2,443.7,92.6z"/>
			<path class="st0" d="M467.8,121.6h-8.2V79.8h8.2V121.6z"/>
			<path class="st0" d="M507.1,121.6h-7.3L483.3,96v25.6h-8.2V79.8h7.3l16.5,25.6V79.8h8.2L507.1,121.6L507.1,121.6z"/>
			<path class="st0" d="M291.9,79.4c-8.5,0-15.4,6.9-15.4,15.4v11.7c0,8.5,6.9,15.4,15.4,15.4s15.4-6.9,15.4-15.4V94.8
				C307.3,86.3,300.4,79.4,291.9,79.4z M299.9,106.7c0,4.5-3.6,8.1-8.1,8.1s-8.1-3.6-8.1-8.1v-12c0-4.5,3.6-8.1,8.1-8.1
				s8.1,3.6,8.1,8.1V106.7z"/>
			<path class="st0" d="M211.7,79.8v26.8c0,4.3-3.5,7.9-7.9,7.9c-4.3,0-7.9-3.5-7.9-7.9V79.8h-7.6v26.8c0,8.5,6.9,15.4,15.4,15.4
				s15.4-6.9,15.4-15.4V79.8H211.7z"/>
			<path class="st0" d="M527.8,98.3v6.9h8.6v1.4c0,4.3-3.5,7.9-7.9,7.9c-4.3,0-7.9-3.5-7.9-7.9V94.8c0-4.3,3.5-7.9,7.9-7.9
				c3.7,0,6.7,2.5,7.6,5.9h7.7c-1-7.6-7.4-13.4-15.3-13.4c-8.5,0-15.4,6.9-15.4,15.4v11.7c0,8.5,6.9,15.4,15.4,15.4
				s15.4-6.9,15.4-15.4v-1.4v-2.4v-4.5h-16.1V98.3z"/>
			<g>
				<path class="st0" d="M177.9,69.5h-5.5l-8.7-15.3l-5.2,6.3v9h-4.7V38.6h4.7v15.6l12.6-15.6h5.7l-10,12.1L177.9,69.5z"/>
				<path class="st0" d="M203.1,38.6l-9.3,18.2v12.7h-4.7V56.8l-9.2-18.2h5.1l6.5,13.6l6.5-13.6H203.1z"/>
				<path class="st0" d="M252,42.8h-8.5v26.7h-4.7V42.8h-8.5v-4.2H252V42.8z"/>
				<path class="st0" d="M216.5,38.3c-6.1,0-11.1,5-11.1,11.1v9.3c0,6.1,5,11.1,11.1,11.1s11.1-5,11.1-11.1v-9.3
					C227.6,43.3,222.6,38.3,216.5,38.3z M223.3,58.7c0,3.8-3.1,6.9-6.9,6.9c-3.8,0-6.9-3.1-6.9-6.9v-9.3c0-3.8,3.1-6.9,6.9-6.9
					c3.8,0,6.9,3.1,6.9,6.9V58.7z"/>
				<path class="st0" d="M265.4,38.3c-6.1,0-11.1,5-11.1,11.1v9.3c0,6.1,5,11.1,11.1,11.1s11.1-5,11.1-11.1v-9.3
					C276.5,43.3,271.5,38.3,265.4,38.3z M272.2,58.7c0,3.8-3.1,6.9-6.9,6.9s-6.9-3.1-6.9-6.9v-9.3c0-3.8,3.1-6.9,6.9-6.9
					s6.9,3.1,6.9,6.9V58.7z"/>
			</g>
		</g>
		<g>
			<path class="st1" d="M223.8,115.7c2.9,3,8.8,5.8,13.7,6.3c5.8,0.6,9.8-0.1,13.3-3.7c5.2-5.4,3.9-13-1-16.4s-9.2-4.1-13.6-6.6
				c-1.6-0.9-2.7-2.9-2.6-4.4c0.2-3,3.8-4.9,8.1-4.2c2.9,0.5,5.6,2.1,6.9,3.1l5.1-5.1c-3.2-2.9-7.5-4.9-11.6-5.3
				c-8.9-0.8-15.8,3.9-16.5,11.7c-0.2,2.2,0.5,4.2,1.6,5.8c1.2,1.8,3.3,4.4,10.7,6.9c4.3,1.4,6.9,2.5,8,4.7c1.1,2.1,0.5,4.8-2.2,6
				c-3.2,1.5-7.5-0.1-8.5-0.5c-2.3-0.9-4.7-2.3-6.8-4.1L223.8,115.7z"/>
			<path class="st1" d="M181.3,87.1h-19.4v10.3h16.5v7.3h-16.5v17h-8.2V79.8h27.5v7.3H181.3z"/>
			<path class="st1" d="M269.4,121.6h-8.2V79.8h8.2V121.6z"/>
			<path class="st1" d="M345.8,121.6h-7.3L322,96v25.6h-8.2V79.8h7.3l16.5,25.6V79.8h8.2V121.6z"/>
			<path class="st1" d="M381.2,121.6h-27.5V79.8h27.5v7.3h-19.4v9.8h16.5v7.3h-16.5v10.2h19.4V121.6z"/>
			<path class="st1" d="M415.5,121.6H388V79.8h27.5v7.3h-19.4v9.8h16.5v7.3h-16.5v10.2h19.4V121.6z"/>
			<path class="st1" d="M454,121.6h-9.4l-8.2-16.7h-5.9v16.7h-8.2V79.8h16.4c4.1,0,7.5,1.3,10,3.8c2.4,2.4,3.6,5.4,3.6,9
				c0,2.8-0.8,5.2-2.3,7.2c-1.4,1.8-3.1,3-5.3,3.8L454,121.6z M443.7,92.6c0-1.6-0.5-3-1.6-4s-2.5-1.5-4.3-1.5h-7.7v11h7.7
				c1.8,0,3.2-0.5,4.3-1.5C443.1,95.5,443.7,94.2,443.7,92.6z"/>
			<path class="st1" d="M467.8,121.6h-8.2V79.8h8.2V121.6z"/>
			<path class="st1" d="M507.1,121.6h-7.3L483.3,96v25.6h-8.2V79.8h7.3l16.5,25.6V79.8h8.2L507.1,121.6L507.1,121.6z"/>
			<path class="st1" d="M291.9,79.4c-8.5,0-15.4,6.9-15.4,15.4v11.7c0,8.5,6.9,15.4,15.4,15.4s15.4-6.9,15.4-15.4V94.8
				C307.3,86.3,300.4,79.4,291.9,79.4z M299.9,106.7c0,4.5-3.6,8.1-8.1,8.1s-8.1-3.6-8.1-8.1v-12c0-4.5,3.6-8.1,8.1-8.1
				s8.1,3.6,8.1,8.1V106.7z"/>
			<path class="st1" d="M211.7,79.8v26.8c0,4.3-3.5,7.9-7.9,7.9c-4.3,0-7.9-3.5-7.9-7.9V79.8h-7.6v26.8c0,8.5,6.9,15.4,15.4,15.4
				s15.4-6.9,15.4-15.4V79.8H211.7z"/>
			<path class="st1" d="M527.8,98.3v6.9h8.6v1.4c0,4.3-3.5,7.9-7.9,7.9c-4.3,0-7.9-3.5-7.9-7.9V94.8c0-4.3,3.5-7.9,7.9-7.9
				c3.7,0,6.7,2.5,7.6,5.9h7.7c-1-7.6-7.4-13.4-15.3-13.4c-8.5,0-15.4,6.9-15.4,15.4v11.7c0,8.5,6.9,15.4,15.4,15.4
				s15.4-6.9,15.4-15.4v-1.4v-2.4v-4.5h-16.1V98.3z"/>
			<g>
				<path class="st1" d="M177.9,69.5h-5.5l-8.7-15.3l-5.2,6.3v9h-4.7V38.6h4.7v15.6l12.6-15.6h5.7l-10,12.1L177.9,69.5z"/>
				<path class="st1" d="M203.1,38.6l-9.3,18.2v12.7h-4.7V56.8l-9.2-18.2h5.1l6.5,13.6l6.5-13.6H203.1z"/>
				<path class="st1" d="M252,42.8h-8.5v26.7h-4.7V42.8h-8.5v-4.2H252V42.8z"/>
				<path class="st1" d="M216.5,38.3c-6.1,0-11.1,5-11.1,11.1v9.3c0,6.1,5,11.1,11.1,11.1s11.1-5,11.1-11.1v-9.3
					C227.6,43.3,222.6,38.3,216.5,38.3z M223.3,58.7c0,3.8-3.1,6.9-6.9,6.9c-3.8,0-6.9-3.1-6.9-6.9v-9.3c0-3.8,3.1-6.9,6.9-6.9
					c3.8,0,6.9,3.1,6.9,6.9V58.7z"/>
				<path class="st1" d="M265.4,38.3c-6.1,0-11.1,5-11.1,11.1v9.3c0,6.1,5,11.1,11.1,11.1s11.1-5,11.1-11.1v-9.3
					C276.5,43.3,271.5,38.3,265.4,38.3z M272.2,58.7c0,3.8-3.1,6.9-6.9,6.9s-6.9-3.1-6.9-6.9v-9.3c0-3.8,3.1-6.9,6.9-6.9
					s6.9,3.1,6.9,6.9V58.7z"/>
			</g>
		</g>
	</g>
	<g>
		<circle class="st2" cx="101.4" cy="100.2" r="22.1"/>
		<g>
			<g>
				<path class="st2" d="M2.2,139.9v-39.6c0-54.8,44.4-99.2,99.2-99.2l0,0v44.4l0,0c-30.1,0-54.6,24.4-54.6,54.6v39.8H2.2z"/>
			</g>
		</g>
	</g>
</g>
</svg>
