<svg id="レイヤー_1" data-name="レイヤー 1" xmlns="http://www.w3.org/2000/svg" viewBox="0 0 216 56"><defs><style>.cls-1{fill:#ea5514;}</style></defs><path class="cls-1" d="M88.33,46a9.85,9.85,0,0,0,5.46,2.52c2.3.26,3.89,0,5.3-1.48a4.25,4.25,0,0,0-.4-6.53c-2-1.35-3.66-1.62-5.44-2.64a2,2,0,0,1-1-1.77c.1-1.19,1.51-2,3.25-1.67a6.64,6.64,0,0,1,2.76,1.24l2-2a8.28,8.28,0,0,0-4.62-2.11c-3.55-.3-6.29,1.56-6.57,4.66a3.67,3.67,0,0,0,.62,2.29c.47.72,1.32,1.75,4.28,2.74,1.72.58,2.75,1,3.19,1.86a1.7,1.7,0,0,1-.88,2.39,4.81,4.81,0,0,1-3.38-.21,9.14,9.14,0,0,1-2.7-1.64Z"/><path class="cls-1" d="M71.4,34.62H63.68v4.1h6.57v2.9H63.68v6.76H60.43V31.72h11Z"/><path class="cls-1" d="M106.53,48.38h-3.25V31.72h3.25Z"/><path class="cls-1" d="M137,48.38h-2.9l-6.6-10.22V48.38h-3.25V31.72h2.9l6.6,10.2V31.72H137Z"/><path class="cls-1" d="M151.11,48.38h-11V31.72h11v2.9h-7.72v3.91H150v2.9h-6.57v4h7.72Z"/><path class="cls-1" d="M164.77,48.38h-11V31.72h11v2.9h-7.72v3.91h6.57v2.9h-6.57v4h7.72Z"/><path class="cls-1" d="M180.12,48.38h-3.77l-3.25-6.65h-2.34v6.65h-3.25V31.72H174a5.35,5.35,0,0,1,4,1.5,4.84,4.84,0,0,1,1.43,3.6,4.57,4.57,0,0,1-.91,2.86,4.7,4.7,0,0,1-2.13,1.52ZM176,36.81a2,2,0,0,0-.66-1.58,2.36,2.36,0,0,0-1.7-.61h-3.07V39h3.07a2.36,2.36,0,0,0,1.7-.61A2,2,0,0,0,176,36.81Z"/><path class="cls-1" d="M185.64,48.38h-3.26V31.72h3.26Z"/><path class="cls-1" d="M201.32,48.38h-2.9l-6.6-10.22V48.38h-3.25V31.72h2.9l6.59,10.2V31.72h3.26Z"/><path class="cls-1" d="M115.48,31.56a6.15,6.15,0,0,0-6.15,6.14v4.68a6.15,6.15,0,1,0,12.3,0V37.7A6.14,6.14,0,0,0,115.48,31.56Zm3.22,10.89a3.22,3.22,0,0,1-6.44,0V37.64a3.22,3.22,0,0,1,6.44,0Z"/><path class="cls-1" d="M83.52,31.69V42.38a3.14,3.14,0,1,1-6.27,0V31.69h-3V42.38a6.15,6.15,0,1,0,12.29,0V31.69Z"/><path class="cls-1" d="M209.54,39.09v2.75H213v.54a3.14,3.14,0,1,1-6.27,0V37.7a3.13,3.13,0,0,1,6.15-.79h3.07a6.14,6.14,0,0,0-12.23.79v4.68a6.15,6.15,0,1,0,12.29,0V39.09Z"/><path class="cls-1" d="M70.06,27.62h-2.2l-3.47-6.08L62.32,24v3.59H60.43V15.29h1.89v6.2l5-6.2h2.28l-4,4.83Z"/><path class="cls-1" d="M80.09,15.29,76.4,22.55v5.07H74.51V22.55l-3.68-7.26h2l2.58,5.42L78,15.29Z"/><path class="cls-1" d="M99.6,17H96.21V27.62H94.34V17h-3.4V15.29H99.6Z"/><path class="cls-1" d="M85.42,15.16A4.44,4.44,0,0,0,81,19.6v3.69a4.44,4.44,0,0,0,8.88,0V19.6A4.44,4.44,0,0,0,85.42,15.16Zm2.74,8.13a2.74,2.74,0,1,1-5.47,0V19.6a2.74,2.74,0,0,1,5.47,0Z"/><path class="cls-1" d="M104.92,15.16a4.44,4.44,0,0,0-4.44,4.44v3.69a4.44,4.44,0,1,0,8.88,0V19.6A4.44,4.44,0,0,0,104.92,15.16Zm2.73,8.13a2.74,2.74,0,1,1-5.47,0V19.6a2.74,2.74,0,0,1,5.47,0Z"/><circle class="cls-1" cx="39.56" cy="39.85" r="8.79"/><path class="cls-1" d="M0,55.67V39.89A39.56,39.56,0,0,1,39.56.33h0V18.05h0A21.75,21.75,0,0,0,17.81,39.8V55.67Z"/></svg>