<svg class="prefix__Qr-item-svg" viewBox="-6.6 -6.6 46.2 46.2" fill="#fff" xmlns="http://www.w3.org/2000/svg"><circle r=".491" fill="#0693e3" cx=".5" cy="8.5"/><circle r=".484" fill="#0693e3" cx=".5" cy="9.5"/><circle r=".459" fill="#0693e3" cx=".5" cy="15.5"/><circle r=".461" fill="#0693e3" cx=".5" cy="18.5"/><circle r=".472" fill="#0693e3" cx=".5" cy="21.5"/><circle r=".478" fill="#0693e3" cx=".5" cy="22.5"/><circle r=".484" fill="#0693e3" cx=".5" cy="23.5"/><circle r=".491" fill="#0693e3" cx=".5" cy="24.5"/><circle r=".469" fill="#0693e3" cx="1.5" cy="9.5"/><circle r=".455" fill="#0693e3" cx="1.5" cy="11.5"/><circle r=".449" fill="#0693e3" cx="1.5" cy="12.5"/><circle r=".461" fill="#0693e3" cx="1.5" cy="22.5"/><circle r=".469" fill="#0693e3" cx="1.5" cy="23.5"/><circle r=".452" fill="#0693e3" cx="2.5" cy="9.5"/><circle r=".444" fill="#0693e3" cx="2.5" cy="10.5"/><circle r=".436" fill="#0693e3" cx="2.5" cy="11.5"/><circle r=".425" fill="#0693e3" cx="2.5" cy="13.5"/><circle r=".421" fill="#0693e3" cx="2.5" cy="14.5"/><circle r=".419" fill="#0693e3" cx="2.5" cy="17.5"/><circle fill="#0693e3" cx="2.5" cy="20.5" r=".43"/><circle r=".452" fill="#0693e3" cx="2.5" cy="23.5"/><circle r=".461" fill="#0693e3" cx="2.5" cy="24.5"/><circle r="1.5" fill="#9900ef" cx="3.5" cy="3.5"/><circle r="3" fill="none" cx="3.5" cy="3.5" stroke="#9900ef"/><circle r=".444" fill="#0693e3" cx="3.5" cy="8.5"/><circle r=".434" fill="#0693e3" cx="3.5" cy="9.5"/><circle r=".417" fill="#0693e3" cx="3.5" cy="11.5"/><circle r=".404" fill="#0693e3" cx="3.5" cy="13.5"/><circle r=".4" fill="#0693e3" cx="3.5" cy="14.5"/><circle r=".397" fill="#0693e3" cx="3.5" cy="15.5"/><circle r=".396" fill="#0693e3" cx="3.5" cy="16.5"/><circle r=".4" fill="#0693e3" cx="3.5" cy="18.5"/><circle r=".41" fill="#0693e3" cx="3.5" cy="20.5"/><circle r=".425" fill="#0693e3" cx="3.5" cy="22.5"/><circle r="1.5" fill="#9900ef" cx="3.5" cy="29.5"/><circle r="3" fill="none" cx="3.5" cy="29.5" stroke="#9900ef"/><circle r=".416" fill="#0693e3" cx="4.5" cy="9.5"/><circle r=".406" fill="#0693e3" cx="4.5" cy="10.5"/><circle r=".396" fill="#0693e3" cx="4.5" cy="11.5"/><circle r=".389" fill="#0693e3" cx="4.5" cy="12.5"/><circle r=".378" fill="#0693e3" cx="4.5" cy="14.5"/><circle r=".375" fill="#0693e3" cx="4.5" cy="15.5"/><circle r=".374" fill="#0693e3" cx="4.5" cy="16.5"/><circle r=".378" fill="#0693e3" cx="4.5" cy="18.5"/><circle r=".386" fill="#0693e3" cx="5.5" cy="10.5"/><circle r=".352" fill="#0693e3" cx="5.5" cy="16.5"/><circle r=".356" fill="#0693e3" cx="5.5" cy="18.5"/><circle r=".392" fill="#0693e3" cx="6.5" cy="8.5"/><circle r=".367" fill="#0693e3" cx="6.5" cy="10.5"/><circle r=".347" fill="#0693e3" cx="6.5" cy="12.5"/><circle r=".334" fill="#0693e3" cx="6.5" cy="14.5"/><circle r=".33" fill="#0693e3" cx="6.5" cy="16.5"/><circle r=".334" fill="#0693e3" cx="6.5" cy="18.5"/><circle r=".347" fill="#0693e3" cx="6.5" cy="20.5"/><circle r=".367" fill="#0693e3" cx="6.5" cy="22.5"/><circle r=".392" fill="#0693e3" cx="6.5" cy="24.5"/><circle r=".336" fill="#0693e3" cx="7.5" cy="11.5"/><circle r=".318" fill="#0693e3" cx="7.5" cy="13.5"/><circle r=".313" fill="#0693e3" cx="7.5" cy="14.5"/><circle r=".309" fill="#0693e3" cx="7.5" cy="15.5"/><circle r=".308" fill="#0693e3" cx="7.5" cy="16.5"/><circle r=".309" fill="#0693e3" cx="7.5" cy="17.5"/><circle r=".313" fill="#0693e3" cx="7.5" cy="18.5"/><circle r=".326" fill="#0693e3" cx="7.5" cy="20.5"/><circle r=".336" fill="#0693e3" cx="7.5" cy="21.5"/><circle r=".348" fill="#0693e3" cx="7.5" cy="22.5"/><circle r=".375" fill="#0693e3" cx="7.5" cy="24.5"/><circle r=".461" fill="#0693e3" cx="8.5" cy="2.5"/><circle r=".427" fill="#0693e3" cx="8.5" cy="4.5"/><circle r=".41" fill="#0693e3" cx="8.5" cy="5.5"/><circle r=".392" fill="#0693e3" cx="8.5" cy="6.5"/><circle r=".359" fill="#0693e3" cx="8.5" cy="8.5"/><circle r=".343" fill="#0693e3" cx="8.5" cy="9.5"/><circle r=".299" fill="#0693e3" cx="8.5" cy="13.5"/><circle r=".289" fill="#0693e3" cx="8.5" cy="15.5"/><circle r=".299" fill="#0693e3" cx="8.5" cy="19.5"/><circle r=".317" fill="#0693e3" cx="8.5" cy="21.5"/><circle r=".343" fill="#0693e3" cx="8.5" cy="23.5"/><circle r=".359" fill="#0693e3" cx="8.5" cy="24.5"/><circle r=".375" fill="#0693e3" cx="8.5" cy="25.5"/><circle r=".444" fill="#0693e3" cx="8.5" cy="29.5"/><circle r=".491" fill="#0693e3" cx="8.5" cy="32.5"/><circle r=".484" fill="#0693e3" cx="9.5" cy=".5"/><circle r=".452" fill="#0693e3" cx="9.5" cy="2.5"/><circle r=".434" fill="#0693e3" cx="9.5" cy="3.5"/><circle r=".416" fill="#0693e3" cx="9.5" cy="4.5"/><circle r=".361" fill="#0693e3" cx="9.5" cy="7.5"/><circle r=".327" fill="#0693e3" cx="9.5" cy="9.5"/><circle r=".3" fill="#0693e3" cx="9.5" cy="11.5"/><circle r=".289" fill="#0693e3" cx="9.5" cy="12.5"/><circle r=".28" fill="#0693e3" cx="9.5" cy="13.5"/><circle r=".274" fill="#0693e3" cx="9.5" cy="14.5"/><circle r=".269" fill="#0693e3" cx="9.5" cy="16.5"/><circle r=".274" fill="#0693e3" cx="9.5" cy="18.5"/><circle r=".289" fill="#0693e3" cx="9.5" cy="20.5"/><circle r=".3" fill="#0693e3" cx="9.5" cy="21.5"/><circle r=".343" fill="#0693e3" cx="9.5" cy="24.5"/><circle r=".379" fill="#0693e3" cx="9.5" cy="26.5"/><circle r=".452" fill="#0693e3" cx="9.5" cy="30.5"/><circle r=".469" fill="#0693e3" cx="9.5" cy="31.5"/><circle r=".484" fill="#0693e3" cx="9.5" cy="32.5"/><circle r=".425" fill="#0693e3" cx="10.5" cy="3.5"/><circle r=".406" fill="#0693e3" cx="10.5" cy="4.5"/><circle r=".367" fill="#0693e3" cx="10.5" cy="6.5"/><circle r=".313" fill="#0693e3" cx="10.5" cy="9.5"/><circle r=".284" fill="#0693e3" cx="10.5" cy="11.5"/><circle r=".273" fill="#0693e3" cx="10.5" cy="12.5"/><circle r=".257" fill="#0693e3" cx="10.5" cy="14.5"/><circle r=".253" fill="#0693e3" cx="10.5" cy="15.5"/><circle r=".251" fill="#0693e3" cx="10.5" cy="16.5"/><circle r=".253" fill="#0693e3" cx="10.5" cy="17.5"/><circle r=".257" fill="#0693e3" cx="10.5" cy="18.5"/><circle r=".263" fill="#0693e3" cx="10.5" cy="19.5"/><circle r=".297" fill="#0693e3" cx="10.5" cy="22.5"/><circle r=".367" fill="#0693e3" cx="10.5" cy="26.5"/><circle r=".406" fill="#0693e3" cx="10.5" cy="28.5"/><circle r=".425" fill="#0693e3" cx="10.5" cy="29.5"/><circle r=".461" fill="#0693e3" cx="10.5" cy="31.5"/><circle r=".478" fill="#0693e3" cx="10.5" cy="32.5"/><circle r=".472" fill="#0693e3" cx="11.5" cy=".5"/><circle r=".455" fill="#0693e3" cx="11.5" cy="1.5"/><circle r=".436" fill="#0693e3" cx="11.5" cy="2.5"/><circle r=".417" fill="#0693e3" cx="11.5" cy="3.5"/><circle r=".396" fill="#0693e3" cx="11.5" cy="4.5"/><circle r=".336" fill="#0693e3" cx="11.5" cy="7.5"/><circle r=".3" fill="#0693e3" cx="11.5" cy="9.5"/><circle r=".284" fill="#0693e3" cx="11.5" cy="10.5"/><circle r=".27" fill="#0693e3" cx="11.5" cy="11.5"/><circle r=".258" fill="#0693e3" cx="11.5" cy="12.5"/><circle r=".249" fill="#0693e3" cx="11.5" cy="13.5"/><circle r=".238" fill="#0693e3" cx="11.5" cy="17.5"/><circle r=".27" fill="#0693e3" cx="11.5" cy="21.5"/><circle r=".284" fill="#0693e3" cx="11.5" cy="22.5"/><circle r=".3" fill="#0693e3" cx="11.5" cy="23.5"/><circle r=".356" fill="#0693e3" cx="11.5" cy="26.5"/><circle r=".455" fill="#0693e3" cx="11.5" cy="31.5"/><circle r=".467" fill="#0693e3" cx="12.5" cy=".5"/><circle r=".449" fill="#0693e3" cx="12.5" cy="1.5"/><circle r=".347" fill="#0693e3" cx="12.5" cy="6.5"/><circle r=".307" fill="#0693e3" cx="12.5" cy="8.5"/><circle r=".289" fill="#0693e3" cx="12.5" cy="9.5"/><circle r=".273" fill="#0693e3" cx="12.5" cy="10.5"/><circle r=".246" fill="#0693e3" cx="12.5" cy="12.5"/><circle r=".236" fill="#0693e3" cx="12.5" cy="13.5"/><circle r=".229" fill="#0693e3" cx="12.5" cy="14.5"/><circle r=".236" fill="#0693e3" cx="12.5" cy="19.5"/><circle r=".246" fill="#0693e3" cx="12.5" cy="20.5"/><circle r=".273" fill="#0693e3" cx="12.5" cy="22.5"/><circle r=".289" fill="#0693e3" cx="12.5" cy="23.5"/><circle r=".307" fill="#0693e3" cx="12.5" cy="24.5"/><circle r=".326" fill="#0693e3" cx="12.5" cy="25.5"/><circle r=".347" fill="#0693e3" cx="12.5" cy="26.5"/><circle r=".389" fill="#0693e3" cx="12.5" cy="28.5"/><circle r=".467" fill="#0693e3" cx="12.5" cy="32.5"/><circle r=".318" fill="#0693e3" cx="13.5" cy="7.5"/><circle r=".28" fill="#0693e3" cx="13.5" cy="9.5"/><circle r=".263" fill="#0693e3" cx="13.5" cy="10.5"/><circle r=".215" fill="#0693e3" cx="13.5" cy="15.5"/><circle r=".213" fill="#0693e3" cx="13.5" cy="16.5"/><circle r=".219" fill="#0693e3" cx="13.5" cy="18.5"/><circle r=".263" fill="#0693e3" cx="13.5" cy="22.5"/><circle r=".299" fill="#0693e3" cx="13.5" cy="24.5"/><circle r=".339" fill="#0693e3" cx="13.5" cy="26.5"/><circle r=".361" fill="#0693e3" cx="13.5" cy="27.5"/><circle r=".404" fill="#0693e3" cx="13.5" cy="29.5"/><circle r=".425" fill="#0693e3" cx="13.5" cy="30.5"/><circle r=".445" fill="#0693e3" cx="13.5" cy="31.5"/><circle r=".464" fill="#0693e3" cx="13.5" cy="32.5"/><circle r=".461" fill="#0693e3" cx="14.5" cy=".5"/><circle r=".442" fill="#0693e3" cx="14.5" cy="1.5"/><circle r=".4" fill="#0693e3" cx="14.5" cy="3.5"/><circle r=".378" fill="#0693e3" cx="14.5" cy="4.5"/><circle r=".334" fill="#0693e3" cx="14.5" cy="6.5"/><circle r=".293" fill="#0693e3" cx="14.5" cy="8.5"/><circle r=".274" fill="#0693e3" cx="14.5" cy="9.5"/><circle r=".242" fill="#0693e3" cx="14.5" cy="11.5"/><circle r=".219" fill="#0693e3" cx="14.5" cy="13.5"/><circle r=".212" fill="#0693e3" cx="14.5" cy="14.5"/><circle r=".207" fill="#0693e3" cx="14.5" cy="15.5"/><circle r=".206" fill="#0693e3" cx="14.5" cy="16.5"/><circle r=".212" fill="#0693e3" cx="14.5" cy="18.5"/><circle r=".219" fill="#0693e3" cx="14.5" cy="19.5"/><circle r=".242" fill="#0693e3" cx="14.5" cy="21.5"/><circle r=".293" fill="#0693e3" cx="14.5" cy="24.5"/><circle r=".334" fill="#0693e3" cx="14.5" cy="26.5"/><circle r=".4" fill="#0693e3" cx="14.5" cy="29.5"/><circle r=".421" fill="#0693e3" cx="14.5" cy="30.5"/><circle r=".442" fill="#0693e3" cx="14.5" cy="31.5"/><circle r=".461" fill="#0693e3" cx="14.5" cy="32.5"/><circle r=".459" fill="#0693e3" cx="15.5" cy=".5"/><circle r=".397" fill="#0693e3" cx="15.5" cy="3.5"/><circle r=".375" fill="#0693e3" cx="15.5" cy="4.5"/><circle r=".353" fill="#0693e3" cx="15.5" cy="5.5"/><circle r=".309" fill="#0693e3" cx="15.5" cy="7.5"/><circle r=".289" fill="#0693e3" cx="15.5" cy="8.5"/><circle r=".27" fill="#0693e3" cx="15.5" cy="9.5"/><circle r=".253" fill="#0693e3" cx="15.5" cy="10.5"/><circle r=".238" fill="#0693e3" cx="15.5" cy="11.5"/><circle r=".225" fill="#0693e3" cx="15.5" cy="12.5"/><circle r=".203" fill="#0693e3" cx="15.5" cy="15.5"/><circle r=".202" fill="#0693e3" cx="15.5" cy="16.5"/><circle fill="#0693e3" cx="15.5" cy="18.5" r=".207"/><circle r=".225" fill="#0693e3" cx="15.5" cy="20.5"/><circle r=".238" fill="#0693e3" cx="15.5" cy="21.5"/><circle r=".253" fill="#0693e3" cx="15.5" cy="22.5"/><circle r=".289" fill="#0693e3" cx="15.5" cy="24.5"/><circle r=".309" fill="#0693e3" cx="15.5" cy="25.5"/><circle r=".375" fill="#0693e3" cx="15.5" cy="28.5"/><circle r=".439" fill="#0693e3" cx="16.5" cy="1.5"/><circle r=".418" fill="#0693e3" cx="16.5" cy="2.5"/><circle r=".396" fill="#0693e3" cx="16.5" cy="3.5"/><circle r=".374" fill="#0693e3" cx="16.5" cy="4.5"/><circle r=".33" fill="#0693e3" cx="16.5" cy="6.5"/><circle r=".308" fill="#0693e3" cx="16.5" cy="7.5"/><circle r=".213" fill="#0693e3" cx="16.5" cy="13.5"/><circle r=".202" fill="#0693e3" cx="16.5" cy="17.5"/><circle r=".206" fill="#0693e3" cx="16.5" cy="18.5"/><circle r=".236" fill="#0693e3" cx="16.5" cy="21.5"/><circle r=".251" fill="#0693e3" cx="16.5" cy="22.5"/><circle r=".269" fill="#0693e3" cx="16.5" cy="23.5"/><circle r=".308" fill="#0693e3" cx="16.5" cy="25.5"/><circle r=".33" fill="#0693e3" cx="16.5" cy="26.5"/><circle r=".352" fill="#0693e3" cx="16.5" cy="27.5"/><circle r=".439" fill="#0693e3" cx="16.5" cy="31.5"/><circle r=".419" fill="#0693e3" cx="17.5" cy="2.5"/><circle r=".375" fill="#0693e3" cx="17.5" cy="4.5"/><circle r=".353" fill="#0693e3" cx="17.5" cy="5.5"/><circle r=".289" fill="#0693e3" cx="17.5" cy="8.5"/><circle r=".253" fill="#0693e3" cx="17.5" cy="10.5"/><circle r=".238" fill="#0693e3" cx="17.5" cy="11.5"/><circle r=".207" fill="#0693e3" cx="17.5" cy="14.5"/><circle r=".203" fill="#0693e3" cx="17.5" cy="15.5"/><circle r=".202" fill="#0693e3" cx="17.5" cy="16.5"/><circle r=".203" fill="#0693e3" cx="17.5" cy="17.5"/><circle r=".215" fill="#0693e3" cx="17.5" cy="19.5"/><circle r=".225" fill="#0693e3" cx="17.5" cy="20.5"/><circle r=".238" fill="#0693e3" cx="17.5" cy="21.5"/><circle r=".309" fill="#0693e3" cx="17.5" cy="25.5"/><circle r=".331" fill="#0693e3" cx="17.5" cy="26.5"/><circle r=".397" fill="#0693e3" cx="17.5" cy="29.5"/><circle r=".419" fill="#0693e3" cx="17.5" cy="30.5"/><circle r=".44" fill="#0693e3" cx="17.5" cy="31.5"/><circle r=".459" fill="#0693e3" cx="17.5" cy="32.5"/><circle r=".461" fill="#0693e3" cx="18.5" cy=".5"/><circle r=".421" fill="#0693e3" cx="18.5" cy="2.5"/><circle r=".4" fill="#0693e3" cx="18.5" cy="3.5"/><circle r=".378" fill="#0693e3" cx="18.5" cy="4.5"/><circle r=".334" fill="#0693e3" cx="18.5" cy="6.5"/><circle r=".293" fill="#0693e3" cx="18.5" cy="8.5"/><circle r=".219" fill="#0693e3" cx="18.5" cy="13.5"/><circle r=".207" fill="#0693e3" cx="18.5" cy="17.5"/><circle r=".219" fill="#0693e3" cx="18.5" cy="19.5"/><circle r=".229" fill="#0693e3" cx="18.5" cy="20.5"/><circle r=".242" fill="#0693e3" cx="18.5" cy="21.5"/><circle r=".257" fill="#0693e3" cx="18.5" cy="22.5"/><circle r=".313" fill="#0693e3" cx="18.5" cy="25.5"/><circle r=".378" fill="#0693e3" cx="18.5" cy="28.5"/><circle r=".421" fill="#0693e3" cx="18.5" cy="30.5"/><circle r=".442" fill="#0693e3" cx="18.5" cy="31.5"/><circle r=".461" fill="#0693e3" cx="18.5" cy="32.5"/><circle r=".445" fill="#0693e3" cx="19.5" cy="1.5"/><circle r=".263" fill="#0693e3" cx="19.5" cy="10.5"/><circle r=".226" fill="#0693e3" cx="19.5" cy="13.5"/><circle r=".219" fill="#0693e3" cx="19.5" cy="14.5"/><circle r=".219" fill="#0693e3" cx="19.5" cy="18.5"/><circle r=".226" fill="#0693e3" cx="19.5" cy="19.5"/><circle r=".236" fill="#0693e3" cx="19.5" cy="20.5"/><circle r=".249" fill="#0693e3" cx="19.5" cy="21.5"/><circle r=".318" fill="#0693e3" cx="19.5" cy="25.5"/><circle r=".339" fill="#0693e3" cx="19.5" cy="26.5"/><circle r=".361" fill="#0693e3" cx="19.5" cy="27.5"/><circle r=".445" fill="#0693e3" cx="19.5" cy="31.5"/><circle r=".467" fill="#0693e3" cx="20.5" cy=".5"/><circle r=".449" fill="#0693e3" cx="20.5" cy="1.5"/><circle r=".389" fill="#0693e3" cx="20.5" cy="4.5"/><circle r=".368" fill="#0693e3" cx="20.5" cy="5.5"/><circle r=".347" fill="#0693e3" cx="20.5" cy="6.5"/><circle r=".307" fill="#0693e3" cx="20.5" cy="8.5"/><circle r=".289" fill="#0693e3" cx="20.5" cy="9.5"/><circle r=".273" fill="#0693e3" cx="20.5" cy="10.5"/><circle r=".225" fill="#0693e3" cx="20.5" cy="17.5"/><circle r=".258" fill="#0693e3" cx="20.5" cy="21.5"/><circle r=".326" fill="#0693e3" cx="20.5" cy="25.5"/><circle r=".368" fill="#0693e3" cx="20.5" cy="27.5"/><circle r=".41" fill="#0693e3" cx="20.5" cy="29.5"/><circle r=".449" fill="#0693e3" cx="20.5" cy="31.5"/><circle r=".467" fill="#0693e3" cx="20.5" cy="32.5"/><circle r=".436" fill="#0693e3" cx="21.5" cy="2.5"/><circle r=".376" fill="#0693e3" cx="21.5" cy="5.5"/><circle r=".317" fill="#0693e3" cx="21.5" cy="8.5"/><circle r=".27" fill="#0693e3" cx="21.5" cy="11.5"/><circle r=".242" fill="#0693e3" cx="21.5" cy="14.5"/><circle r=".238" fill="#0693e3" cx="21.5" cy="15.5"/><circle r=".236" fill="#0693e3" cx="21.5" cy="16.5"/><circle fill="#0693e3" cx="21.5" cy="20.5" r=".258"/><circle r=".27" fill="#0693e3" cx="21.5" cy="21.5"/><circle r=".3" fill="#0693e3" cx="21.5" cy="23.5"/><circle r=".336" fill="#0693e3" cx="21.5" cy="25.5"/><circle r=".455" fill="#0693e3" cx="21.5" cy="31.5"/><circle r=".472" fill="#0693e3" cx="21.5" cy="32.5"/><circle r=".478" fill="#0693e3" cx="22.5" cy=".5"/><circle r=".444" fill="#0693e3" cx="22.5" cy="2.5"/><circle r=".425" fill="#0693e3" cx="22.5" cy="3.5"/><circle r=".367" fill="#0693e3" cx="22.5" cy="6.5"/><circle r=".348" fill="#0693e3" cx="22.5" cy="7.5"/><circle r=".33" fill="#0693e3" cx="22.5" cy="8.5"/><circle r=".284" fill="#0693e3" cx="22.5" cy="11.5"/><circle r=".257" fill="#0693e3" cx="22.5" cy="14.5"/><circle r=".253" fill="#0693e3" cx="22.5" cy="15.5"/><circle r=".251" fill="#0693e3" cx="22.5" cy="16.5"/><circle r=".273" fill="#0693e3" cx="22.5" cy="20.5"/><circle r=".297" fill="#0693e3" cx="22.5" cy="22.5"/><circle r=".367" fill="#0693e3" cx="22.5" cy="26.5"/><circle r=".386" fill="#0693e3" cx="22.5" cy="27.5"/><circle r=".406" fill="#0693e3" cx="22.5" cy="28.5"/><circle r=".478" fill="#0693e3" cx="22.5" cy="32.5"/><circle r=".469" fill="#0693e3" cx="23.5" cy="1.5"/><circle r=".416" fill="#0693e3" cx="23.5" cy="4.5"/><circle r=".343" fill="#0693e3" cx="23.5" cy="8.5"/><circle r=".327" fill="#0693e3" cx="23.5" cy="9.5"/><circle r=".3" fill="#0693e3" cx="23.5" cy="11.5"/><circle r=".289" fill="#0693e3" cx="23.5" cy="12.5"/><circle r=".274" fill="#0693e3" cx="23.5" cy="18.5"/><circle r=".28" fill="#0693e3" cx="23.5" cy="19.5"/><circle r=".3" fill="#0693e3" cx="23.5" cy="21.5"/><circle r=".313" fill="#0693e3" cx="23.5" cy="22.5"/><circle r=".327" fill="#0693e3" cx="23.5" cy="23.5"/><circle r=".361" fill="#0693e3" cx="23.5" cy="25.5"/><circle r=".397" fill="#0693e3" cx="23.5" cy="27.5"/><circle r=".416" fill="#0693e3" cx="23.5" cy="28.5"/><circle r=".484" fill="#0693e3" cx="23.5" cy="32.5"/><circle r=".491" fill="#0693e3" cx="24.5" cy=".5"/><circle r=".461" fill="#0693e3" cx="24.5" cy="2.5"/><circle r=".427" fill="#0693e3" cx="24.5" cy="4.5"/><circle r=".41" fill="#0693e3" cx="24.5" cy="5.5"/><circle r=".392" fill="#0693e3" cx="24.5" cy="6.5"/><circle r=".375" fill="#0693e3" cx="24.5" cy="7.5"/><circle r=".343" fill="#0693e3" cx="24.5" cy="9.5"/><circle r=".299" fill="#0693e3" cx="24.5" cy="13.5"/><circle r=".293" fill="#0693e3" cx="24.5" cy="14.5"/><circle r=".289" fill="#0693e3" cx="24.5" cy="15.5"/><circle r=".288" fill="#0693e3" cx="24.5" cy="16.5"/><circle r=".289" fill="#0693e3" cx="24.5" cy="17.5"/><circle r=".299" fill="#0693e3" cx="24.5" cy="19.5"/><circle r=".317" fill="#0693e3" cx="24.5" cy="21.5"/><circle r=".359" fill="#0693e3" cx="24.5" cy="24.5"/><circle r=".375" fill="#0693e3" cx="24.5" cy="25.5"/><circle r=".392" fill="#0693e3" cx="24.5" cy="26.5"/><circle r=".41" fill="#0693e3" cx="24.5" cy="27.5"/><circle r=".427" fill="#0693e3" cx="24.5" cy="28.5"/><circle r=".444" fill="#0693e3" cx="24.5" cy="29.5"/><circle r=".476" fill="#0693e3" cx="24.5" cy="31.5"/><circle r=".491" fill="#0693e3" cx="24.5" cy="32.5"/><circle r=".375" fill="#0693e3" cx="25.5" cy="8.5"/><circle r=".348" fill="#0693e3" cx="25.5" cy="10.5"/><circle r=".336" fill="#0693e3" cx="25.5" cy="11.5"/><circle r=".318" fill="#0693e3" cx="25.5" cy="13.5"/><circle r=".308" fill="#0693e3" cx="25.5" cy="16.5"/><circle r=".309" fill="#0693e3" cx="25.5" cy="17.5"/><circle r=".318" fill="#0693e3" cx="25.5" cy="19.5"/><circle r=".348" fill="#0693e3" cx="25.5" cy="22.5"/><circle r=".361" fill="#0693e3" cx="25.5" cy="23.5"/><circle r=".375" fill="#0693e3" cx="25.5" cy="24.5"/><circle r=".439" fill="#0693e3" cx="25.5" cy="28.5"/><circle r=".455" fill="#0693e3" cx="25.5" cy="29.5"/><circle r=".497" fill="#0693e3" cx="25.5" cy="32.5"/><circle r=".379" fill="#0693e3" cx="26.5" cy="9.5"/><circle r=".367" fill="#0693e3" cx="26.5" cy="10.5"/><circle r=".356" fill="#0693e3" cx="26.5" cy="11.5"/><circle r=".347" fill="#0693e3" cx="26.5" cy="12.5"/><circle r=".339" fill="#0693e3" cx="26.5" cy="13.5"/><circle r=".334" fill="#0693e3" cx="26.5" cy="14.5"/><circle r=".331" fill="#0693e3" cx="26.5" cy="15.5"/><circle r=".331" fill="#0693e3" cx="26.5" cy="17.5"/><circle r=".356" fill="#0693e3" cx="26.5" cy="21.5"/><circle r=".379" fill="#0693e3" cx="26.5" cy="23.5"/><circle r=".392" fill="#0693e3" cx="26.5" cy="24.5"/><circle r=".421" fill="#0693e3" cx="26.5" cy="26.5"/><circle r=".451" fill="#0693e3" cx="26.5" cy="28.5"/><circle r=".466" fill="#0693e3" cx="26.5" cy="29.5"/><circle r=".48" fill="#0693e3" cx="26.5" cy="30.5"/><circle r=".493" fill="#0693e3" cx="26.5" cy="31.5"/><circle r=".504" fill="#0693e3" cx="26.5" cy="32.5"/><circle r=".41" fill="#0693e3" cx="27.5" cy="8.5"/><circle r=".386" fill="#0693e3" cx="27.5" cy="10.5"/><circle r=".376" fill="#0693e3" cx="27.5" cy="11.5"/><circle r=".368" fill="#0693e3" cx="27.5" cy="12.5"/><circle r=".361" fill="#0693e3" cx="27.5" cy="13.5"/><circle r=".356" fill="#0693e3" cx="27.5" cy="14.5"/><circle r=".352" fill="#0693e3" cx="27.5" cy="16.5"/><circle r=".353" fill="#0693e3" cx="27.5" cy="17.5"/><circle r=".356" fill="#0693e3" cx="27.5" cy="18.5"/><circle r=".361" fill="#0693e3" cx="27.5" cy="19.5"/><circle r=".41" fill="#0693e3" cx="27.5" cy="24.5"/><circle r=".464" fill="#0693e3" cx="27.5" cy="28.5"/><circle r=".511" fill="#0693e3" cx="27.5" cy="32.5"/><circle r=".427" fill="#0693e3" cx="28.5" cy="8.5"/><circle r=".406" fill="#0693e3" cx="28.5" cy="10.5"/><circle r=".396" fill="#0693e3" cx="28.5" cy="11.5"/><circle r=".382" fill="#0693e3" cx="28.5" cy="13.5"/><circle r=".375" fill="#0693e3" cx="28.5" cy="17.5"/><circle r=".378" fill="#0693e3" cx="28.5" cy="18.5"/><circle r=".427" fill="#0693e3" cx="28.5" cy="24.5"/><circle r=".439" fill="#0693e3" cx="28.5" cy="25.5"/><circle r=".451" fill="#0693e3" cx="28.5" cy="26.5"/><circle r=".464" fill="#0693e3" cx="28.5" cy="27.5"/><circle r=".476" fill="#0693e3" cx="28.5" cy="28.5"/><circle r=".488" fill="#0693e3" cx="28.5" cy="29.5"/><circle r=".508" fill="#0693e3" cx="28.5" cy="31.5"/><circle fill="#9900ef" cx="29.5" cy="3.5" r="1.5"/><circle fill="none" cx="29.5" cy="3.5" r="3" stroke="#9900ef"/><circle r=".417" fill="#0693e3" cx="29.5" cy="11.5"/><circle r=".397" fill="#0693e3" cx="29.5" cy="15.5"/><circle r=".396" fill="#0693e3" cx="29.5" cy="16.5"/><circle r=".41" fill="#0693e3" cx="29.5" cy="20.5"/><circle r=".434" fill="#0693e3" cx="29.5" cy="23.5"/><circle r=".488" fill="#0693e3" cx="29.5" cy="28.5"/><circle r=".507" fill="#0693e3" cx="29.5" cy="30.5"/><circle r=".461" fill="#0693e3" cx="30.5" cy="8.5"/><circle r=".425" fill="#0693e3" cx="30.5" cy="13.5"/><circle r=".421" fill="#0693e3" cx="30.5" cy="14.5"/><circle r=".421" fill="#0693e3" cx="30.5" cy="18.5"/><circle r=".425" fill="#0693e3" cx="30.5" cy="19.5"/><circle r=".436" fill="#0693e3" cx="30.5" cy="21.5"/><circle r=".444" fill="#0693e3" cx="30.5" cy="22.5"/><circle r=".452" fill="#0693e3" cx="30.5" cy="23.5"/><circle r=".47" fill="#0693e3" cx="30.5" cy="25.5"/><circle r=".489" fill="#0693e3" cx="30.5" cy="27.5"/><circle r=".498" fill="#0693e3" cx="30.5" cy="28.5"/><circle r=".507" fill="#0693e3" cx="30.5" cy="29.5"/><circle r=".527" fill="#0693e3" cx="30.5" cy="32.5"/><circle r=".469" fill="#0693e3" cx="31.5" cy="9.5"/><circle r=".455" fill="#0693e3" cx="31.5" cy="11.5"/><circle r=".445" fill="#0693e3" cx="31.5" cy="13.5"/><circle r=".44" fill="#0693e3" cx="31.5" cy="15.5"/><circle r=".44" fill="#0693e3" cx="31.5" cy="17.5"/><circle r=".442" fill="#0693e3" cx="31.5" cy="18.5"/><circle r=".445" fill="#0693e3" cx="31.5" cy="19.5"/><circle r=".469" fill="#0693e3" cx="31.5" cy="23.5"/><circle r=".476" fill="#0693e3" cx="31.5" cy="24.5"/><circle r=".484" fill="#0693e3" cx="31.5" cy="25.5"/><circle r=".501" fill="#0693e3" cx="31.5" cy="27.5"/><circle r=".527" fill="#0693e3" cx="31.5" cy="31.5"/><circle r=".478" fill="#0693e3" cx="32.5" cy="10.5"/><circle r=".472" fill="#0693e3" cx="32.5" cy="11.5"/><circle r=".467" fill="#0693e3" cx="32.5" cy="12.5"/><circle r=".461" fill="#0693e3" cx="32.5" cy="14.5"/><circle r=".461" fill="#0693e3" cx="32.5" cy="18.5"/><circle r=".464" fill="#0693e3" cx="32.5" cy="19.5"/><circle r=".491" fill="#0693e3" cx="32.5" cy="24.5"/><circle r=".497" fill="#0693e3" cx="32.5" cy="25.5"/><circle r=".511" fill="#0693e3" cx="32.5" cy="27.5"/><circle r=".517" fill="#0693e3" cx="32.5" cy="28.5"/><circle r=".53" fill="#0693e3" cx="32.5" cy="31.5"/><circle r=".533" fill="#0693e3" cx="32.5" cy="32.5"/></svg>