<?xml version="1.0" encoding="UTF-8"?>
<svg xmlns="http://www.w3.org/2000/svg" viewBox="0 0 1239.57 1245.81">
  <g id="radiation">
    <g id="set1">
      <path d="m393.51,120.52c6.73,17.05,15.73,34.05,22.73,51.05,5,12,11,24,16.64,35.16" fill="none" stroke="#000" stroke-linecap="round" stroke-miterlimit="10" stroke-width="15"/>
      <path d="m367.29,63.1c3.08,5.84,5.57,11.97,8.23,18.01" fill="none" stroke="#000" stroke-linecap="round" stroke-miterlimit="10" stroke-width="15"/>
      <line id="base2" x1="449.56" y1="32.42" x2="494.04" y2="183.92" fill="none" stroke="#000" stroke-linecap="round" stroke-miterlimit="10" stroke-width="15"/>
      <path d="m554.43,148.91c1.08,7.05,2.2,14.1,3.37,21.14" fill="none" stroke="#000" stroke-linecap="round" stroke-miterlimit="10" stroke-width="15"/>
      <path d="m540.79,51.64c2.94,21.02,5.72,42.07,8.66,63.09" fill="none" stroke="#000" stroke-linecap="round" stroke-miterlimit="10" stroke-width="15"/>
      <path d="m623.01,101.59c.23,21.27.2,42.54-.1,63.81" fill="none" stroke="#000" stroke-linecap="round" stroke-miterlimit="10" stroke-width="15"/>
      <path d="m623.13,51.35c-.02,4.64-.06,9.28-.11,13.92" fill="none" stroke="#000" stroke-linecap="round" stroke-miterlimit="10" stroke-width="15"/>
      <path d="m622.9,7.5c.05,3.25.09,6.5.13,9.74" fill="none" stroke="#000" stroke-linecap="round" stroke-miterlimit="10" stroke-width="15"/>
    </g>
    <g id="set2">
      <path d="m158.32,324.29c14.88,10.71,31.64,20.14,46.72,30.66,10.69,7.39,22.23,14.24,33,20.58" fill="none" stroke="#000" stroke-linecap="round" stroke-miterlimit="10" stroke-width="15"/>
      <path d="m105.21,290.16c5.75,3.25,11.16,7.06,16.66,10.7" fill="none" stroke="#000" stroke-linecap="round" stroke-miterlimit="10" stroke-width="15"/>
      <line id="base2-2" data-name="base2" x1="157.84" y1="219.87" x2="277.16" y2="323.28" fill="none" stroke="#000" stroke-linecap="round" stroke-miterlimit="10" stroke-width="15"/>
      <path d="m309.04,261.17c4.72,5.35,9.48,10.67,14.27,15.96" fill="none" stroke="#000" stroke-linecap="round" stroke-miterlimit="10" stroke-width="15"/>
      <path d="m244.97,186.72c13.84,16.09,27.55,32.3,41.4,48.39" fill="none" stroke="#000" stroke-linecap="round" stroke-miterlimit="10" stroke-width="15"/>
      <path d="m341.14,184.29c11.69,17.77,23.16,35.68,34.41,53.73" fill="none" stroke="#000" stroke-linecap="round" stroke-miterlimit="10" stroke-width="15"/>
      <path d="m314.09,141.96c2.49,3.92,4.97,7.84,7.43,11.77" fill="none" stroke="#000" stroke-linecap="round" stroke-miterlimit="10" stroke-width="15"/>
      <path d="m290.19,105.19c1.8,2.71,3.59,5.42,5.37,8.13" fill="none" stroke="#000" stroke-linecap="round" stroke-miterlimit="10" stroke-width="15"/>
    </g>
    <g id="set3">
      <path d="m70.63,622.87c18.3.97,37.51-.16,55.88.54,12.99.44,26.4-.04,38.89-.53" fill="none" stroke="#000" stroke-linecap="round" stroke-miterlimit="10" stroke-width="15"/>
      <path d="m7.5,622.86c6.6-.38,13.2-.09,19.8,0" fill="none" stroke="#000" stroke-linecap="round" stroke-miterlimit="10" stroke-width="15"/>
      <line id="base2-3" data-name="base2" x1="13.77" y1="535.28" x2="170.06" y2="557.77" fill="none" stroke="#000" stroke-linecap="round" stroke-miterlimit="10" stroke-width="15"/>
      <path d="m163.3,488.28c6.87,1.95,13.74,3.86,20.63,5.71" fill="none" stroke="#000" stroke-linecap="round" stroke-miterlimit="10" stroke-width="15"/>
      <path d="m69.15,460.29c20.35,6.06,40.64,12.27,60.99,18.33" fill="none" stroke="#000" stroke-linecap="round" stroke-miterlimit="10" stroke-width="15"/>
      <path d="m148.74,406.25c19.44,8.63,38.78,17.49,58,26.6" fill="none" stroke="#000" stroke-linecap="round" stroke-miterlimit="10" stroke-width="15"/>
      <path d="m103.1,385.27c4.21,1.95,8.42,3.91,12.62,5.88" fill="none" stroke="#000" stroke-linecap="round" stroke-miterlimit="10" stroke-width="15"/>
      <path d="m63.11,367.26c2.97,1.3,5.95,2.62,8.92,3.93" fill="none" stroke="#000" stroke-linecap="round" stroke-miterlimit="10" stroke-width="15"/>
    </g>
    <g id="set4">
      <path d="m158.29,921.48c15.92-9.09,31.47-20.41,47.3-29.76,11.17-6.66,22.19-14.3,32.43-21.47" fill="none" stroke="#000" stroke-linecap="round" stroke-miterlimit="10" stroke-width="15"/>
      <path d="m105.19,955.61c5.35-3.88,11.05-7.22,16.65-10.71" fill="none" stroke="#000" stroke-linecap="round" stroke-miterlimit="10" stroke-width="15"/>
      <line id="base2-4" data-name="base2" x1="63.11" y1="878.54" x2="206.74" y2="812.95" fill="none" stroke="#000" stroke-linecap="round" stroke-miterlimit="10" stroke-width="15"/>
      <path d="m163.48,758.16c6.83-2.08,13.65-4.19,20.45-6.35" fill="none" stroke="#000" stroke-linecap="round" stroke-miterlimit="10" stroke-width="15"/>
      <path d="m69.15,785.51c20.39-5.91,40.83-11.65,61.22-17.55" fill="none" stroke="#000" stroke-linecap="round" stroke-miterlimit="10" stroke-width="15"/>
      <path d="m106.88,697.02c21.02-3.25,42.08-6.25,63.17-8.98" fill="none" stroke="#000" stroke-linecap="round" stroke-miterlimit="10" stroke-width="15"/>
      <path d="m57.14,704.04c4.6-.64,9.2-1.26,13.8-1.87" fill="none" stroke="#000" stroke-linecap="round" stroke-miterlimit="10" stroke-width="15"/>
      <path d="m13.77,710.51c3.21-.51,6.42-1.01,9.63-1.51" fill="none" stroke="#000" stroke-linecap="round" stroke-miterlimit="10" stroke-width="15"/>
    </g>
    <g id="set5">
      <path d="m393.5,1125.28c8.48-16.25,15.43-34.19,23.69-50.61,5.79-11.64,10.93-24.03,15.67-35.6" fill="none" stroke="#000" stroke-linecap="round" stroke-miterlimit="10" stroke-width="15"/>
      <path d="m367.27,1182.7c2.4-6.16,5.4-12.05,8.22-18.01" fill="none" stroke="#000" stroke-linecap="round" stroke-miterlimit="10" stroke-width="15"/>
      <line id="base2-5" data-name="base2" x1="290.21" y1="1140.63" x2="375.57" y2="1007.79" fill="none" stroke="#000" stroke-linecap="round" stroke-miterlimit="10" stroke-width="15"/>
      <path d="m309.55,985.08c4.62-5.44,9.21-10.9,13.77-16.4" fill="none" stroke="#000" stroke-linecap="round" stroke-miterlimit="10" stroke-width="15"/>
      <path d="m244.99,1059.1c13.96-15.99,28.05-31.87,42-47.87" fill="none" stroke="#000" stroke-linecap="round" stroke-miterlimit="10" stroke-width="15"/>
      <path d="m228.89,964.26c15.93-14.1,32.02-28.01,48.29-41.71" fill="none" stroke="#000" stroke-linecap="round" stroke-miterlimit="10" stroke-width="15"/>
      <path d="m190.84,997.06c3.52-3.02,7.05-6.03,10.59-9.03" fill="none" stroke="#000" stroke-linecap="round" stroke-miterlimit="10" stroke-width="15"/>
      <path d="m157.85,1025.95c2.42-2.16,4.85-4.32,7.28-6.48" fill="none" stroke="#000" stroke-linecap="round" stroke-miterlimit="10" stroke-width="15"/>
    </g>
    <g id="set6">
      <path d="m701.54,1169.56c-1.65-18.26-5.5-37.1-7.43-55.39-1.42-12.92-3.8-26.13-6.06-38.42" fill="none" stroke="#000" stroke-linecap="round" stroke-miterlimit="10" stroke-width="15"/>
      <path d="m710.53,1232.04c-1.31-6.47-1.97-13.05-2.83-19.6" fill="none" stroke="#000" stroke-linecap="round" stroke-miterlimit="10" stroke-width="15"/>
      <line id="base2-6" data-name="base2" x1="622.95" y1="1238.31" x2="622.94" y2="1080.41" fill="none" stroke="#000" stroke-linecap="round" stroke-miterlimit="10" stroke-width="15"/>
      <path d="m555.13,1097c.95-7.07,1.86-14.15,2.72-21.24" fill="none" stroke="#000" stroke-linecap="round" stroke-miterlimit="10" stroke-width="15"/>
      <path d="m540.83,1194.18c3.1-21,6.36-41.98,9.46-62.98" fill="none" stroke="#000" stroke-linecap="round" stroke-miterlimit="10" stroke-width="15"/>
      <path d="m476.01,1123.1c5.77-20.47,11.79-40.87,18.07-61.2" fill="none" stroke="#000" stroke-linecap="round" stroke-miterlimit="10" stroke-width="15"/>
      <path d="m461.74,1171.26c1.33-4.45,2.67-8.89,4.03-13.33" fill="none" stroke="#000" stroke-linecap="round" stroke-miterlimit="10" stroke-width="15"/>
      <path d="m449.61,1213.41c.87-3.13,1.74-6.26,2.62-9.39" fill="none" stroke="#000" stroke-linecap="round" stroke-miterlimit="10" stroke-width="15"/>
    </g>
    <g id="set7">
      <path d="m984.62,1040.24c-11.26-14.46-24.69-28.24-36.2-42.57-8.18-10.1-17.32-19.93-25.87-29.04" fill="none" stroke="#000" stroke-linecap="round" stroke-miterlimit="10" stroke-width="15"/>
      <path d="m1025.97,1087.95c-4.6-4.74-8.72-9.91-12.97-14.96" fill="none" stroke="#000" stroke-linecap="round" stroke-miterlimit="10" stroke-width="15"/>
      <line id="base2-7" data-name="base2" x1="955.68" y1="1140.57" x2="870.3" y2="1007.75" fill="none" stroke="#000" stroke-linecap="round" stroke-miterlimit="10" stroke-width="15"/>
      <path d="m822.22,1058.37c-3.03-6.46-6.09-12.91-9.2-19.33" fill="none" stroke="#000" stroke-linecap="round" stroke-miterlimit="10" stroke-width="15"/>
      <path d="m862.74,1147.85c-8.75-19.34-17.35-38.75-26.1-58.09" fill="none" stroke="#000" stroke-linecap="round" stroke-miterlimit="10" stroke-width="15"/>
      <path d="m769.77,1123.11c-6.21-20.34-12.18-40.76-17.89-61.25" fill="none" stroke="#000" stroke-linecap="round" stroke-miterlimit="10" stroke-width="15"/>
      <path d="m783.81,1171.34c-1.29-4.46-2.56-8.92-3.82-13.39" fill="none" stroke="#000" stroke-linecap="round" stroke-miterlimit="10" stroke-width="15"/>
      <path d="m796.4,1213.35c-.96-3.1-1.92-6.21-2.87-9.31" fill="none" stroke="#000" stroke-linecap="round" stroke-miterlimit="10" stroke-width="15"/>
    </g>
    <g id="set8">
      <path d="m1152.84,778.41c-17.29-6.08-36.04-10.41-53.47-16.24-12.34-4.08-25.34-7.4-37.47-10.44" fill="none" stroke="#000" stroke-linecap="round" stroke-miterlimit="10" stroke-width="15"/>
      <path d="m1213.41,796.18c-6.43-1.5-12.69-3.62-19-5.57" fill="none" stroke="#000" stroke-linecap="round" stroke-miterlimit="10" stroke-width="15"/>
      <line id="base2-8" data-name="base2" x1="1182.74" y1="878.46" x2="1039.1" y2="812.89" fill="none" stroke="#000" stroke-linecap="round" stroke-miterlimit="10" stroke-width="15"/>
      <path d="m1026.03,881.47c-6.04-3.8-12.1-7.57-18.19-11.29" fill="none" stroke="#000" stroke-linecap="round" stroke-miterlimit="10" stroke-width="15"/>
      <path d="m1108.49,934.83c-17.82-11.54-35.54-23.22-53.36-34.76" fill="none" stroke="#000" stroke-linecap="round" stroke-miterlimit="10" stroke-width="15"/>
      <path d="m1016.9,964.28c-16.22-13.75-32.28-27.7-48.17-41.85" fill="none" stroke="#000" stroke-linecap="round" stroke-miterlimit="10" stroke-width="15"/>
      <path d="m1054.79,997.26c-3.49-3.06-6.98-6.12-10.45-9.2" fill="none" stroke="#000" stroke-linecap="round" stroke-miterlimit="10" stroke-width="15"/>
      <path d="m1088.09,1025.8c-2.49-2.09-4.97-4.18-7.45-6.28" fill="none" stroke="#000" stroke-linecap="round" stroke-miterlimit="10" stroke-width="15"/>
    </g>
    <g id="set9">
      <path d="m1152.78,467.19c-17.83,4.24-35.94,10.73-53.76,15.24-12.59,3.24-25.32,7.48-37.16,11.48" fill="none" stroke="#000" stroke-linecap="round" stroke-miterlimit="10" stroke-width="15"/>
      <path d="m1213.34,449.39c-6.22,2.22-12.64,3.81-18.99,5.59" fill="none" stroke="#000" stroke-linecap="round" stroke-miterlimit="10" stroke-width="15"/>
      <line id="base2-9" data-name="base2" x1="1232.03" y1="535.19" x2="1075.74" y2="557.69" fill="none" stroke="#000" stroke-linecap="round" stroke-miterlimit="10" stroke-width="15"/>
      <path d="m1101.82,622.45c-7.14.07-14.27.18-21.41.34" fill="none" stroke="#000" stroke-linecap="round" stroke-miterlimit="10" stroke-width="15"/>
      <path d="m1200.04,622.76c-21.23-.07-42.45-.31-63.68-.39" fill="none" stroke="#000" stroke-linecap="round" stroke-miterlimit="10" stroke-width="15"/>
      <path d="m1138.92,697.05c-21.09-2.8-42.14-5.85-63.15-9.16" fill="none" stroke="#000" stroke-linecap="round" stroke-miterlimit="10" stroke-width="15"/>
      <path d="m1188.63,704.31c-4.59-.68-9.18-1.38-13.76-2.09" fill="none" stroke="#000" stroke-linecap="round" stroke-miterlimit="10" stroke-width="15"/>
      <path d="m1232.07,710.31c-3.22-.41-6.44-.83-9.66-1.26" fill="none" stroke="#000" stroke-linecap="round" stroke-miterlimit="10" stroke-width="15"/>
    </g>
    <g id="set10">
      <path d="m984.46,205.42c-12.71,13.21-24.43,28.46-36.98,41.89-8.84,9.54-17.25,19.98-25.06,29.75" fill="none" stroke="#000" stroke-linecap="round" stroke-miterlimit="10" stroke-width="15"/>
      <path d="m1025.78,157.7c-4.03,5.23-8.57,10.04-12.96,14.97" fill="none" stroke="#000" stroke-linecap="round" stroke-miterlimit="10" stroke-width="15"/>
      <line id="base2-10" data-name="base2" x1="1087.89" y1="219.78" x2="968.59" y2="323.21" fill="none" stroke="#000" stroke-linecap="round" stroke-miterlimit="10" stroke-width="15"/>
      <path d="m1025.54,363.58c-5.97,3.92-11.91,7.87-17.83,11.86" fill="none" stroke="#000" stroke-linecap="round" stroke-miterlimit="10" stroke-width="15"/>
      <path d="m1108.33,310.74c-17.9,11.42-35.88,22.69-53.78,34.11" fill="none" stroke="#000" stroke-linecap="round" stroke-miterlimit="10" stroke-width="15"/>
      <path d="m1097.08,406.28c-19.25,9.05-38.61,17.86-58.08,26.43" fill="none" stroke="#000" stroke-linecap="round" stroke-miterlimit="10" stroke-width="15"/>
      <path d="m1142.82,385.51c-4.23,1.91-8.47,3.8-12.71,5.69" fill="none" stroke="#000" stroke-linecap="round" stroke-miterlimit="10" stroke-width="15"/>
      <path d="m1182.61,367.07c-2.93,1.39-5.87,2.78-8.81,4.17" fill="none" stroke="#000" stroke-linecap="round" stroke-miterlimit="10" stroke-width="15"/>
    </g>
    <g id="set11">
      <path d="m701.33,76.22c-3.55,17.98-5.17,37.15-8.46,55.24-2.28,12.8-3.71,26.14-5,38.57" fill="none" stroke="#000" stroke-linecap="round" stroke-miterlimit="10" stroke-width="15"/>
      <path d="m710.29,13.74c-.56,6.58-1.78,13.08-2.81,19.6" fill="none" stroke="#000" stroke-linecap="round" stroke-miterlimit="10" stroke-width="15"/>
      <line id="base2-11" data-name="base2" x1="796.1" y1="32.37" x2="751.66" y2="183.89" fill="none" stroke="#000" stroke-linecap="round" stroke-miterlimit="10" stroke-width="15"/>
      <path d="m821.4,187.06c-2.9,6.52-5.77,13.06-8.59,19.61" fill="none" stroke="#000" stroke-linecap="round" stroke-miterlimit="10" stroke-width="15"/>
      <path d="m862.47,97.84c-8.88,19.28-17.92,38.49-26.8,57.77" fill="none" stroke="#000" stroke-linecap="round" stroke-miterlimit="10" stroke-width="15"/>
      <path d="m904.67,184.29c-11.3,18.02-22.82,35.9-34.56,53.64" fill="none" stroke="#000" stroke-linecap="round" stroke-miterlimit="10" stroke-width="15"/>
      <path d="m931.92,142.09c-2.53,3.89-5.06,7.78-7.62,11.65" fill="none" stroke="#000" stroke-linecap="round" stroke-miterlimit="10" stroke-width="15"/>
      <path d="m955.42,105.07c-1.71,2.76-3.43,5.52-5.16,8.27" fill="none" stroke="#000" stroke-linecap="round" stroke-miterlimit="10" stroke-width="15"/>
    </g>
  </g>
  <g id="circular_words">
    <g>
      <path d="m261.27,878.48c5.84-4.11,11.67-8.22,17.51-12.34,7.59-5.57,12.94-10.34,16.11-14.26,1.19.11,2.13.63,2.81,1.56,1.11,1.5,1.86,3.06,2.25,4.68.4,1.62.46,3.15.18,4.58-.59,2.98-2.02,5.38-4.32,7.19-2.31,1.81-4.9,2.81-7.81,2.96-2.91.15-5.89-.68-8.91-2.51-4.87,3.9-9.73,7.8-14.59,11.71-1.33,1-2.55.75-3.66-.75-.41-.55-.54-1.08-.39-1.6.14-.51.42-.92.83-1.22Zm20.01-10.04c4.7,1.53,8.6,1.02,11.7-1.37,0,0,.02-.01.02-.02,1.78-1.37,2.81-2.61,3.11-3.7.13-.54.23-.96.3-1.28.07-.32.07-.86,0-1.62-.07-.91-.23-2.27-.45-4.07-1.69,1.26-4.15,3.26-7.35,6.03-3.2,2.76-5.65,4.78-7.34,6.04Z"/>
      <path d="m303.78,881.02c-3.63,3.14-7.27,6.29-10.9,9.44-.62.11-1.24.43-1.87.96-.31.26-.61.51-.92.77-2.51,1.96-5.02,3.93-7.53,5.89-2.11,1.76-2.58,3.36-1.39,4.77.75.85,1.51,1.7,2.27,2.54,1.91,2.23,2.43,3.71,1.55,4.49-.32.28-.76.33-1.31.13-.55-.2-1.05-.52-1.52-.97-.96-1.83-2.38-3.85-4.24-6.08-.85-.44-1.54-.98-2.07-1.62-.52-.63-.77-1.26-.75-1.88.03-.62.23-1.08.61-1.39,2.3-1.88,5.86-4.58,10.69-8.1,4.83-3.53,8.38-6.24,10.67-8.13.11-.09.23-.19.34-.28,1.74-1.82,3.09-3.13,4.06-3.92,2.93-2.4,4.94-2.93,6.05-1.59.33.4.5.83.52,1.32.02.48-.13.85-.44,1.12-1.28.85-2.55,1.69-3.83,2.54Z"/>
      <path d="m311.28,921.24c-.68,1.07-1.35,2.13-2.03,3.2-.35.34-1.02,1.36-2,3.06-.99,1.7-1.68,2.76-2.1,3.17-.01.01-.03.03-.04.04-.62.62-1.34.7-2.15.24-.8-.81-1.32-1.54-1.57-2.18-.25-.65-.09-1.24.47-1.79,1.22-1.19,2.71-3.2,4.49-6.02-1.61-2.09-3.2-4.19-4.77-6.31-1.31.55-2.63,1.26-3.96,2.15-1.34.89-2.35,1.49-3.04,1.81-1.41.66-2.56.51-3.44-.45-.43-.47-.72-1.01-.86-1.62-.14-.61-.04-1.07.31-1.39.17-.07.35-.14.52-.21,10.16-4.29,19.34-9.31,27.65-14.88.23-.15.87-.65,1.9-1.49,2.3-1.83,3.97-2.78,5.01-2.84.57.61,1.14,1.21,1.72,1.81.47.49.78,1,.95,1.54.17.54.07.99-.29,1.34-2.18,2.13-5.08,5.64-8.64,10.58-3.56,4.94-6.25,8.36-8.13,10.21Zm-3.74-2.12c.31-.52.99-1.29,2.04-2.3,1.05-1.01,2.27-2.35,3.67-4,1.4-1.66,2.99-3.62,4.78-5.9,1.79-2.27,3.1-3.91,3.93-4.9-8.84,5.31-15.06,9.04-18.54,11.35.29.97,1.65,2.9,4.12,5.75Z"/>
      <path d="m312.7,936.27c.7.88,1.39,1.75,2.1,2.62.74.7,1.61,1.07,2.61,1.1,1,.03,1.97-.2,2.92-.68,1.81-.93,3.21-1.94,4.22-3.02,1-1.08,1.76-2.37,2.28-3.86.52-1.49.87-3,1.06-4.54.18-1.53.4-3.08.64-4.63.55-3.69,1.88-6.57,3.91-8.68,1.25-1.29,2.62-2.18,4.12-2.66,2.79-.89,5-.56,6.67,1,.62.59,1.07,1.31,1.33,2.16.26.86.22,1.48-.14,1.87-.62.68-1.37.61-2.25-.21-.39-.36-.68-.8-.89-1.31-1.18-1.02-2.91-.72-5.22.91-.5.36-1.04.83-1.59,1.42-.56.59-1.09,1.47-1.59,2.64-.5,1.17-.82,2.33-.96,3.47-.14,1.14-.31,2.39-.5,3.75-.19,1.36-.38,2.66-.58,3.92-.47,2.89-1.76,5.49-3.89,7.81-1.61,1.81-3.7,3.04-6.3,3.65-1.27.31-2.64.27-4.09-.14-1.45-.41-2.82-1.21-4.09-2.39-.03.04-.07.07-.1.11-1.43-1.69-1.76-3.09-1.01-4.18.45-.04.91-.07,1.36-.11Z"/>
      <path d="m350.25,971.09c1.56-2.03,3.12-4.06,4.68-6.09,1.08-1.42,2.51-3.61,4.3-6.57,1.79-2.96,3.06-4.91,3.78-5.86.72-.95,1.63-2.05,2.71-3.3,1.08-1.25,1.87-2.21,2.37-2.86-.49.29-2.82,1.99-7.04,5.05-10.93,7.89-17.25,11.11-18.58,10.04-.8-.64-1.27-1.33-1.42-2.06-.15-.73.02-1.4.52-2,1.2-1.47,2.91-5.11,5.21-10.89,2.31-5.77,4.03-10.25,5.09-13.48-9.84,10.15-16.42,17.07-19.64,20.85-.36.48-.71.96-1.07,1.44-.42.49-.88.75-1.37.77-.5.02-1.04-.22-1.63-.73-.59-.51-.98-1.04-1.17-1.58-.19-.54-.15-.96.11-1.25,2.68-3.08,7.01-7.42,12.94-13.06,5.93-5.64,10.2-10.04,12.87-13.13.03-.47.19-.88.49-1.22.3-.35.75-.41,1.35-.21.6.21,1.16.54,1.68.98.8.68-.27,5.06-2.97,13.27-2.69,8.22-4.6,13.82-5.95,16.7.54-.32,1.84-1.17,3.87-2.58,2.03-1.41,4.15-2.88,6.35-4.4,2.21-1.54,4.48-3.06,6.81-4.56,5.32-3.48,8.5-4.83,9.61-3.98.5.38.89.86,1.16,1.43.27.57.26,1.06-.05,1.47-1.73,2.31-4.21,5.86-7.39,10.65-3.19,4.79-5.55,8.23-7.11,10.32-1.31,1.65-2.63,3.31-3.94,4.96,0,0-.01.02-.02.02-.27.36-1,1.59-2.19,3.71-.19.34-.39.69-.58,1.03-.07.48-.25.92-.54,1.3-.29.38-.79.65-1.51.8-.72.15-1.4-.02-2.04-.51-1.32-1-1.22-2.5.3-4.49Z"/>
      <path d="m382.49,979.76c-.45,1.18-.89,2.36-1.34,3.54-.27.41-.72,1.54-1.34,3.4-.62,1.86-1.09,3.03-1.41,3.53-.01.02-.02.03-.03.05-.48.74-1.15.98-2.01.72-.92-.6-1.55-1.18-1.91-1.75-.36-.57-.32-1.17.11-1.83.94-1.42,1.99-3.69,3.16-6.8-1.93-1.64-3.85-3.3-5.75-4.98-1.15.82-2.27,1.81-3.39,2.97-1.11,1.16-1.97,1.96-2.57,2.43-1.22.96-2.35,1.07-3.37.35-.5-.35-.88-.81-1.13-1.36-.25-.55-.24-1.02.03-1.4.15-.11.31-.21.46-.32,8.91-6.43,16.74-13.35,23.64-20.58.19-.2.71-.82,1.54-1.86,1.85-2.28,3.27-3.57,4.26-3.87.66.45,1.32.9,1.98,1.35.54.36.94.78,1.2,1.27.26.48.26.93-.03,1.36-1.69,2.54-3.8,6.57-6.27,12.13-2.47,5.56-4.41,9.46-5.85,11.66Zm-3.98-1.19c.2-.57.71-1.46,1.52-2.67.81-1.21,1.73-2.77,2.76-4.68,1.03-1.91,2.18-4.16,3.46-6.75,1.28-2.59,2.23-4.46,2.83-5.6-7.45,7.11-12.71,12.1-15.6,15.12.46.86,2.12,2.41,5.03,4.59Z"/>
      <path d="m403.48,1003.55c-.12.08-.23.16-.35.24-.03.25-.13.55-.32.88-.19.33-.56.52-1.13.56-.57.04-1.2-.14-1.88-.52-1.29-.74-1.3-2.22-.02-4.44,1.9-3.3,5.27-9.68,10.14-19.1,4.88-9.42,7.29-14.5,7.19-15.29,1.07-1.78,3.04-1.9,5.94-.41.44.23,1.03.55,1.78.97.74.41,1.26.86,1.55,1.33.29.47.24,1.08-.17,1.82-.41.74-1.18.79-2.32.16-.49-.29-.98-.59-1.47-.89-1.13-.64-1.81-.77-2.03-.37-.92,1.61-2.12,4.06-3.58,7.36-1.47,3.29-2.6,5.7-3.43,7.21.29.12.69.25,1.2.41,1.21.37,2.08.69,2.6.98.52.29.86.69,1.02,1.21.16.52.13.99-.1,1.4-.63,1.15-2.73.76-6.28-1.24-1.07,1.89-2.47,4.84-4.18,8.85-1.71,4.02-3.1,6.98-4.17,8.89Z"/>
      <path d="m441.8,996.27c-.12.32-.25.64-.37.96-7.53,16.08-14.33,22.75-20.31,19.78-2.3-1.12-3.63-2.71-3.97-4.73-.37-2.08-.28-3.92.25-5.51.81-2.46,1.96-5.18,3.44-8.14,1.48-2.96,3.67-7.22,6.57-12.76,1.23-2.59,2.47-5.17,3.71-7.76.78-.54,1.41-.68,1.91-.43.5.26.77.81.82,1.66.05.85-.11,1.64-.48,2.37-2.49,4.84-4.97,9.69-7.46,14.53-.65,1.27-1.47,3.24-2.43,5.9-.97,2.67-1.77,4.64-2.42,5.91-1.33,2.61-.56,4.66,2.35,6.1,3.29,1.62,9.6-7.3,18.9-26.7.49-1.01.97-2.03,1.46-3.04.13-.3.27-.61.4-.91.2-.42.47-.69.8-.79.33-.1.77-.02,1.34.25.56.27.95.55,1.17.84.2.27.3.57.29.91-.04.52-.22,1.15-.54,1.88-1,1.75-2,3.51-3.01,5.26-.81,1.47-1.61,2.93-2.42,4.4Z"/>
      <path d="m440.82,1022.47c.91.56,1.81,1.12,2.72,1.67.89.39,1.8.41,2.72.08.92-.33,1.74-.89,2.44-1.67,1.36-1.5,2.32-2.94,2.9-4.3.57-1.36.86-2.82.87-4.39,0-1.57-.14-3.09-.45-4.57-.31-1.48-.6-2.99-.86-4.51-.65-3.61-.34-6.75.85-9.42.73-1.64,1.71-2.95,2.92-3.93,2.26-1.82,4.38-2.31,6.38-1.45.75.32,1.38.83,1.89,1.53.51.7.66,1.29.46,1.78-.35.85-1.06,1.05-2.11.61-.46-.2-.87-.49-1.22-.9-1.39-.53-2.88.37-4.47,2.71-.35.51-.68,1.14-1.01,1.88-.32.74-.53,1.74-.62,3.01-.09,1.26-.02,2.45.21,3.55.23,1.11.47,2.32.72,3.65.25,1.33.48,2.6.69,3.83.47,2.84.12,5.71-1.1,8.61-.9,2.25-2.43,4.13-4.6,5.62-1.06.74-2.32,1.19-3.77,1.33-1.45.14-2.94-.11-4.47-.75-.02.04-.04.09-.06.13-1.83-1.05-2.57-2.23-2.22-3.5.4-.2.8-.39,1.2-.59Z"/>
      <path d="m473.78,1016.95c-1.36,4.03-2.71,8.06-4.06,12.09-.21.56-.41,1.12-.62,1.68-.2.52-.41,1.04-.61,1.56.31.11.63.23.94.34.69.23,1.38.46,2.07.68,1.95.69,2.76,1.5,2.43,2.44-.17.48-.55.81-1.15.98-.6.17-1.22.15-1.85-.08-1.05-.37-2.1-.75-3.15-1.13-2.17-.79-3.54-1.34-4.12-1.64-.39-.1-.68-.19-.89-.27-1.7-.64-2.38-1.39-2.06-2.23.13-.35.4-.62.8-.83.4-.2.74-.26,1.02-.18.67.25,1.34.51,2.01.76.14-.23.28-.46.42-.69,1.34-4.04,2.68-8.07,4.03-12.11,1.7-4.12,3.4-8.24,5.09-12.37.81-2.14,1.46-4.19,1.96-6.15-.42-.16-.83-.31-1.25-.47-.51-.17-1.02-.35-1.53-.52-.64-.25-1.1-.54-1.38-.89-.28-.35-.31-.82-.08-1.4.34-.86,1.57-.86,3.71-.05,2.58.98,5.18,1.94,7.78,2.87,1.77.63,2.52,1.33,2.24,2.13-.12.35-.43.61-.92.76-.49.16-.98.15-1.48-.02-1.13-.4-2.25-.81-3.38-1.22-.4,1.6-.95,3.38-1.66,5.32-1.44,3.54-2.87,7.09-4.32,10.63Z"/>
      <path d="m486.27,1023c.26-.72.53-1.43.79-2.15.06-.19.06-.29,0-.31.11-.34.23-.69.34-1.03,1.98-5.97,3.8-10.08,5.43-12.35,1.37-1.92,2.45-3.03,3.24-3.33.79-.3,1.48-.36,2.08-.17,5.11,1.61,7.98,4.87,8.67,9.95.4,2.92.08,6.28-1,10.07-.04.14-.08.28-.12.42-.57,2.19-1.15,4.39-1.72,6.58-3.11,11.07-7.94,15.73-14.46,13.75-2.69-.82-4.37-2.64-5.02-5.41-.62-2.66-.71-5.12-.3-7.37.59-3.41,1.28-6.29,2.07-8.67Zm6.61-6.49c-.68,1.72-1.35,3.45-2.03,5.17-1.78,5.52-2.78,10.52-2.97,14.99.43,2.78,1.13,4.55,2.09,5.31.87.27,1.75.23,2.63-.12.88-.35,1.66-.94,2.36-1.76.69-.82,1.33-1.72,1.92-2.69.56-.96,1.08-2,1.57-3.14.83-1.98,1.46-3.69,1.88-5.13.42-1.44.92-3.7,1.49-6.77.57-3.07,1.08-5.33,1.51-6.79.1-.34.2-.67.3-1.01.37-1.42.2-2.83-.5-4.23-.7-1.4-1.84-2.34-3.42-2.83-1.52-.47-2.76-.05-3.73,1.26-.81,1.1-1.5,2.55-2.08,4.35-.34,1.13-.68,2.27-1.02,3.4Z"/>
      <path d="m514.66,1025.13c1.08-3.58,2.15-7.15,3.22-10.73.47-1.8,1.66-3.01,3.57-3.66-.03.12-.06.25-.09.37.2-.05.38-.06.53-.02,1.05.26,1.96,2.15,2.8,5.68.84,3.52,1.48,7.32,1.94,11.39.45,4.07.93,8.18,1.43,12.31.5,4.14.88,6.58,1.07,7.32,2.73-7.99,5.28-17.82,7.74-29.49.08-.53.15-1.07.23-1.6.25-1.17.93-1.63,2.06-1.4.64.13,1.07.46,1.3.98.23.52.28,1.09.16,1.7-.3,1.48-.6,2.97-.9,4.45-.97,4.61-2.46,10.72-4.48,18.33-2.02,7.61-3.55,11.83-4.55,12.67-1.42.05-2.39.01-2.91-.1-.52-.11-.89-.33-1.11-.67-.22-.34-.35-.81-.39-1.42-.04-.61-.1-1.02-.18-1.24.03-.08.06-.17.09-.25.33-1.45-.46-6.44-2.07-14.97-1.6-8.53-2.64-14.42-3.39-17.68-2.45,9.77-4.91,19.54-7.36,29.31.03.09.09.24.19.47.21.49.26.92.17,1.28-.09.36-.4.67-.93.92-.53.25-1.1.3-1.7.15-1.61-.41-2.1-1.8-1.48-4.16,1.68-6.65,3.37-13.3,5.05-19.94Z"/>
      <path d="m561.39,1058.25c.64-3.82,1.28-7.63,1.92-11.45.16-1.16.16-2.91.01-5.25-.15-2.34-.12-4.2.07-5.58.19-1.38.14-3.11-.14-5.17-.28-2.06-.64-3.93-1.09-5.61-1.18-4.41-1.5-8.09-1.06-11.02.04-.29.27-.51.69-.65.41-.15.83-.19,1.25-.13.42.06.79.58,1.14,1.55.34.98.61,2.2.81,3.67.2,1.47.38,2.93.53,4.39.15,1.46.29,2.87.4,4.24.11,1.37.22,2.25.3,2.66.14-.34.36-1.15.66-2.44.3-1.29.62-2.61.96-3.97.36-1.37.77-2.74,1.22-4.1,1.02-3.12,2.11-4.6,3.31-4.46,1.2.15,1.77.43,1.72.86-.27,2.23-1.2,5.5-2.85,9.78-1.65,4.29-2.65,7.56-2.94,9.85-.16.68-.31,1.36-.47,2.04-.04.3-.08.6-.12.9-.54,5.28-1.08,10.55-1.62,15.83-.04,1-.08,2-.12,3-.06.45-.11.89-.17,1.34-.07.52-.37.91-.91,1.17-.54.26-1.11.35-1.69.27-.59-.08-1.05-.28-1.39-.61-.34-.33-.48-.7-.43-1.11Z"/>
      <path d="m578.36,1042.51c.1-.76.2-1.51.3-2.27.02-.19,0-.3-.08-.3.04-.36.07-.72.11-1.08.64-6.26,1.52-10.66,2.61-13.23.92-2.17,1.72-3.48,2.42-3.95.7-.47,1.36-.67,1.98-.62,5.3.46,8.79,3.03,10.55,7.84,1.02,2.76,1.43,6.11,1.2,10.05,0,.15-.02.29-.03.44-.08,2.26-.17,4.53-.25,6.79-.63,11.48-4.32,17.07-11.06,16.55-2.78-.22-4.8-1.63-6.04-4.19-1.17-2.46-1.78-4.84-1.87-7.13-.16-3.45-.11-6.42.14-8.91Zm5.01-7.76c-.28,1.83-.57,3.66-.86,5.48-.53,5.78-.44,10.87.35,15.27,1.01,2.62,2.08,4.2,3.16,4.73.91.07,1.75-.16,2.52-.69.78-.53,1.41-1.27,1.91-2.23.5-.95.92-1.97,1.29-3.04.34-1.05.62-2.19.85-3.41.38-2.11.62-3.91.72-5.41.1-1.5.09-3.81-.01-6.93-.1-3.12-.1-5.44,0-6.96.02-.35.05-.7.07-1.05.05-1.46-.41-2.8-1.39-4.02-.98-1.22-2.28-1.89-3.93-2.02-1.57-.13-2.69.55-3.34,2.04-.55,1.25-.91,2.81-1.08,4.7-.09,1.18-.17,2.36-.25,3.54Z"/>
      <path d="m623.66,1036.28c.02.34.05.68.07,1.03.12,17.75-3.09,26.67-9.64,26.57-2.51-.02-4.36-.89-5.51-2.56-1.2-1.72-1.9-3.41-2.1-5.08-.32-2.57-.45-5.51-.39-8.82.06-3.31.21-8.09.44-14.33,0-2.86,0-5.73.01-8.59.46-.82.96-1.23,1.51-1.21.55.02,1.02.4,1.43,1.14.4.75.6,1.53.57,2.35-.16,5.44-.31,10.87-.47,16.31-.04,1.43.07,3.55.34,6.37.27,2.82.39,4.94.35,6.37-.08,2.93,1.47,4.44,4.65,4.49,3.6.05,5.42-10.7,5.47-32.2,0-1.12,0-2.25.01-3.37-.01-.33-.02-.66-.03-1,0-.47.13-.82.37-1.05.25-.23.68-.35,1.29-.35.61,0,1.08.09,1.39.26.29.16.51.39.64.7.18.49.29,1.13.31,1.93-.15,2.01-.29,4.03-.44,6.04-.09,1.67-.19,3.34-.29,5.01Z"/>
      <path d="m640.73,1061.67c-.11-1.53-.23-3.06-.34-4.59,0-.02,0-.7.02-2.05-.21-.5-.8-4.99-1.71-13.48-.91-8.49-1.39-13.68-1.51-15.57-.09,0-.18,0-.27,0-3.75.07-5.64-.49-5.66-1.62,0-.37.23-.68.72-.94.49-.26.97-.39,1.44-.4,3.12.1,6.24.16,9.37.19.37-.03.74-.06,1.11-.09,1.43-.08,2.18.36,2.24,1.31.03.49-.18.9-.64,1.23-.46.33-.98.51-1.57.54-1.07-.08-2.14-.17-3.2-.25-.04.21-.07.41-.11.62.17,3.79.81,9.44,1.97,16.95,1.16,7.51,1.88,13.17,2.07,16.97.02.47-.22.9-.75,1.28-.52.39-1.1.6-1.74.62-.48-.24-.96-.49-1.43-.73Z"/>
      <path d="m657.87,1025.35c.34,4.98.69,9.96,1.03,14.94.88.12,2.2.1,3.95-.06.86-.08,1.73-.17,2.59-.25.1-.19.09-.83-.02-1.94-.11-1.11-.52-3.53-1.21-7.25-.69-3.73-1.13-6.55-1.32-8.45-.05-.45.12-.84.49-1.18.37-.34.73-.53,1.09-.57.36-.04.65-.04.88,0,.23.03.48.09.76.15.28.07.5.11.66.14.57,5.16,1.62,12.69,3.19,22.57,1.57,9.88,2.4,14.98,2.44,15.31.04.33-.19.68-.68,1.06-.49.38-1.06.6-1.71.67-.65.07-1.21-.26-1.68-.97-.47-.72-.85-1.81-1.13-3.29-.29-1.47-.51-2.75-.67-3.83-.07-.46-.13-1-.16-1.6-.08-.82-.17-1.75-.25-2.8-.14-1.85-.23-2.92-.26-3.21,0-.08-.02-.16-.02-.23-.02-.58-.05-1.15-.07-1.73-.16-.17-.32-.34-.48-.51,0-.02,0-.04,0-.06-.39.12-.82.2-1.29.25-1.57-.03-3.14-.08-4.7-.13.2,2.29.4,4.57.6,6.86.43,3.27.86,6.53,1.3,9.8.05.56-.09,1.08-.42,1.55-.33.47-.84.73-1.52.79-1.01.08-1.76-.59-2.25-2.01-.49-1.42-.83-3.39-1.03-5.9-.16-3.04-.33-6.09-.49-9.13-.15-1.89-.26-2.93-.35-3.12,0-.1-.02-.19-.02-.29.02-2.1.03-3.27,0-3.53-.52-4.49-1.03-8.97-1.53-13.46-.04-.47.12-.9.47-1.29.35-.39.8-.61,1.33-.65,1.45-.12,2.28,1,2.49,3.38Z"/>
      <path d="m693.77,1056.59c-.17-1.06.3-1.68,1.41-1.86.56-.09,1.31-.06,2.27.08.96.14,1.77.16,2.44.04.67-.12,1.33-.58,1.98-1.39.65-.81,1.1-1.76,1.34-2.84.51-2.2.6-4.12.29-5.76-.31-1.64-1-3.34-2.05-5.09-1.05-1.75-2.23-3.36-3.52-4.84-1.29-1.48-2.59-2.95-3.88-4.44-3.06-3.54-4.8-6.96-5.32-10.22-.53-3.08.19-5.68,2.12-7.81,1.02-1.13,2.32-1.83,3.91-2.12.81-.15,1.62-.09,2.46.16.84.25,1.47.66,1.9,1.23-.3.5-.6.99-.9,1.49-1.12.21-2.03.18-2.74-.09-.82.23-1.48.7-1.99,1.43-.92,1.33-1.24,2.83-.95,4.49.29,1.66.82,3.24,1.59,4.74.77,1.49,1.65,2.8,2.62,3.91.98,1.12,2.04,2.32,3.18,3.62,1.17,1.29,2.26,2.54,3.29,3.74,2.38,2.77,3.96,5.94,4.68,9.54.53,2.52.22,5.12-.96,7.77-.55,1.26-1.44,2.38-2.67,3.35-1.22.97-2.68,1.61-4.36,1.9-1.8.31-3.26.34-4.37.08-1.11-.25-1.7-.63-1.77-1.11Z"/>
      <path d="m729.36,1022.53c.11.32.22.65.33.97,4.57,17.16,3.67,26.6-2.73,28.13-2.45.6-4.46.23-6-1.11-1.6-1.36-2.7-2.83-3.32-4.4-.96-2.41-1.82-5.23-2.59-8.45-.77-3.22-1.83-7.89-3.17-13.99-.72-2.77-1.43-5.55-2.14-8.32.24-.91.63-1.43,1.17-1.54.54-.12,1.1.13,1.68.75.58.62.96,1.33,1.15,2.13,1.21,5.3,2.42,10.61,3.63,15.91.32,1.39.95,3.42,1.92,6.08.97,2.67,1.62,4.69,1.94,6.08.65,2.85,2.54,3.94,5.65,3.19,3.51-.84,2.59-11.72-2.75-32.55-.28-1.09-.55-2.18-.83-3.27-.09-.32-.19-.64-.28-.96-.12-.45-.08-.83.1-1.11.18-.29.57-.51,1.17-.66.6-.15,1.07-.19,1.42-.1.32.08.59.25.8.52.3.43.56,1.02.79,1.79.36,1.99.72,3.97,1.08,5.96.33,1.64.65,3.28.98,4.92Z"/>
      <path d="m772.48,1036.62c-.85-2.42-1.7-4.83-2.54-7.25-.6-1.68-1.65-4.07-3.14-7.19-1.49-3.12-2.43-5.25-2.83-6.37-.4-1.12-.83-2.48-1.29-4.07-.46-1.59-.83-2.77-1.11-3.54-.02.57.16,3.44.47,8.62.77,13.42.13,20.44-1.43,20.94-.94.3-1.74.32-2.41.04-.67-.28-1.12-.79-1.36-1.54-.57-1.81-2.67-5.24-6.17-10.34-3.5-5.1-6.26-9-8.34-11.66,3.2,13.77,5.45,23.05,6.87,27.8.21.56.41,1.12.62,1.68.18.62.16,1.14-.08,1.57-.24.43-.71.74-1.43.95-.71.21-1.34.24-1.87.1-.53-.14-.85-.4-.96-.78-1.13-3.93-2.43-9.91-3.98-17.95-1.55-8.03-2.92-14-4.07-17.92-.37-.28-.61-.64-.74-1.08-.13-.44.05-.85.52-1.23.48-.38,1.03-.67,1.66-.85.96-.28,3.96,3.02,9.25,9.8,5.3,6.77,8.88,11.45,10.53,14.16.02-.62,0-2.17-.11-4.64-.1-2.47-.2-5.03-.3-7.7-.11-2.68-.17-5.41-.19-8.17-.08-6.33.46-9.71,1.75-10.17.58-.2,1.17-.26,1.78-.17.61.09,1.01.37,1.18.85.99,2.72,2.61,6.72,4.87,12.02,2.26,5.29,3.85,9.15,4.74,11.59.67,2,1.34,4,2.01,6.01,0,0,0,.02.01.03.15.42.78,1.71,1.89,3.87.18.35.36.7.54,1.05.36.33.62.71.79,1.16.17.45.12,1.01-.14,1.69-.26.68-.75,1.15-1.48,1.41-1.51.54-2.68-.37-3.52-2.73Z"/>
      <path d="m811.71,1020.59c-1.07-2.33-2.15-4.65-3.22-6.97-.75-1.61-2.03-3.9-3.81-6.86-1.78-2.97-2.92-4.99-3.42-6.07-.5-1.08-1.06-2.39-1.67-3.93-.61-1.54-1.09-2.68-1.44-3.42.03.57.48,3.41,1.27,8.55,2.01,13.3,2.02,20.36.51,21.02-.91.39-1.71.48-2.41.27-.7-.21-1.2-.68-1.5-1.4-.74-1.75-3.15-4.96-7.14-9.7-3.98-4.75-7.1-8.36-9.43-10.82,4.48,13.41,7.59,22.44,9.45,27.04.26.54.52,1.08.77,1.62.24.6.26,1.12.07,1.57-.2.45-.64.81-1.34,1.09-.7.28-1.32.37-1.86.28-.55-.09-.89-.32-1.03-.68-1.49-3.8-3.35-9.64-5.64-17.5-2.29-7.85-4.22-13.67-5.73-17.47-.39-.24-.67-.58-.84-1.01-.17-.43-.03-.85.41-1.28.44-.43.97-.76,1.58-1.01.93-.38,4.25,2.63,10.17,8.87,5.93,6.23,9.95,10.55,11.85,13.09-.03-.62-.21-2.16-.54-4.61-.33-2.45-.67-5-1.02-7.64-.36-2.66-.67-5.37-.95-8.12-.66-6.31-.43-9.73.81-10.31.56-.26,1.15-.38,1.77-.34.62.03,1.04.27,1.26.73,1.24,2.61,3.23,6.45,5.99,11.5,2.75,5.05,4.7,8.75,5.82,11.09.86,1.93,1.71,3.86,2.57,5.79,0,0,0,.02.01.03.19.41.94,1.63,2.25,3.67.21.33.43.66.64.99.39.29.69.65.9,1.08.21.43.21,1,.02,1.7-.19.7-.65,1.22-1.35,1.55-1.46.69-2.72-.11-3.78-2.37Z"/>
      <path d="m811.68,987.59c-.88-1.45-1.76-2.9-2.64-4.35-1.28-2.53-1.04-4.23.71-5.13,1.12-.58,2.76-1.15,4.92-1.73,2.16-.58,3.43-.55,3.8.14.39.72.08,1.6-.94,2.64-2.24.49-4,.98-5.29,1.5.46.73.89,1.48,1.28,2.24,1.23,2.6,2.46,5.2,3.69,7.8.02.04.23.28.62.73.76-.43,1.51-.85,2.27-1.28,2.08-1.1,3.38-1.18,3.9-.21.2.38.19.81-.03,1.3-.23.49-.63.89-1.22,1.2-.58.31-1.23.61-1.95.89-.55.29-1.1.58-1.66.86.83,1.29,1.59,2.6,2.29,3.93,1.58,3.27,3.15,6.54,4.72,9.81,1.04,2,1.6,2.97,1.69,2.92,1.65-.91,3.3-1.83,4.94-2.77,1.72-.92,2.81-.96,3.28-.1.29.53.2,1.08-.27,1.64-.47.56-1.08,1.05-1.84,1.45-1.92,1.03-3.85,2.04-5.78,3.03-.6.31-1.23.43-1.89.36-.66-.07-1.11-.33-1.36-.77-.24-.47-.48-.94-.72-1.41-1.68-2.94-3.35-5.88-5.02-8.83-2.49-5.29-4.99-10.58-7.49-15.86Z"/>
      <path d="m837.14,985.37c1.07,1.89,2.14,3.78,3.2,5.67,2.66,4.58,5.17,7.95,7.55,10.09.02.61.04,1.22.06,1.83-.62.36-1.25.72-1.87,1.08-.44-.08-.88-.17-1.32-.25-.85-1.59-1.83-3.35-2.94-5.29-1.11-1.94-3.68-5.98-7.68-12.14-4-6.16-6.88-10.82-8.66-13.96-.94-1.65-.72-2.86.63-3.64,2.13-1.23,4.19-1.81,6.2-1.73,2.01.08,3.55.97,4.6,2.71.73,1.2,1.46,2.41,2.19,3.61.6.99.92,2.02.96,3.1.04,1.08.03,2.25-.03,3.5-.06,1.25-.1,1.95-.1,2.09.73.71,2.11,2.11,4.16,4.21,4.45,4.6,8.2,7.58,11.2,8.95.86.39,1.41.77,1.64,1.15.23.37.29.77.18,1.2-.11.42-.39.78-.85,1.05-.93.57-2.33.29-4.17-.85-1.84-1.14-3.62-2.57-5.33-4.28-5.21-5.25-8.12-8.13-8.82-8.56-.26.15-.52.3-.78.45Zm-8.63-15.43c.07.29.14.57.22.86.82,1.42,2.05,3.45,3.69,6.08,1.64,2.63,2.81,4.56,3.52,5.77.75-1,.9-2.57.46-4.7-.45-2.13-.95-3.67-1.51-4.61-.56-.94-1-1.62-1.32-2.03-.33-.41-.75-.82-1.26-1.24-1.06-.87-2.32-.91-3.78-.13Z"/>
      <path d="m874.33,984.86c-.6-.89-.43-1.66.53-2.32.48-.33,1.2-.64,2.15-.94.95-.3,1.72-.65,2.29-1.05.57-.4.99-1.12,1.26-2.15.27-1.03.29-2.09.06-3.18-.45-2.23-1.17-4.02-2.15-5.37-.98-1.36-2.33-2.59-4.05-3.71-1.72-1.12-3.49-2.07-5.31-2.83-1.82-.77-3.65-1.54-5.48-2.31-4.34-1.86-7.39-4.2-9.24-6.94-1.78-2.57-2.2-5.25-1.3-8.05.48-1.48,1.4-2.7,2.76-3.67.69-.49,1.48-.81,2.36-.96.89-.15,1.65-.06,2.29.27-.07.59-.15,1.17-.22,1.76-.96.69-1.82,1.08-2.59,1.15-.67.57-1.09,1.3-1.25,2.19-.3,1.62.03,3.13,1,4.52.97,1.39,2.12,2.59,3.47,3.6,1.35,1.01,2.71,1.81,4.09,2.39,1.38.58,2.87,1.2,4.48,1.88,1.63.66,3.18,1.3,4.63,1.93,3.38,1.45,6.18,3.63,8.37,6.59,1.55,2.06,2.35,4.56,2.36,7.51.01,1.4-.35,2.81-1.09,4.25-.74,1.43-1.83,2.66-3.27,3.68-1.55,1.09-2.9,1.76-4.03,2.02-1.14.26-1.84.18-2.12-.22Z"/>
      <path d="m886.24,959.17c-.72-.92-1.45-1.85-2.17-2.77-.29-.38-.58-.76-.87-1.14-3.59-4.69-5.8-8.16-6.64-10.43-1.06-2.79-1.34-5.07-.83-6.87.67-2.47,2.21-4.67,4.63-6.65.58-.48,1.11-.72,1.57-.73.47,0,.83.15,1.09.46.26.32.38.69.36,1.13-.02.44-.2.81-.54,1.11-.88.72-1.76,1.44-2.64,2.16-.77.63-1.12,1.58-1.04,2.86.1,1.27.49,2.61,1.17,4.01,1.3,2.66,2.54,4.73,3.73,6.21.06.08.12.15.18.23,2.3,3.11,4.59,6.21,6.88,9.32,1.51,1.92,2.68,3.15,3.53,3.68.85.53,1.59.9,2.24,1.12.65.22,1.29.32,1.92.29,1.45-.06,2.9-.67,4.34-1.84.48-.39.8-.88.98-1.48.48-.39.97-.66,1.48-.8.51-.15.91-.05,1.2.3,1.01,1.22.39,2.77-1.88,4.62-.92.75-1.98,1.43-3.16,2.04-1.18.61-2.12.98-2.82,1.14-3.82.82-8.05-1.87-12.71-7.97Z"/>
      <path d="m894.29,924.49c3.22,3.81,6.44,7.63,9.66,11.45.82-.46,1.92-1.31,3.31-2.55.68-.61,1.36-1.23,2.04-1.85-.03-.21-.41-.73-1.16-1.56-.75-.83-2.52-2.52-5.3-5.11-2.78-2.58-4.81-4.59-6.09-6.01-.3-.33-.4-.76-.28-1.27.11-.51.31-.9.59-1.15.28-.26.53-.44.74-.56.21-.12.46-.24.74-.36.28-.12.49-.23.64-.31,3.52,3.82,8.84,9.25,15.98,16.26,7.15,7,10.85,10.61,11.07,10.85.23.24.24.67.05,1.29-.19.62-.54,1.16-1.05,1.63-.51.47-1.17.56-1.99.28-.82-.28-1.78-.93-2.89-1.94-1.11-1.01-2.05-1.91-2.82-2.68-.33-.33-.69-.73-1.08-1.2-.55-.61-1.17-1.31-1.86-2.11-1.21-1.41-1.91-2.22-2.11-2.44-.05-.06-.1-.12-.16-.17-.36-.45-.72-.91-1.08-1.36-.24-.04-.47-.07-.71-.11-.01-.01-.03-.03-.04-.04-.26.34-.58.68-.95,1.02-1.35.97-2.7,1.93-4.05,2.87,1.51,1.73,3.03,3.45,4.54,5.18,2.29,2.37,4.57,4.75,6.87,7.12.38.43.56.93.56,1.52,0,.59-.28,1.12-.82,1.6-.8.7-1.83.63-3.08-.21-1.25-.84-2.7-2.22-4.34-4.13-1.93-2.36-3.86-4.72-5.79-7.08-1.24-1.44-1.95-2.2-2.13-2.3-.06-.07-.13-.15-.19-.22-1.21-1.71-1.9-2.67-2.07-2.86-3.08-3.31-6.15-6.62-9.22-9.93-.31-.36-.42-.8-.36-1.34.07-.54.32-.99.74-1.37,1.16-1.01,2.52-.63,4.1,1.16Z"/>
      <path d="m921.3,923.7c-.51-.57-1.02-1.13-1.54-1.7-.14-.14-.23-.18-.28-.13-.25-.26-.5-.52-.75-.78-4.37-4.52-7.16-8.06-8.37-10.59-1.03-2.13-1.49-3.63-1.37-4.5.12-.87.42-1.53.9-2.01,4.03-4.03,8.42-5.26,13.34-3.64,2.83.93,5.69,2.73,8.57,5.43.11.1.21.2.32.3,1.69,1.52,3.37,3.03,5.06,4.55,8.4,7.85,10.14,14.48,5.07,19.67-2.09,2.14-4.58,2.88-7.4,2.25-2.7-.62-4.96-1.65-6.78-3.04-2.77-2.08-5.02-4.02-6.76-5.82Zm-2.51-9.05c1.21,1.4,2.42,2.8,3.63,4.2,4.08,4.13,8.06,7.31,11.99,9.49,2.71.85,4.67.99,5.83.44.68-.69,1.09-1.53,1.22-2.51.13-.98,0-1.97-.39-2.99-.39-1.02-.87-2.02-1.45-3-.58-.95-1.26-1.91-2.04-2.87-1.36-1.66-2.58-3.01-3.67-4.05-1.09-1.04-2.87-2.51-5.34-4.42-2.47-1.91-4.26-3.39-5.35-4.45-.25-.24-.51-.49-.76-.73-1.09-.98-2.45-1.45-4.06-1.42-1.61.03-3.03.67-4.27,1.93-1.19,1.2-1.44,2.54-.75,4.03.58,1.24,1.54,2.54,2.87,3.89.85.82,1.7,1.65,2.55,2.47Z"/>
      <path d="m941.69,902.45c-.55-.53-1.1-1.06-1.65-1.59-.15-.13-.24-.17-.29-.11-.27-.24-.54-.48-.81-.73-4.67-4.21-7.69-7.55-9.06-10-1.17-2.07-1.72-3.54-1.65-4.42.07-.88.33-1.58.78-2.09,3.8-4.37,8.15-5.95,13.19-4.7,2.9.71,5.89,2.3,8.94,4.8.11.09.23.19.34.28,1.79,1.39,3.57,2.79,5.36,4.18,8.92,7.25,11.07,13.79,6.28,19.4-1.98,2.31-4.43,3.25-7.31,2.83-2.76-.42-5.08-1.27-7-2.53-2.91-1.87-5.29-3.66-7.14-5.33Zm-3.07-8.9c1.3,1.32,2.6,2.63,3.9,3.95,4.35,3.84,8.55,6.73,12.63,8.62,2.78.64,4.75.63,5.89,0,.64-.75,1-1.63,1.07-2.62.07-.99-.12-1.98-.58-2.98-.46-.99-1-1.96-1.64-2.91-.64-.91-1.38-1.83-2.22-2.73-1.47-1.57-2.78-2.83-3.93-3.79-1.16-.96-3.04-2.3-5.64-4.03-2.6-1.73-4.48-3.09-5.65-4.06-.27-.23-.54-.45-.81-.68-1.16-.9-2.55-1.27-4.17-1.12-1.62.15-3.01.91-4.18,2.27-1.12,1.3-1.29,2.67-.51,4.12.66,1.2,1.7,2.43,3.12,3.69.9.76,1.81,1.53,2.71,2.29Z"/>
      <path d="m952.05,865.89c3.87,2.85,7.74,5.7,11.61,8.55.25.58.69,1.12,1.35,1.62.32.24.64.49.95.73,2.47,2.01,4.93,4.03,7.4,6.05,2.19,1.67,3.85,1.77,4.98.27.67-.94,1.34-1.88,2-2.83,1.78-2.4,3.13-3.28,4.08-2.59.35.25.48.67.41,1.26-.08.59-.29,1.17-.63,1.73-1.6,1.38-3.27,3.25-5.06,5.59-.25.94-.63,1.74-1.13,2.4-.51.66-1.06,1.05-1.67,1.16-.61.11-1.1.02-1.49-.28-2.34-1.83-5.75-4.71-10.25-8.65-4.5-3.93-7.93-6.8-10.27-8.62-.12-.09-.23-.18-.35-.27-2.16-1.29-3.73-2.32-4.72-3.09-2.99-2.33-3.94-4.19-2.87-5.58.32-.41.71-.68,1.17-.81.47-.13.86-.07,1.19.18,1.11,1.06,2.21,2.12,3.32,3.19Z"/>
    </g>
  </g>
  <g id="PFYSS">
    <g id="PFY">
      <g>
        <path d="m465.28,343.48c.67,3.33,1.08,6.18,1.25,8.5.17,2.33-.08,5.34-.75,9-.67,3.67-1.17,7.09-1.5,10.25-.33,3.17-1.24,6.11-2.5,8.75-1.71,3.58-3.42,7.09-5.25,10.25-1.83,3.17-3.59,6.42-5.25,9.75-5,3.67-9.67,7.59-14,11.75-4.34,4.17-11.89,6.31-16.5,8.75-2.7,1.43-7.09,4.42-12.25,5.25-5.17.83-9.42,2.59-12.75,5.25-3.67.34-6.75,1-9.25,2s-5.97,1.54-8.75,2.5c-1.22.42-2.34,1.59-3,2.75-.67,1.17-1.98,1.62-3.5,1.75-1.85.15-3.59-.09-4.75-1.25s-2.59-2.08-4.25-2.75c-.67,1.67-.92,3.43-.75,5.25.17,1.83.25,3.59.25,5.25,0,1.34-.17,2.68-.5,4-.33,1.33-.5,2.67-.5,4,0,1.67.17,3.43.5,5.25.33,1.83.5,3.75.5,5.75,0,.67-.08,1.43-.25,2.25-.17.83-.25,1.59-.25,2.25,0,1.67.25,3.25.75,4.75s.75,3.09.75,4.75v3.5c0,1.34-.17,2.67-.5,4-.67,5.67-.92,10.75-.75,15.25.17,4.5.91,10.25,2.25,17.25.33,2,.42,3.93.25,5.75-.17,1.83.19,4.16.75,6.75.76,3.52.92,8.09.75,13.25-.17,5.17-.25,10.09-.25,14.75,0,2.34.17,4.59.5,6.75.33,2.17.5,4.42.5,6.75,0,1-.08,2.09-.25,3.25-.17,1.17-.34,2.52-.25,3.75.15,2.19,1.09,4.59,2.25,6.75,1.17,2.16.58,4.25-1.75,6.25-1.34,0-2.5-.33-3.5-1-1-.66-2.17-1.16-3.5-1.5,0-2.33-.42-4.42-1.25-6.25-.83-1.83-1.25-3.75-1.25-5.75,0-1,.17-2,.5-3,.33-1,.5-2,.5-3s-.17-2.08-.5-3.25c-.33-1.16-.5-2.25-.5-3.25-.34-2-.33-4.25,0-6.75.33-2.5.5-5.08.5-7.75,0-1-.17-1.92-.5-2.75-.33-.83-.5-1.75-.5-2.75-.67-5.66-1.08-11.42-1.25-17.25-.17-5.82-.52-11.66-1.25-17.25-.3-2.3-.75-4.42-1.25-6.25-.5-1.83-.75-3.75-.75-5.75.66-3.33,1.33-6,2-8-1-5-1.33-10.33-1-16,.33-5.66.55-11.59,0-17-.23-2.24-.67-4.75-1-7.25-.33-2.5-.5-5.08-.5-7.75,0-.66.25-1.08.75-1.25.5-.17.75-.41.75-.75-.34-1.66-.75-3.08-1.25-4.25-.5-1.16-.75-2.58-.75-4.25s.33-3.16,1-4.5c.66-1.33,1-2.66,1-4,2,.34,4.08.33,6.25,0,2.16-.33,4.56-.43,6.75,0,1.27.25,2.5.67,3.5,1,1,.33,2,.5,3,.5,3.33.34,7.17-.08,11.5-1.25,4.32-1.17,8.33-2.58,12-4.25,3.66-1.67,7.42-3,11.25-4,3.83-1,7.37-2.3,10.25-4,2.64-1.56,5.33-3.25,8-4.75,2.66-1.5,5.33-3.08,8-4.75,7-4.66,12.75-10.83,17.25-18.5,4.5-7.66,7.39-15.36,8.75-23,.65-3.65.92-7.08.75-10.25-.17-3.16-.59-6.08-1.25-8.75-.34-1-.42-2-.25-3,.17-1,.08-2-.25-3-.67-2.33-1.75-4.42-3.25-6.25-1.5-1.83-2.59-4.08-3.25-6.75-4.67-2-9.34-4.42-14-7.25-4.66-2.83-9.34-5.41-14-7.75-1.67-.66-3.25-1.5-4.75-2.5s-3.13-1.64-4.75-2c-2.63-.59-5.43-.83-8.25-.5-2.83.33-5.59.5-8.25.5-2.4-.6-3.6-.9-6-1.5-5.34-.33-10.68-.33-16,0-5.33.33-10.34,0-15-1-5.67,1.34-11.09,2.25-16.25,2.75-5.17.5-10.42,1.25-15.75,2.25.66,3.34,1,6.59,1,9.75s.34,6.4.5,9.25c.12,2.2.08,4.59.25,6.75.17,2.17.2,4.44-.25,6.25-.47,1.88-1.25,4-1.75,6s.08,4.17,1.75,6.5c-1.67,3.67-2.17,8-1.5,13,.67,5,.16,9-1.5,12-1.45,12.74-2.5,25.34-2.75,38-.24,12.35.12,25.12.25,37.5.03,2.64.25,5.42.75,8.25.5,2.84.99,5.65,1.25,8.25.87,8.75.83,17.84.5,26.5-.33,8.67-.17,17.5.5,26.5v11.5c0,.67-.17,1.17-.5,1.5s-.5.84-.5,1.5c-.34,2.67-.25,5.42.25,8.25.5,2.84.75,5.75.75,8.75,0,6.34.08,13.59.25,21.75.17,8.17,1.58,14.92,4.25,20.25l-3.5,3.5c-.34.34-.5.34-.5,0l-1,.5c-2.34.67-4.42,1.67-6.25,3-1.84,1.33-3.59,3.02-5.25,4.5-1.51,1.35-3.25,2.5-4.75,3.5s-3.25.17-5.25-2.5c2-3.66,4.58-6.58,7.75-8.75,3.16-2.16,6.58-4.25,10.25-6.25-.34-1.66-.67-3.25-1-4.75-.33-1.5-.67-3.25-1-5.25-2.67.34-4.67,1.17-6,2.5s-3,2.34-5,3l-.5-.5v1c-1.34,0-2,.34-2,1,.66,0,1-.08,1-.25s.33-.25,1-.25l1,.5-.5-1c1.66-.66,3.5-.83,5.5-.5,2,.33,3.16,1.5,3.5,3.5-.67,1-1.34,1.84-2,2.5s-1.84,1-3.5,1c-1.67,1.67-3.5,3.08-5.5,4.25-2,1.17-3.84,2.59-5.5,4.25-.34,2-.33,4.43,0,7.25.33,2.83.83,5.25,1.5,7.25,1.66.34,2.83-.25,3.5-1.75.67-1.5,1.5-2.91,2.5-4.25,5-4.33,10.33-7.5,16-9.5-.34-1.33-.17-2.33.5-3h1l.5-.5c3.33,1.34,7.25,1.92,11.75,1.75,4.5-.17,9-.33,13.5-.5,4.5-.17,8.67.08,12.5.75,3.82.67,6.91,2.34,9.25,5-1,4.34-2.75,7.75-5.25,10.25s-4.75,5.25-6.75,8.25c-.67,2.34-1.5,4.42-2.5,6.25-1,1.83-2,3.75-3,5.75-1.67,0-3.09.34-4.25,1-1.17.67-2.76.85-4.25,1-1.53.15-2.5-.08-2.5-1.25s-.47-2.53-1-2.75c-4.92-2.05-17.17.75-25.5,2.25-8.34,1.5-16,1.25-23-.75-.67-1.33-1.17-2.42-1.5-3.25-.33-.83-.5-2.08-.5-3.75,1-.66,1.92-.75,2.75-.25.83.5,1.91.59,3.25.25-.67-3.33-1.42-6.33-2.25-9-.83-2.66-2.42-4.83-4.75-6.5.66-5.66.42-11-.75-16-1.17-5-2.09-10.49-2.25-16-.13-4.53.17-9.17.5-13.5.33-4.32.84-8.99,1-13.5.2-5.46-.17-11.08-.5-16.25-.33-5.16-.67-10.76-.5-16.25.16-5.17.08-10.5-.75-15.5-.83-5-1.25-10.21-1.75-15-.47-4.5-.75-9.16-.25-13.5.5-4.33.75-8.83.75-13.5,0-2.66-.33-5.42-1-8.25-.67-2.82-1-5.58-1-8.25v-27c.33-4.66.67-9.08,1-13.25.33-4.16-.34-8.25-2-12.25.66-3,1.08-7,1.25-12,.17-5-.09-9.33-.75-13-.34-.66-.67-1.34-1-2-.33-.66-.87-1.44-1-2-.17-.75.33-1.91,1-2.75.66-.83,1-1.75,1-2.75.66-2.66.75-5.17.25-7.5-.5-2.33-.75-4.66-.75-7,0-2.66.25-5.41.75-8.25.5-2.83.58-6.08.25-9.75,1-.66,2-.75,3-.25s1.96.41,2.5-.25c.68-.84.58-1.84-.25-2.5-.83-.66-.75-1.5.25-2.5,3.33-3.33,6.66-6.58,10-9.75,3.33-3.16,6.33-6.58,9-10.25,3-.33,5.25-.75,6.75-1.25s3.08-1.58,4.75-3.25c7.66-1.33,15.33-2.75,23-4.25,7.66-1.5,16.51-2.95,23-1.75.89.17,1.92.58,2.75.75.82.17,1.84.57,2.75.75,4.03.79,9.75.25,15.25-.25s10.79-.36,15.75.25c5.93.73,11.17,2,15.5,4,4.33,2,8.66,4.34,13,7,2.66,1.67,5.92,3.17,9.75,4.5,3.83,1.33,6.75,3,8.75,5,.33.67,1.09,1.92,2.25,3.75,1.17,1.83,2.34,3.84,3.5,6,1.17,2.16,2.17,4.25,3,6.25.83,2,1.42,3.5,1.75,4.5.33,1,.5,2.25.5,3.75s.17,3.09.5,4.75Zm-166,88.5c-.67,1-1.42,2-2.25,3-.83,1-.92,2.34-.25,4,4.66-1.66,8.08-4.16,10.25-7.5,2.16-3.33,5.58-5.66,10.25-7-.67-1.33-.75-2.58-.25-3.75.5-1.16.25-2.08-.75-2.75-1.67.67-3,1.59-4,2.75-1,1.17-2.34,2.42-4,3.75-1.67,1.34-3.17,2.5-4.5,3.5-1.33,1-2.84,2.34-4.5,4Zm.5-85.5c-.67,0-1.5.5-2.5,1.5s-1,1.84,0,2.5c3.66-3.66,7.16-7.58,10.5-11.75,3.33-4.16,6.16-8.91,8.5-14.25,0-.66-.17-1-.5-1,0,1.34-.42,2.17-1.25,2.5-.83.33-1.97.93-2.25,1.5-.8,1.63-1.42,4.5-3.25,5.5-1.83,1-2.75,2.84-2.75,5.5-1.67,1-2.92,2.17-3.75,3.5-.83,1.34-1.75,2.84-2.75,4.5Zm11,62c1-1,2.08-1.75,3.25-2.25,1.16-.5,2.08-1.41,2.75-2.75-1.34,0-3.09.67-5.25,2-2.17,1.33-3.25,2.67-3.25,4l-.5,1,1,.5c-1,2.67-2.67,4.42-5,5.25-2.33.83-4.5,2.09-6.5,3.75.66,0,.67.75,0,2.25-.67,1.5-.67,2.25,0,2.25,1.33-1.66,3-3.42,5-5.25,2-1.83,4-3.58,6-5.25.66-.66,1.75-1.42,3.25-2.25,1.5-.83,1.58-1.41.25-1.75v-1l-1-.5Zm-13.5,68.5c0,.67-.08,1.59-.25,2.75-.17,1.17.08,1.92.75,2.25,0-1,.33-1.75,1-2.25.66-.5,1.33-1.25,2-2.25l.5.5.5-1c2.66-1.66,5.33-3.5,8-5.5,2.66-2,5.83-2.66,9.5-2-.34-1.66-.5-2.91-.5-3.75s-.17-1.75-.5-2.75c-1.67,1.34-3.34,2.33-5,3-1.67.67-4.06,1.73-5,3-.8,1.08-1.92,2.92-3.75,3.75-1.83.83-2.92,2.25-3.25,4.25l-1-.5-.5,1c-.67.34-1.08.33-1.25,0-.16-.33-.59-.5-1.25-.5Zm20.5-23c-.67-5.66-.67-10.33,0-14-5,2-9.17,5.34-12.5,10-.67,0-1.42.25-2.25.75-.83.5-.92.92-.25,1.25,1.66-1.66,4.08-3.25,7.25-4.75,3.16-1.5,5.25-.25,6.25,3.75-1,2.67-2.84,4.42-5.5,5.25-2.67.83-4.84,2.09-6.5,3.75-1,1-1.67,2.09-2,3.25-.33,1.17-1.34,1.92-3,2.25-.34,0-.5-.25-.5-.75s-.34-.58-1-.25c0,1.34-.17,2.42-.5,3.25-.33.83,0,1.59,1,2.25,3-3,6.17-5.75,9.5-8.25,3.33-2.5,6.66-5.08,10-7.75Zm-20.5,33.5c0,2.67.33,4.17,1,4.5.66-.66.92-1.5.75-2.5-.17-1-.75-1.66-1.75-2Zm21-109.5c0-.66.25-1.33.75-2,.5-.66.25-1.33-.75-2-.67,1.34-1.42,2.34-2.25,3-.84.67-1.75,1.34-2.75,2-3,2.34-5.67,4.59-8,6.75-2.34,2.17-4.84,4.59-7.5,7.25,3.66-2,7.08-4.33,10.25-7,3.16-2.66,6.58-5.33,10.25-8Zm-19,126.5c.42,1.14.42,2.59.25,3.75-.17,1.17.25,1.75,1.25,1.75.33-.66.67-1.25,1-1.75.33-.5.5-1.08.5-1.75-1,0-1.5-.16-1.5-.5,1-4.66,3.58-8.5,7.75-11.5,4.16-3,8.08-6,11.75-9-7.34,3.34-13.5,7.84-18.5,13.5-1,0-1.58-.33-1.75-1-.17-.66-1.31-.62-1.75,0-.51.72-.33,2.59,0,3.75.33,1.17.77,2.13,1,2.75Zm.5-124c6.33-4.33,11.83-9.66,16.5-16-3,2.67-6.34,4.83-10,6.5-3.67,1.67-5.84,4.84-6.5,9.5Zm5.5,150c-.67,1.34-1.59,2.17-2.75,2.5-1.17.33-2.09,1.17-2.75,2.5,1-.33,1.33,0,1,1-.33,1-.17,1.34.5,1,.66-1,1.5-2.25,2.5-3.75s1.5-2.58,1.5-3.25Zm15.5,44c-.34-.66-.33-1.5,0-2.5.33-1,0-1.33-1-1-4.67,1-8.17,3.09-10.5,6.25-2.33,3.17-5.5,5.59-9.5,7.25.66,0,1,.5,1,1.5,3-2.33,6.08-4.5,9.25-6.5,3.16-2,6.75-3.66,10.75-5Zm-1.5-69c-2.67.67-5.09,2.09-7.25,4.25s-4.42,4.09-6.75,5.75c-.34.34-1.17.84-2.5,1.5-2.67,2.34-3.17,4.84-1.5,7.5.66-1,2-2.16,4-3.5.66-.66,1.67-1.17,3-1.5,1.32-.33,2.54-.82,3.5-1.5,1.32-.94,2.66-2.33,4-4,1.33-1.66,2.83-2.5,4.5-2.5-.67-.33-.83-1.33-.5-3,.33-1.66.16-2.66-.5-3Zm-18.5,63.5c0,.67-.08,1.68-.25,3-.17,1.33.08,2.17.75,2.5,2-2.66,4.5-5,7.5-7s6.83-3.16,11.5-3.5v-6.5c-3.34.67-6.17,1.75-8.5,3.25-2.33,1.5-4.5,3.25-6.5,5.25,1,1,.66,1.92-1,2.75-1.67.83-2.84.92-3.5.25Zm20-219.5c.23-.62.42-1.67.25-3-.17-1.32-.59-2.33-1.25-3-3.34,4-6.42,8-9.25,12-2.83,4-6.09,7.67-9.75,11,1.33.34,2.33,0,3-1,.66-1,1.5-2,2.5-3,.66-.66,1.42-1.17,2.25-1.5.83-.33,1.58-.83,2.25-1.5s1.25-1.42,1.75-2.25c.5-.83,1.08-1.58,1.75-2.25,1.66-1.33,3.08-2.25,4.25-2.75,1.16-.5,1.82-1.59,2.25-2.75Zm-19.5,197.5c3.66-1.33,6.83-2.83,9.5-4.5,2.66-1.66,5.83-3.16,9.5-4.5,0-1-.17-1.84-.5-2.5-.33-.66-.34-1.66,0-3-4,.67-7,2.17-9,4.5-2,2.33-3.84,4.84-5.5,7.5-.67.34-1.5.58-2.5.75-1,.17-1.5.75-1.5,1.75Zm8.5-149c1.64-.9,3.25-2.17,4.75-3.5,1.5-1.33,2.41-2.66,2.75-4,0-1-.34-1.5-1-1.5-2,1-3.67,2-5,3-1.33,1-2.84,2.17-4.5,3.5-.67.67-1.67,1.42-3,2.25-1.34.83-2.08,2.89-1.5,3.75.41.62,2.16.42,3.5-.75,1.33-1.16,2.74-2.06,4-2.75Zm-6.5,158.5c2-2,4.58-3.5,7.75-4.5,3.16-1,6.25-2.16,9.25-3.5-.67-1-1.67-1.16-3-.5-1.34.67-2.67,1.34-4,2-3.34,1.34-5.99,2.27-7,3-.65.47-1.42,1.25-2.25,1.75-.83.5-1.09,1.09-.75,1.75Zm16.5-80.5c-.67-.66-.84-1.16-.5-1.5-2.67,1.67-5.25,3.34-7.75,5-2.5,1.67-4.75,3.67-6.75,6,1.33-.66,2.5-1.5,3.5-2.5s2.16-1.83,3.5-2.5c1.33-.66,2.75-1.25,4.25-1.75s2.75-1.41,3.75-2.75Zm-10.5,149c-.67-.33-1-.58-1-.75s-.17-.41-.5-.75c.33,1.34.33,2.42,0,3.25-.33.83-.17,1.59.5,2.25,2.66.67,4.5.33,5.5-1,1-1.33,2.16-2.5,3.5-3.5,1.66-1.66,2.83-2.66,3.5-3,3-2,5.75-4.5,8.25-7.5s4.91-5.33,7.25-7c-4-1-7.17-.16-9.5,2.5-2.34,2.67-5.34,4.5-9,5.5-1,1.67-2.17,3-3.5,4-1.33,1-2.84,2-4.5,3,0,.67.08,1.34.25,2,.17.67-.09,1-.75,1Zm11-96.5c-.67-1.66-.75-3-.25-4s.41-2-.25-3c-1.67.67-3.25,1.5-4.75,2.5s-2.92,2-4.25,3c1.33-1,3-1.42,5-1.25,2,.17,3.5,1.09,4.5,2.75Zm-6-29.5c1,0,1.92-.17,2.75-.5.83-.33,1.91-.33,3.25,0,0-2.66-.84-3.41-2.5-2.25-1.67,1.17-2.84,2.09-3.5,2.75Zm6.5-156c-.67-2-.67-3.83,0-5.5.67-1.66.66-3.33,0-5-.67,1-1.34,2.09-2,3.25-.67,1.17-1.5,2.09-2.5,2.75,1,.67,1.84,1.42,2.5,2.25.66.83,1.33,1.59,2,2.25Zm.5-23.5c0-.66.08-1.5.25-2.5.17-1-.09-1.5-.75-1.5-.67.67-1.08,1.43-1.25,2.25-.17.83-.59,1.59-1.25,2.25,1,.34,1.58.25,1.75-.25.17-.5.58-.58,1.25-.25Zm24.5,291c-2,1-3.67,2.09-5,3.25-1.34,1.17-2.84,2.42-4.5,3.75-2.67,1.67-5.25,3.34-7.75,5-2.5,1.67-4.75,3.67-6.75,6,2-.66,4.33-1,7-1s4.83-.33,6.5-1c-1.34,0-1.81-1.35-1-3,.92-1.87,3-3.67,5-5,2-1.33,4-2.83,6-4.5,1-1,1.83-2.08,2.5-3.25.66-1.16,1.83-1.91,3.5-2.25,1.66.34,2.58,1.09,2.75,2.25.17,1.17,1.08,2.09,2.75,2.75,1.33-1,2.75-1.92,4.25-2.75,1.5-.83,2.91-1.91,4.25-3.25-3.34-.66-6.25-1-8.75-1s-5.59.34-9.25,1c-.34.67-.5,1.34-.5,2s-.34,1-1,1Zm-4.5,16c.66-.33,1.42-.42,2.25-.25.82.17,1.58-.08,2.25-.75-1.34-.33-1.5-1.08-.5-2.25,1-1.16.66-1.58-1-1.25,0,1.34-.5,2.08-1.5,2.25-1,.17-1.5.92-1.5,2.25Zm19.5-249.5c-1.67-2.33-2.25-4.91-1.75-7.75.5-2.83,1.09-5.73,1.25-8.25.21-3.43-.08-7-.25-10-.17-3,.08-5.83.75-8.5,3,0,5,.67,6,2,3.33-1.66,7.08-3.42,11.25-5.25,4.16-1.83,8.58-3.41,13.25-4.75.33-.33,1.25-.33,2.75,0,1.5.33,2.59.67,3.25,1,.66.33,1.33.75,2,1.25.66.5,1.55,1.25,2.5,1.75,1.43.75,3.17,1.33,4.5,2,1.33.66,2.66,1.67,4,3,.66.67,1,1.25,1,1.75s.34,1.09,1,1.75,1.25,1.08,1.75,1.25c.5.17.75.59.75,1.25.66,1.67,1.08,3.34,1.25,5,.17,1.67.75,3.34,1.75,5-.67,2.67-1.84,4.75-3.5,6.25-1.67,1.5-2.13,4.94-3,6.75-.68,1.42-3.17,3.34-4.5,5-1.34,1.67-2.8,5.2-4,6-2.62,1.73-11.17,2-16.5,4-5.33,2-11,2.34-17,1-1.34.34-2,1.25-2,2.75s-.4,3.36-1,3.75c-1.02.66-3.33-.09-4-1.25-.66-1.16-1.67-2.08-3-2.75.66-2.66.83-5.17.5-7.5-.33-2.32,0-4.5,1-6.5Zm9-23c-1.67,3-2.42,6.59-2.25,10.75.17,4.17.41,8.59.75,13.25,1.66-.33,3,0,4,1s2.5,1.5,4.5,1.5c1.66-2.66,3.17-6.33,4.5-11,1.33-4.66.83-8.33-1.5-11-3,.67-5.17.58-6.5-.25-1.33-.83-2.5-2.25-3.5-4.25Zm19,14.5c.33,1.67.25,3.17-.25,4.5-.5,1.33-.75,2.84-.75,4.5,2.33,0,4.33-.5,6-1.5-2-1.33-2.5-3.16-1.5-5.5-1.34.67-2,.5-2-.5s-.5-1.5-1.5-1.5Zm16-7.5c-.34,1.34-1.09,2.08-2.25,2.25-1.17.17-2.09.75-2.75,1.75,2-.66,3.91-1.58,5.75-2.75,1.83-1.16,2.91-2.91,3.25-5.25,0-1-.25-2.33-.75-4-.5-1.66-1.09-2.66-1.75-3-.67,1-1.5,1.67-2.5,2-1,.33-2.17.84-3.5,1.5.33,1,.84,1.67,1.5,2,.66.33,1.16,1,1.5,2,0,.67-.17,1.17-.5,1.5s-.5.84-.5,1.5c.33.67.67.75,1,.25.33-.5.83-.41,1.5.25Z"/>
        <path d="m646.28,399.48c.95,9.34,1.19,18.17.72,26.5-.48,8.34.6,18.18-.72,24-.13.57-.8,1.17-1.43,1.5-.95,1-2.07,1.5-3.34,1.5-1.91,4.67-3.51,10-4.77,16-1.26,6-2.88,11.34-4.97,16-1.87,1.67-4.07,2.75-6.62,3.25-2.55.5-5.19,1-7.9,1.5-2.72.5-5.36,1-7.92,1.5-2.57.5-4.79,1.59-6.68,3.25-2.31-1.66-4.5-2.08-6.57-1.25-2.09.83-4.26,1.25-6.53,1.25,2.31,17.89,2.26,36.82,1.08,53.5-.63,8.84-1.01,19.86-3.01,29.25-2.41,11.31-1.96,22.76-1.5,34.25,0,1.67-.75,3.17-2.25,4.5-1.5,1.33-3.22,2.89-4.25,4.5-1.44,2.25-2,4.17-2,4.5-.34.67-.34,1.34,0,2-1,3-2.42,5.67-4.25,8-1.84,2.34-3.25,5.17-4.25,8.5-2,0-4.09-.34-6.25-1-2.17-.66-3.75.66-4.75,4-6.67,0-12.92.25-18.75.75-5.84.5-12.09-.75-18.75-3.75.05-19.01.24-38.06.75-57,.48-17.94.24-36.03-.75-54v-25.5c-.95-17.97-.36-36.24,1.5-54,1.95-18.67,2.9-37.68,3-56.5,0-1.66-.42-2.75-1.25-3.25-.83-.5-1.25-1.58-1.25-3.25,1.33-1.66,2-4.33,2-8s-.67-6.16-2-7.5c1.33-1.66,2.17-3.25,2.5-4.75.33-1.5,1-3.08,2-4.75,1-1.66.91-2.16-.25-1.5-1.17.67-1.75.17-1.75-1.5,3.23-10.25,6.49-20.46,10.99-30.25,4.57-9.94,7.82-20.32,11.05-30.75,1,0,1.42,1.18,1.25,3.5-.17,2.33.91,3.5,3.24,3.5-.02,7.6-.04,11.4-.09,19h1.99c-1.01,3-2.11,6.43-3.29,10.25-1.18,3.83-.12,6.59,3.16,8.25-1,2-1.92,3.92-2.74,5.75-.83,1.83-.59,4.42.71,7.75,0,1.67.32,2.17.98,1.5.65-.66.98-.16.98,1.5,0,1.67-.34,2.67-.99,3-.66.33-.98,1.34-.98,3,0,3.34.26,5.5.75,6.5.5,1,.26,2.84-.72,5.5,0,1.67.32,2.17.98,1.5.65-.66.98-.16.98,1.5s-.25,3.09-.74,4.25c-.49,1.17-.98,2.25-1.47,3.25-.49,1-.99,2.17-1.48,3.5-.49,1.33-.74,3.17-.74,5.5,1.31,0,2.38-.92,3.2-2.75.81-1.83,1.23-1.91,1.23-.25.98,3,.81,4.84-.49,5.5-1.31.67-3.47,2.16-3.93,3.5-1.03,2.97.17,8.5.49,11.5.33,3,1.64,4.5,3.93,4.5-.98,3-1.89,6.18-2.7,9.5-.82,3.33-.58,6.5.74,9.5-.98,6.34-1.72,13.17-2.21,20.5-.49,7.34-.94,14.75-1.26,22.25-.32,7.5-.7,15-1.16,22.5-.46,7.5-1.17,14.42-2.15,20.75,1.34,4.67,1.78,9.84,1.28,15.5-.5,5.67-.12,11,1.22,16-.34,0-.67.17-1,.5-.67.67-.34,1.5,1,2.5v31c0,5,.08,8.34.25,10,.17,1.67.75,4.84,1.75,9.5-3.34,4.67-6.5,8.84-9.5,12.5-3,3.67-5.67,8-8,13h9v-7c2-1.66,3.75-3.92,5.25-6.75,1.5-2.83,3.41-5.75,5.75-8.75-1.34,0-2.09-.09-2.25-.25s-.25-1.08-.25-2.75c5.66-1.66,11.08-2.75,16.25-3.25,5.16-.5,9.91-1.58,14.25-3.25-.06-9.95.64-20.18,1.75-30,1.13-9.95,3.86-21.03,4.75-30,.62-6.23-.34-14.5-.84-22.5-.5-8-.77-15.83-.75-23.5.02-7.66.56-14.92,1.66-21.75,1.1-6.82,2.99-12.75,5.56-17.75,5.45,0,10.58-.67,15.37-2,4.79-1.33,8.88-3.12,11.96-4.5,4.07-1.82,8.6-2.42,12.41-2.25,3.81.17,7.15-2.08,10.01-6.75,0-6.33-.24-12.75-.72-19.25-.48-6.5-.24-12.91.72-19.25-1.91,0-3.9.42-5.96,1.25-2.07.83-4.05.42-5.96-1.25-2.23,3.34-5.42,5.17-9.55,5.5-4.14.33-7.34-.33-9.56-2-3.19,0-6.31.5-9.35,1.5-3.04,1-6.17,1.5-9.37,1.5-1.29-3.33-1.69-7.41-1.2-12.25.48-4.83.08-8.08-1.2-9.75,1.28-3.66,1.55-7.83.72-12.5-.83-4.66-1.7-7.83-2.66-9.5,3.22-1.33,6.61-2.33,10.16-3,3.54-.67,7.16-1.08,10.85-1.25,3.68-.17,7.38-.33,11.06-.5,3.68-.17,7.13-.58,10.35-1.25,1.92,0,3.93-.5,6.05-1.5,2.11-1,4.14-1.5,6.06-1.5,5.51-1.66,10.84-2.33,15.95-2,5.1.33,9.83-1.16,14.25-4.5,1.28,0,1.72-.5,1.31-1.5-.41-1,.02-1.5,1.32-1.5.71-9.66,1.92-18.58,3.39-26.75,1.47-8.16,2.47-16.41,2.77-24.75-3.09,2.67-6.58,4.42-10.43,5.25-3.85.83-7.87,1.42-12.02,1.75-4.16.33-8.22.33-12.18,0-3.96-.33-7.28-.5-9.93-.5-1.99,0-3.32-.17-3.96-.5-.65-.33-2.26-1.31-4.41-3-1.94-1.53-4.37-2.33-7.19-2-2.83.33-4.72-1-5.69-4h-4.49c0,1.2-.01,1.8-.02,3-.98-1.66-2.4-2.17-4.23-1.5-1.84.67-3.42.17-4.74-1.5-1.68,1.67-3.68,2.58-6,2.75-2.33.17-4.83.17-7.49,0-2.66-.17-5.5-.33-8.49-.5-2.99-.17-6.1.46-8.49.75-4.07.5-8.58.92-11.75,2.75-3.17,1.83-6.11,1.93-7.75.25-1.35-1.37-1-2.5,1-2.5s3,.84,3,2.5c2.33-3,5.25-4.75,8.75-5.25,3.5-.5,7.91-.75,13.25-.75,4.33,0,9.08-1,14.24-3,5.16-2,9.9-3,14.24-3,4.66,0,9.17.5,13.5,1.5,4.33,1,8.66,1.5,12.99,1.5,5.32,0,10.75-.5,16.25-1.5s13.28-2.77,16.75-1.5c1.61.59,4.4,2.08,7.24,1.25,2.83-.83,5.59-1.25,8.26-1.25,2.67-1,4.51-.5,5.48,1.5.97,2,1.5,4.75,1.52,8.25s-.26,7.25-.86,11.25c-.6,4-1.04,7.5-1.29,10.5-.8,9.67-1.8,18.34-2.75,26-.95,7.67-2.63,13.84-5.09,18.5-1.04,1.67-2.06,3.25-3.07,4.75-1.01,1.5-1.53,3.09-1.56,4.75-1.6,0-1.74,2.88-2.43,5.5-.37,1.38-2.31,4-4.06,7-1.75,3-2.73,7.57-4.06,9.5-1.08,1.56-4.78,2.17-7.63,1.5-2.86-.67-5.89-.16-9.06,1.5Zm-119.16,82.5c0,1.67-.25,3.09-.75,4.25-.5,1.17-.25,1.75.75,1.75,0-1,1-2.83,2.99-5.5,1-1.33,2.15-2.5,3.48-3.5-.99,1.67-2.08,2.58-3.23,2.75-1.16.17-2.24.25-3.24.25Zm0,126.5c-1,3-1.25,6.67-.75,11,.5,4.34.75,8.84.75,13.5.4-.8.6-1.2,1-2,.66-1.33,1-2.66,1-4-1,0-1.59-.09-1.75-.25s-.25-1.08-.25-2.75v-3.5c2.33,0,4.08-1.08,5.25-3.25,1.16-2.16,2.41-4.08,3.75-5.75,1.33-1.66,3-3.42,5-5.25,2-1.83,2.5-4.25,1.5-7.25-1,1.67-2.08,3.5-3.25,5.5-1.17,2-2.34,3.92-3.5,5.75-1.17,1.84-2.5,3.17-4,4-1.5.83-3.09.92-4.75.25.33-3,1.42-5.5,3.25-7.5,1.83-2,3.58-3.83,5.25-5.5s3.25-3.75,4.75-6.25,2.25-5.75,2.25-9.75c-2,5.34-4.25,9.67-6.75,13-2.5,3.33-5.42,6.67-8.75,10Zm0-234c1,0,1.33.42,1,1.25-.33.83,0,1.25,1,1.25.66-5.33,2.15-10.08,4.47-14.25,2.31-4.16,4.63-8.33,6.95-12.5,2.32-4.16,4.23-8.58,5.75-13.25,1.51-4.66,1.79-10.16.82-16.5-2.77,9-5.64,18.05-8.3,27-2.69,9.06-6.66,18.87-11.69,27Zm2,57c.66-4,1.91-7.41,3.74-10.25,1.82-2.83,3.73-5.42,5.71-7.75,1.98-2.33,3.63-4.75,4.95-7.25,1.31-2.5,1.64-5.75.99-9.75-1.98,4.67-4.04,8.84-6.19,12.5-2.15,3.67-4.39,7.84-6.71,12.5,0,.34-.17.67-.5,1-.67.67-1.33.34-2-1,0,3-.08,6.18-.25,9.5-.17,3.33-.75,6.5-1.75,9.5,2.33-1.66,4.41-3.58,6.24-5.75,1.82-2.16.42-3.25-4.24-3.25Zm2.49,28c-1.33,0-2.42.25-3.24.75-.83.5-1.25,2.25-1.25,5.25,3.33-1.66,6.41-5.25,9.22-10.75,2.81-5.5,6.36-9.08,10.64-10.75-1.32-1.66-1.4-3.66-.25-6,1.15-2.33,1.23-3.5.25-3.5-3.29,4.67-6.1,8.84-8.4,12.5-2.31,3.67-4.64,7.84-6.96,12.5Zm8.93,38c.33,3-.15,5.67-1.47,8-1.32,2.34-2.81,4.67-4.47,7-1.66,2.34-3.32,4.75-4.99,7.25-1.67,2.5-2.5,5.75-2.5,9.75,3.33-4.66,6.33-8.66,8.99-12,2.65-3.33,5.47-6.83,8.43-10.5-1-1.66-1.34-4.17-1.02-7.5.32-3.32-.01-5-1-5-.33.67-.49,1.17-.49,1.5-.66,1-1.16,1.5-1.48,1.5Zm-13.42,9.5c.33-.33.66-1,1-2,.66-1.33,1-2.83,1-4.5-1,0-1.58-.58-1.75-1.75-.17-1.16-.25-2.58-.25-4.25v12.5Zm0,25.5v12.5c2.33-3,4.84-6.08,7.52-9.25,2.67-3.16,4-6.25,3.99-9.25-1.33,1.67-2.99,3.5-4.99,5.5s-4.18,2.17-6.51.5Zm6.5,22.5c-1.02,1.61-2.34,3.34-4,5s-2.5,4-2.5,7c2.33-3,4.66-6.66,7-11,2.34-4.33,5.18-8,8.53-11,0-2.4,0-3.6,0-6-1,3-2.42,5.92-4.26,8.75-1.84,2.84-3.51,5.27-4.77,7.25Zm-6.5,30.5v3.5c.66-.66,1-1.41,1-2.25s.16-1.58.5-2.25c0-.66.16-1.33.5-2-.34,0-.67.17-1,.5-.67.67-1,1.5-1,2.5Zm4.49-141.5c0,1.67-.67,3.17-1.99,4.5-1.33,1.34-1.5,2.84-.5,4.5,1.33-3,3.41-6.08,6.23-9.25,2.81-3.16,5.21-6.25,7.19-9.25.99-1.66,2.22-3.83,3.7-6.5,1.48-2.66,1.73-4.83.74-6.5-3.29,3-5.76,6.67-7.41,11-1.65,4.33-4.3,8.17-7.95,11.5Zm6.95-69.5c-2.02,2.61-5.13,5.17-7.45,7.5-2.33,2.34-2.99,6.17-2,11.5,3.66-5.33,6.73-10.25,9.21-14.75,2.48-4.5,5.33-9.08,8.62-13.75,0-2.4,0-3.6,0-6-1.32,1.67-2.55,3.84-3.7,6.5-1.15,2.67-2.61,6.31-4.68,9Zm1.99,22c-.68,1.56-2.4,3.34-4.21,5-1.82,1.67-2.73,4.17-2.73,7.5.66-2.33,1.74-4.42,3.23-6.25,1.49-1.83,2.98-3.58,4.46-5.25,1.48-1.66,2.8-3.66,3.95-6,1.15-2.33,1.73-5.16,1.73-8.5-1.32,1.67-2.47,3.5-3.45,5.5s-1.75,5.21-2.97,8Zm-6.96,79c2.65-1.66,4.64-3.83,5.97-6.5,1.33-2.66,2.97-4.83,4.95-6.5,0-1.66.33-3,.99-4,.66-1-.16-.54-.99,1-1.23,2.3-2.72,5.5-5.19,7.5s-4.4,4.84-5.72,8.5Zm0,9.5c2.65-1.66,4.63-3.66,5.95-6,1.32-2.33,2.97-3.5,4.95-3.5,0-2.8,0-4.2.02-7-1.99,3.67-3.98,6.59-5.96,8.75-1.98,2.17-3.64,4.75-4.96,7.75Zm.03,107c1.33-3.33,2.92-6,4.75-8,1.83-2,3.25-4.5,4.25-7.5v-3c-1,4.67-2.75,8.09-5.25,10.25-2.5,2.17-3.75,4.92-3.75,8.25Zm2.47-164.5c1.32-3,3.39-5.58,6.2-7.75,2.8-2.16,3.54-4.75,2.22-7.75-.99,3-2.31,5.59-3.96,7.75-1.65,2.17-3.14,4.75-4.46,7.75Zm2.5-91.5c0-1.66.58-3.08,1.75-4.25,1.16-1.16,1.25-1.75.25-1.75,0,1.67-.68,3.09-2,4.25-1.33,1.17-1.33,1.75,0,1.75Zm-.02,54c0-1.66,1.41-4.5,4.21-8.5,2.8-4,4.18-7.5,4.17-10.5-1.31,3-2.77,6-4.42,9-1.65,3-2.97,6.34-3.96,10Zm0,72.5c.99-1.66,2.06-3.25,3.22-4.75,1.15-1.5,2.88-3.08,5.19-4.75-1.32,0-1.73-1-1.23-3,.49-2,.08-3-1.23-3,0,3-.99,5.59-2.97,7.75-1.98,2.17-2.97,4.75-2.97,7.75Zm-.02,32c.99-1.66,1.98-2.75,2.97-3.25s1.98-1.58,2.96-3.25c0-1.66-.09-3.58-.25-5.75-.17-2.16-.74-3.25-1.73-3.25,0,3-.66,5.92-1.98,8.75-1.32,2.84-1.97,5.09-1.97,6.75Zm.06,28.5c.99-1.66,1.9-3.16,2.73-4.5.82-1.33,1.24-2.83,1.23-4.5-.99,1.67-1.9,3.17-2.72,4.5-.83,1.34-1.24,2.84-1.24,4.5Zm2.01,3.5c0-1.66.32-2.75.99-3.25.66-.5.99-1.58.99-3.25-.99.67-1.66,1.34-1.99,2-1.33,1.34-1.33,2.84.01,4.5Zm-.1-164.5c1.31,0,1.98-2.16,1.98-6.5,0,1.67-.34,2.75-.99,3.25-.66.5-.99,1.59-.99,3.25Zm.09,196c.33-.33.67-1,1.01-2,.67-1.33,1.01-3,1.02-5,0,2-.35,3.25-1.01,3.75-.67.5-1.01,1.59-1.01,3.25Zm0,9c.33,0,.66-.16,1-.5.66-.66,1-1.5,1-2.5-.8,1.2-1.2,1.8-2,3Zm1.99-243c1-1.66,1.67-3.17,2.01-4.5.33-1.32,1.17-2,2.5-2-1.33-1.66-2.41-1.41-3.25.75-.84,2.17-1.26,4.09-1.27,5.75Zm.01,319.5c1,0,2.83-.17,5.5-.5,2.66-.33,4.5-1.33,5.5-3-2.34,0-4.18.17-5.5.5-1.33.33-3.17,1.34-5.5,3Zm11-26c-1,4.67-2.42,7.84-4.25,9.5-1.84,1.67-3.42,5-4.75,10,3.66-2,6.5-5.5,8.5-10.5s3.66-9,5-12c0,1.67-.5,2.58-1.5,2.75-1,.17-2,.25-3,.25Zm2,15.5c2.33-1.66,4.58-4.41,6.75-8.25,2.16-3.83,3.75-7.25,4.75-10.25-2.67,1.67-4.67,4.42-6,8.25-1.33,3.83-3.17,7.25-5.5,10.25Zm15.5-18.5v3c-.4.8-.6,1.2-1,2-.67,1.34-1,2.84-1,4.5,1-3.33,2.33-5.5,4-6.5,1.66-1,2.5-3,2.5-6-1,1.67-2,2.17-3,1.5-1-.66-1.5-.16-1.5,1.5Zm22.63-129.5c1.26-1.66,2.93-3.25,5.01-4.75,2.07-1.5,2.45-3.08,1.16-4.75-1.9,3.67-3.96,6.84-6.17,9.5Zm4.25-95c.96-3.66,2.08-6.83,3.36-9.5,1.28-2.66,3.02-4.66,5.27-6-3.52-1.66-6.09-.75-7.67,2.75-1.58,3.5-1.92,7.75-.95,12.75Zm4.31,82.5c0-.66.35-1.44.48-2,.23-1.01-.16-2-.47-2s-.65.17-.96.5c-.65.67-.33,1.84.95,3.5Zm10.56-101.5c-.01,1.67.3,2.75.94,3.25.63.5.95,1.42.96,2.75-2.23,3-4.23,6.34-5.98,10-1.76,3.67-3.28,7.84-4.55,12.5,4.47-1.66,7.5-5.33,9.1-11,1.59-5.66,3.46-11.5,5.76-17.5-1.3,1.67-2.41,2.08-3.36,1.25-.95-.83-1.91-1.25-2.86-1.25Zm-8.6,108c1.26-1.66,2.36-3.92,3.31-6.75.95-2.83,1.92-5.08,2.88-6.75-1.91,0-3.44,1.84-4.56,5.5-1.12,3.67-1.65,6.34-1.64,8Zm6.42,9c-.04-1.66.67-2.17,2.13-1.5,1.46.67,2.17.17,2.13-1.5-.07-3,1.13-6.83,3.65-11.5,2.52-4.66,4.77-9.33,6.68-14h-1.91c-.96,4.67-3.05,9.42-6.2,14.25-3.16,4.84-5.32,9.59-6.48,14.25Zm17.02-117c-2.29,4.67-4.42,8.84-6.48,12.5-2.07,3.67-4.23,8-6.45,13h4.3c2.22-5,4.38-9.33,6.45-13,2.07-3.66,4.03-7.83,6.01-12.5h-3.82Zm8.18-3c-1.31,1.67-1.65,2.75-1.02,3.25.63.5.93,1.59.92,3.25-2.25,2.67-4.23,5.75-5.97,9.25-1.75,3.5-3.27,7.75-4.53,12.75h2.39c.95-6.66,2.94-11.91,5.96-15.75,3.02-3.83,5.02-8.08,6.08-12.75-.96,0-1.61.42-1.94,1.25-.34.83-.97.42-1.89-1.25Zm-2.49,91.5h-5.72c.95,0,1.27.59.95,1.75-.32,1.17,0,2.59.95,4.25-.95,0-1.59.68-1.91,2-.32,1.33-1.12,3-2.38,5,2.2-3.66,3.89-6.33,5-8,1.11-1.66,2.15-3.33,3.1-5Zm-5.55,22.5c.96,0,2.1-1.75,3.48-5.25,1.37-3.5,2.08-6.25,2.08-8.25-.96,3.67-2.11,6-3.53,7-1.42,1-2.11,3.17-2.02,6.5Zm18.5-111c-2.64,4.67-5.16,8.25-7.7,10.75-2.54,2.5-4.93,6.42-7.15,11.75h1.91c.31,0,.63-.16.95-.5.31-.33.63-.66.95-1,.31-.33.48-1,.48-2,.95-1.66,1.67-3.33,2.15-5,.48-1.66,2.36-3.39,3.58-5,1.42-1.88,2.63-4.92,4.09-6.75,1.45-1.83,1.73-3.58.82-5.25-.03,1.2-.04,1.8-.07,3Zm-6.75,22.5c.95-1.66,2.31-3.5,4.05-5.5,1.74-2,2.62-4.66,2.62-8-1.27,3.34-2.7,5.5-4.29,6.5-1.59,1-2.38,3.34-2.38,7Zm8.58-3.5h4.29c.95-5,2.62-8.75,5.01-11.25s3.61-6.08,3.76-10.75c-2.39,4.67-4.8,8.25-7.34,10.75-2.54,2.5-4.46,6.25-5.72,11.25Zm6.29-19c.02-1,.36-1.83,1.02-2.5.32-.33.81-.5,1.45-.5-1.23-1.66-2.19-1.58-2.88.25-.69,1.83-.55,2.75.41,2.75Z"/>
        <path d="m857.71,297.77c-.13,2.72-1.32,4.84-3.6,6.43,1.76,3.82,3.71,7.33,5.86,10.51,2.14,3.19,4.04,6.78,5.7,10.78,2.16-1.32,3.88-3.01,5.19-5.09,1.31-2.07,3.2-3.69,5.67-4.85,9.11-.39,16.93-1.47,23.58-3.2,6.65-1.73,13.47-2.96,20.26-3.65.94-.29,1.47-.15,1.61.4.14.55.47.9,1.01,1.03,3.53-1.69,7.21-1.6,10.82.14,3.6,1.73,7.43,2.78,11.29,3.29,1.59,2.02,3.65,3.62,5.96,4.89,2.32,1.26,4.71,2.39,7.04,3.42,2.33,1.03,4.44,1.84,6.26,2.48,1.82.64,3.18,1.21,4.2,1.69.57.96.99,1.94,1.36,2.91.37.98.84,1.82,1.36,2.53-.51,2.1-1.52,4.54-3.65,7.62-2.13,3.08-5.02,7.1-8.9,12.36-.51.19-.95.44-1.32.76s-.97.45-1.8.38c-.34,2.66-1.42,5.25-3.36,7.76-1.94,2.52-3.99,5.28-6.18,8.31-2.18,3.03-4.64,6.19-7.34,9.43-2.71,3.25-4.98,5.99-7.43,8.25-2.57,7.19-9.08,14.91-10.4,19.28-3.17,10.54,3.31,34.83,3.37,51.73.07,18.27-.03,37.02,1.63,55.63.9,10.07,1.56,20.4,1.47,30.5-.09,9.74-.14,20.13.25,29.5.21,5.11.42,10.59,1.25,15.75.83,5.17.41,10.09-1.25,14.75.33,1.67-.34,2.42-2,2.25-1.67-.17-2.6.43-3,1.25-.46.93-.5,2.09.5,3.25,1,1.17,1.33,2.75,1,4.75-4,4.67-8.25,8.92-12.75,12.75-4.5,3.83-9.09,7.59-13.75,11.25-.67.67-.83,1.75-.5,3.25.33,1.5.16,2.58-.5,3.25-7.34,3.33-12.34,2.16-15-3.5-3.34.33-6.59.5-9.75.5s-5.59-.83-7.25-2.5c-5,2.33-11.34,3.33-19,3-7.67-.33-16.58.16-20-1.5-1.71-.83-3.17-4.42-3.5-7.25-.33-2.82-.33-5.75,0-8.75.33-3,.67-6,1-9,.33-3,.16-5.66-.5-8-.34-1-.92-2-1.75-3-.83-1-1.5-2-2-3s-.67-2-.5-3c.17-1,1.08-2,2.75-3-.67-3-1.08-5.92-1.25-8.75-.17-2.82.02-6,.25-9.25.55-7.75.14-16.86-1.34-26.5-1.44-9.45-2.96-18.98-4.09-28.5-.75-6.32-1.74-13.25-2.8-20.75-1.06-7.5-2.12-15.17-2.9-23-.78-7.82-.88-15.44-1.07-22.76-.19-7.32-.38-13.96-.49-19.92-.01-.66.14-1.49.45-2.48.31-.99.29-1.81-.05-2.48-.71-2.31-1.64-3.73-2.8-4.23-1.16-.5-2.58-1.58-4.24-3.25-8.59-8.63-15.32-18.99-20.38-30.04-3.28-3.35-6.14-7.04-8.6-11.05-2.46-4.01-5.01-8.23-7.52-12.55-1.34.01-2.35-.31-2.98-.97s-1.79-1-3.44-1c-.26-1.66-.76-2.92-1.54-3.75s-.93-2.41-.41-4.75c-5.27-.33-8.63-2.83-9.98-7.5-1.35-4.66-2.2-9.5-2.6-14.5-.18-1.33-.43-2.67-.76-4-.34-1.33-.52-2.61-.33-3.5.33-1.55,1.32-2.75,2.37-3.25,1.05-.5,2.18-1.58,3.37-3.25,3.2-4.66,6.55-10,9.91-16,3.35-6,6.49-10.33,9.59-13,1.67,0,3.06.41,4.19,1.24,1.12.83,2.17,1.58,3.14,2.25,1.04-.66.98-1.33-.15-1.99-1.14-.67-1.34-1.83-.62-3.49,12.02-.61,24.32-1.59,36.05-2.04,12.42-.48,23.68.89,36.23,3.2,5.43-1.59,9.25-.47,11.38,3.13Zm-91.59,21.2c1.44-1,2.88-2.04,4.31-3.05,1.43-1.01,2.57-2.35,3.4-4.02-1.73.68-3.42,1.86-5.09,3.54-1.67,1.69-2.55,2.86-2.62,3.53Zm22.29,15.17c-1.17,1.33-2.56,1.67-4.15,1.01-1.25,1.99-2.85,3.42-4.79,4.27-1.95.85-3.98,1.72-6.1,2.59-2.11.87-4.01,1.99-5.68,3.36-1.67,1.37-2.66,3.39-2.93,6.06,4.89-1.77,9.64-4.53,14.27-8.26,4.62-3.72,7.76-6.71,9.38-9.03Zm-19.22-3.25c2.76-.72,5.04-1.66,6.86-2.85,1.81-1.18,3.93-2.11,6.36-2.78-.41-2.3-1.28-3.46-2.62-3.45-1.57,1.99-3.26,3.58-5.07,4.76-1.82,1.19-3.66,2.63-5.53,4.32Zm9.36-27.44c3.68,4.66,7.16,9.54,10.47,14.65,3.31,5.11,6.85,9.97,10.67,14.58,5.26,9.78,12.06,18.85,18.13,27.77,6.42,9.43,10.97,19.75,16.03,30.32,3.2,2.72,6.83,5.26,10.86,7.63,4.03,2.37,6.43,6.11,7.39,10.95.39,1.95.57,4.59.45,7.85-.13,3.26,0,6.46.08,9.3.11,4.41.02,8.66.21,12.26.19,3.61.13,7.49.49,10.83.47,4.33,1.08,8.34.78,11.15-.29,2.82-.84,6.08-1.45,9.74,0,.34.34.58,1.01.75.66.17,1.01.59,1.03,1.25-.58,3.67-.64,7.34-.21,11,.43,3.67.78,6.5.98,8.5.29,3,.73,5.42,1.27,7.25.54,1.83,1.3,4.09,2.3,6.75,2.06,6,3.39,11.68,3.85,17,.46,5.33,1.27,10.48,1.82,15,.47,3.84,1.29,8.09,2.78,12.25,1.49,4.17,1.31,8.25-.36,12.25,1.66,1.67,2.17,4.5,1.5,8.5-.67,4-1.67,7-3,9,.66,2.67.67,5.43,0,8.25-.67,2.83-.41,9.67,1,10.75,3.01,2.31,16.92.42,23.75.25,6.82-.17,15.08-.91,24.75-2.25,1-.66,2.09-.33,3.25,1,1.16,1.33,1.75,1.17,1.75-.5.66-5.33.58-10.5-.25-15.5-.83-5-1.26-9.68-1.25-14,.05-14.74-.2-29.49-1.15-44.25-.9-14.07-2.23-28.38-2.13-42.25.1-13.48.83-27.51.06-40.91-.76-13.26-2.55-26.94-4.09-40.42,1.82-.94,3.03-2.45,3.67-4.55.63-2.09,1.89-3.63,3.73-4.57.67-4.89,2.89-8.94,7.77-12.39.63-2.82,1.6-4.65,3.04-5.61,1.43-.97,2.88-2.08,4.32-3.33,2.25-4.44,4.91-7.98,8.05-10.77,3.13-2.79,4.85-5.49,5.35-8.21,4.92-4.07,8.55-8.02,11.05-11.78,2.5-3.75,4.63-6.61,6.53-8.82-1.51-.84-2.83-1.29-3.94-1.32-1.12-.02-2.55-.14-4.01-.56-2.08-.6-4.4-1.71-6.62-2.92-2.22-1.2-4.49-2.43-6.81-3.67-2.32-1.23-4.78-2.29-7.42-3.12-2.64-.84-5.58-1.19-8.87-.98-1.25.93-2.54,2.43-3.81,4.51-1.27,2.09-3.03,3.34-5.36,3.71-.52,3.96-2.66,6.73-6.71,8.39.33,2.17-.45,3.83-2.4,5.02-1.95,1.19-3.5,2.59-4.64,4.22-.76,1.08-1.3,2.27-1.63,3.56-.33,1.29-.9,2.52-1.68,3.66-1.58,2.31-3.72,4.96-6.44,8.02-2.73,3.07-5.14,5.82-7.16,8.11.11,2.71-.15,5.13-.75,7.23-.61,2.1-2.5,3.15-5.63,3.08-4.78-6.97-8.64-14.23-11.41-21.78-2.77-7.54-5.93-15.12-9.33-22.94-2.24-4.71-4.6-9.26-7.08-13.69-2.49-4.44-4.55-9.18-6.18-14.24-11.92-.7-23.93-1.34-35.75-1.56-10.78-.2-21.78-.14-32.66.6Zm7.09,61.78c2.76-1.36,4.35-2.39,4.74-3.07-2.73.69-4.31,1.72-4.74,3.07Zm6.72,9.77c-1.35.69-3.03,1.46-5.02,2.3-1.99.85-2.67,2.27-2.02,4.28,4.57-2.3,8.62-5.01,12.28-8.11,3.66-3.1,7.91-5.67,12.72-7.7.18-1.72-.67-2.91-2.57-3.61-1.32,3.06-3.54,5.55-6.64,7.43-3.11,1.88-6.03,3.69-8.74,5.4Zm19.08,4.38c-3.54,1.95-7.15,3.74-10.85,5.36-3.71,1.62-6.38,4.27-7.99,7.91,4.85-1.61,9.19-3.81,13.04-6.59,3.85-2.78,7.35-5.71,11.25-9.22-1.32.34-2.69.41-4.1.21-1.42-.2-1.99.65-1.36,2.33Zm-9.99,26.32c2.55-2.96,5.58-5.41,9.09-7.36,3.5-1.94,6.67-4.21,9.51-6.83.95-.65,2.14-1.13,3.56-1.44,1.42-.31,1.49-1.13.22-2.49-3.17.94-6.35,2.97-9.5,6.08-3.17,3.11-6.99,5.3-11.49,6.57.01,1-.38,2.07-1.17,3.22-.8,1.16-.87,1.9-.21,2.24Zm26.1,136.76c1.69.34,3.41-.17,5.14-1.5,1.73-1.33,2.87-2.66,3.42-4-1.61.67-3.21,1.42-4.81,2.25-1.6.83-2.85,1.92-3.75,3.25Zm2.57,47.5c4.66-1.66,9-4.83,13-9.5-3.67-1-6.08.09-7.25,3.25-1.17,3.17-3.09,5.25-5.75,6.25Zm-7.14-143.45c4.59-1.64,8.32-4.27,11.15-7.88,2.82-3.6,6.15-5.71,10.04-6.34-.36-.66-.49-1.56-.38-2.71.1-1.14-.48-1.39-1.75-.75-2.43,3.59-5.58,6.44-9.43,8.56-3.86,2.12-7.06,5.16-9.62,9.12Zm3.73,64.95c2.24-.66,4.28-1.75,6.1-3.25s3.56-2.92,5.23-4.25c1.67-1.33,3.46-2.42,5.37-3.25,1.9-.83,3.88-1.08,5.91-.75-.21-1.8-.31-2.7-.5-4.5-9.54,4.34-16.9,9.67-22.1,16Zm1.87-23.5c.9,2.67.28,4.84-1.88,6.5,2.86-1.33,6-3.25,9.44-5.75,3.44-2.5,6.95-4.58,10.51-6.25.21-1.66.14-3-.24-4-.38-1-.29-2.33.33-4-6.89,3.34-12.99,7.84-18.16,13.5Zm27.93,48c-.61.67-1.36,1.5-2.28,2.5-.92,1-2.25,1-4,0-.83,2-2.05,3.67-3.62,5-1.58,1.33-3.26,2.59-5.03,3.75-1.78,1.17-3.47,2.5-5.08,4-1.62,1.5-2.91,3.25-3.9,5.25,4.65-2.66,8.73-5.66,12.24-9,3.5-3.33,7.97-5.83,13.51-7.5-.11-1.33-.03-2.33.25-3,.27-.66-.43-1-2.09-1Zm-12.4,72.5c-1,3-3,5-6,6s-4.84,3.34-5.5,7c5.33-2.66,10.16-5.58,14.5-8.75,4.33-3.16,8.33-6.91,12-11.25-1-1-1.34-1.5-1-1.5-4.34,4-9,6.84-14,8.5Zm-9.5-4.5c3.66-2.66,7.25-5.33,10.75-8,3.5-2.66,7.08-5.33,10.75-8-.34-.66-.42-1.16-.25-1.5.16-.33-.09-.66-.75-1-3,3.34-6.84,6.34-11.5,9-4.67,2.67-7.67,5.84-9,9.5Zm1-35c3.66-2.33,7.25-4.83,10.75-7.5,3.5-2.66,7.09-5,10.72-7,.65-.66,1.57-.83,2.74-.5,1.17.33,1.58-.5,1.19-2.5-5.62,1.67-10.24,4.17-13.9,7.5-3.67,3.34-7.5,6.67-11.5,10Zm1.9-33c2.76-2.66,5.94-4.83,9.6-6.5,3.65-1.67,6.46-4.16,8.39-7.5-3.47,1.67-7.01,3.5-10.61,5.5-3.61,2-6.05,4.84-7.38,8.5Zm-5.92-79.99c2.3-1.32,4.44-2.73,6.39-4.21,1.95-1.48,4.4-2.54,7.36-3.2-.02-.66.03-1.4.17-2.22.14-.81-.13-1.23-.79-1.24-1.58,1.97-3.91,3.86-7.01,5.67-3.11,1.81-5.15,3.55-6.12,5.21Zm31.51,155.99c-2.67,4-6.42,7-11.25,9-4.83,2-8.75,5-11.75,9,4.33,0,8.08-.67,11.25-2,3.16-1.33,6-3,8.5-5s4.92-4,7.25-6c2.33-2,4.83-3.83,7.5-5.5-2.67-.33-4.75-.17-6.25.5-1.5.67-3.25.67-5.25,0Zm-20.37-197.85c-.4-1.64-.45-2.71-.15-3.2.29-.48.41-1.38.36-2.7-1-1-2.16-1.92-3.47-2.76-1.3-.84-2.62-1.77-3.92-2.78.72,2.65,1.77,4.8,3.12,6.46,1.35,1.66,2.7,3.32,4.07,4.98Zm6.87,158.85c2-1.33,3.75-1.58,5.25-.75,1.5.83,3.25.92,5.25.25v-3c0-1.33-.34-2.66-1-4-.67,2.34-2.25,3.67-4.75,4-2.5.33-4.09,1.5-4.75,3.5Zm16.5,56c2.66.67,4.67.92,6,.75,1.32-.17,3.33.09,6,.75-.34-2,.25-3.75,1.75-5.25s3.33-3,5.5-4.5c2.16-1.5,4.33-3.08,6.5-4.75,2.16-1.66,3.58-3.66,4.25-6-3.67.67-6.75,1.75-9.25,3.25s-4.84,3.17-7,5c-2.17,1.84-4.34,3.75-6.5,5.75-2.17,2-4.59,3.67-7.25,5Zm11.12-293.71c.09,1.49-.72,2.63-2.44,3.42-1.73.8-2.35,1.68-1.84,2.62,5.32-1.22,10.25-3.23,14.73-5.9,4.48-2.67,12.86-1.98,14.82-3.03.34-.18,1.45-1.68,3.09-2.69,1.64-1,1.73-1.71.3-2.17-3.43.89-7.64,2.15-12.7,3.9-5.08,1.75-10.41,3.07-15.96,3.86Zm9.88,295.71c1,.67,1.83.59,2.5-.25.66-.83,1.33-1.58,2-2.25-2.34.67-3.84,1.5-4.5,2.5Zm26.49-310.53c.08-.5.43-.83,1.03-.97.6-.14.94-.46,1.03-.96-.56-.11-.79-.4-.7-.9-.5-.1-.75-.14-1.26-.24.42.85.31,1.48-.33,1.87-.66.4-.57.81.23,1.2Z"/>
      </g>
      <g>
        <path d="m568.24,774.47c-2,1-3.59.91-4.75-.25s-3.09-1.58-5.75-1.25c.66,1.67,1.83,2.75,3.5,3.25,1.66.5,3.33,1.08,5,1.75,1.66.67,3.09,1.59,4.25,2.75s2.58,2.09,4.25,2.75c5.66,3.67,11,7.67,16,12,5,4.33,9.45,9.69,13.5,15,4.29,5.62,8.17,12,10.5,19,2.33,7,4.33,15.34,6,25,0,.67.17,1.42.5,2.25.33.83.81,1.84,1,2.75.67,3.19.17,7-.5,10-.67,3-1.43,6.06-2,9-.38,1.94-.25,4,.25,6s.14,4.17-.25,6c-.62,2.92-1.08,6.59-2.25,9.75-1.17,3.17-2.25,6.25-3.25,9.25.66,3.34.42,6.5-.75,9.5-1.17,3-2.14,6.34-3.3,9.54-1.56,4.28-3.67,8.85-5.65,13.33-1.98,4.49-4.37,8.14-7.16,11.15-.03,1.37.29,2.25.96,2.65.67.4.99,1.29.97,2.62-2.79,3.99-6.72,7-11.8,9.07-5.07,2.07-9.09,4.92-11.93,8.69-.66.23-1.32.46-1.97.68-.66.23-1.65.44-2.96.63-2.49,3-4.82,5.61-7.02,7.79-2.21,2.19-5.41,4.28-9.5,6.25-1.19.48-2.33,1.18-3.4,2.13-1.08.96-2.36,1.52-3.86,1.66-.63-.07-1.35-.23-2.16-.48-.81-.25-1.62-.07-2.06,0-.69.1-1.82.01-2.65.38-.83.36-1.73.75-2.51.86-1.59.23-3.85-.19-6.23-.82-2.38-.63-4.66-1.01-6.64-.93-1.4.05-2.74.37-3.9.81-1.16.45-2.49.41-3.52.39-.95-.02-2.21-.05-3.35-.55-1.15-.5-2.32-.85-3.5-1.05-2.67-.45-5.3-.84-7.87-1.16-2.57-.32-5.18-.82-7.53-1.64-1.55-.54-3.3-1.38-5.15-2.31-1.86-.94-3.93-1.89-6.22-2.89-1-.46-1.9-.72-2.7-.75-.79-.03-1.8-.25-2.7-.75-1.1-.62-2.2-1.49-3.19-2.19-.98-.7-2.19-1.43-3.61-2.2-.71-.38-1.54-.61-2.49-.69-.95-.08-1.92-.34-2.92-.78-.29-.06-.43-.2-.42-.43.01-.22-.34-.52-1.04-.89-2.58-.97-5.58-2.25-8.99-3.75-3.41-1.51-6.31-2.95-8.68-4.3-.83-.52-1.92-1.35-3.21-2.41-1.3-1.07-2.59-2-3.89-2.84-.4-.22-.62-.26-.67-.12-.05.14-.17.05-.38-.29-.5-.38-1.42-1.03-2.74-1.88-1.32-.85-2.35-1.46-3.13-1.85-.95-.69-1.59-1.35-1.93-1.99s-.96-1.35-1.89-2.13c-1.92-1.69-4.03-3.37-6.37-5.14-2.34-1.77-4.23-3.37-5.22-4.76-.88-1.23-1.21-2.66-1.14-3.75.08-1.08-.04-2.59-.48-4.4-.62-2.54-1.58-5.38-2.58-8.15-1-2.77-1.84-6.87-2-11.38-.09-2.57.08-5.67.25-9,.17-3.32.59-6.31.75-8.5.11-1.54.25-4.16.75-7.5.5-3.33.41-6.65.25-9.5-.1-1.89-.25-4.25-.75-6.75s-.78-6.16.25-8.75c.95-2.4,3.75-4.83,6.25-6.5,2.5-1.66,4.58-3.83,6.25-6.5,1.33-1.66,2.83-4.16,4.5-7.5,1.66-3.33,3.94-5.45,6.5-6.5,2.95-1.2,6.58-1.5,10.75-.5,4.16,1,7.9,1.16,10.75,1,2.83-.16,6.25-.42,9.75-1.25,3.5-.83,7.61-1.11,12.25-.75,3.97.31,7.33.83,10,1.5,2.66.67,5.33,1.67,8,3,.33,3.34,1.5,6.17,3.5,8.5-1,7.67-1.17,15.18-.5,22.5.67,7.33,1.33,15.17,2,23.5,6.33-4.66,9.26-13.11,8.5-25-.29-4.63-.42-9.17-.25-13.5.17-4.32-.71-8.92-2.75-13.5-1.91-4.29-4.67-7.92-8-10.75-3.33-2.83-5.84-6.08-7.5-9.75-8.34-3.66-16.25-7.67-23.75-12-7.5-4.33-13.59-10.16-18.25-17.5-3,0-5.47-.34-6-1-.8-.98-1-2.66-1-3s-.17-1.16-.5-2.5c-2-2.33-4.25-4.83-6.75-7.5-2.5-2.66-4.82-5.34-6.75-8-2.35-3.24-3.84-7.75-5-12.5-.55-2.26-1.08-4.17-1.25-5.5-.17-1.32.08-3.33.75-6,0-1.66-.08-4.33-.25-8-.17-3.66-.59-6.83-1.25-9.5,1.33-3,2.17-5.92,2.5-8.75.33-2.82.83-6.08,1.5-9.75,2.66-3,5-6.17,7-9.5,2-3.33,4.16-6.5,6.5-9.5,4.66-3.66,9.16-7,13.5-10,.66-.66,1.25-1.33,1.75-2,.5-.66,1.08-1.16,1.75-1.5,3-2,6.25-3.67,9.75-5,3.5-1.33,6.41-3.5,8.75-6.5,4-.66,7.41-2.08,10.25-4.25,2.83-2.16,6.41-3.58,10.75-4.25,1.33.67,1.83.42,1.5-.75-.33-1.16.13-1.39,1-1.25,1.94.31,4.33-.5,6-1.5,1.66-.33,2.75.09,3.25,1.25.5,1.17,1.58,1.75,3.25,1.75,5.66-.66,11.66-1.5,18-2.5,6.33-1,12.66-.66,19,1,2.66.67,4.84,1.84,6.5,3.5s3.83,2.67,6.5,3c2.33,2.67,5.17,5.59,8.5,8.75,3.33,3.16,6.04,7.1,8,11.75,1.68,3.97,2.75,8.67,3.25,14,.5,5.34,1.58,10.34,3.25,15,.66,3,2,6.09,4,9.25,2,3.17,3.16,6.26,3,8.75-.16,2.52-1.25,4.92-2.75,6.75-1.5,1.83-2.09,3.92-1.75,6.25-4,3.67-7.25,8.09-9.75,13.25-2.5,5.17-5.59,9.92-9.25,14.25Zm-143,146.5c-.67.67-1.59,1-2.75,1s-1.59.84-1.25,2.5c1.66,0,2.92-.58,3.75-1.75.83-1.16,1.94-2.37,3.25-3.25,1.53-1.03,3.17-1.75,4.5-2.25,1.33-.5,2.66-1.06,3.5-1.75.66-.54,1.5-1.58,2.5-2.75,1-1.16,1-2.25,0-3.25-2,2.34-4.34,4.17-7,5.5-2.67,1.33-4.84,3.34-6.5,6Zm-4-11.5c1.33.67,2,.5,2-.5s.33-1.66,1-2c-1.34,0-2.34-.33-3-1v3.5Zm2.92,27.1c.98-.74,2.54-1.5,4.69-2.3,2.15-.8,3.74-1.78,4.76-2.99.33-.3.85-.9,1.54-1.85.69-.95.54-1.45-.46-1.46-1.72,1.97-3.74,3.31-6.06,4.17-2.33.86-3.83,2.43-4.47,4.43Zm1.14,5.83c1.32.46,1.52,1.13.62,1.95-.9.81-.51,1.4,1.14,1.85,3.89-2.27,8.76-4.33,14.33-5.6-.33-.48-.33-1.19.01-2.19.34-.99-.15-1.41-1.46-1.17-1.35,2.05-3.56,3.49-6.62,4.49-3.07,1-5.72,1.17-8.01.68Zm4.43-38.43c1.66-1,3.25-2.33,4.75-4,1.5-1.66,3.75-2.5,6.75-2.5-.34-.66-.42-1.25-.25-1.75.17-.5-.09-.75-.75-.75-1.67,1.34-4,2.5-7,3.5s-4.17,2.84-3.5,5.5Zm.5-15.5c2-1.66,4.25-3,6.75-4s4.08-3.16,4.75-6.5c-2,1.34-4.25,3-6.75,5s-4.09,3.84-4.75,5.5Zm8.17,68.42c-.48-.49-.52-.99-.08-1.53-.63-.07-1.13-.19-1.48-.37-.36-.18-.86-.31-1.48-.37.33,1.04,1.37,1.79,3.04,2.27Zm-3.17-231.42c-1.67,2-1.83,2.92-.5,2.75,1.32-.17,1.5-1.08.5-2.75Zm9.5,25c-.34.34-.84.5-1.5.5h-1.5c-2.34,1.67-4.42,3.84-6.25,6.5-1.83,2.67-1.92,4.84-.25,6.5,3-3,6-5.92,9-8.75,3-2.83,6.33-5.41,10-7.75v-4.5c0-1.33-.34-2.66-1-4-1.67,1.34-3,3.09-4,5.25-1,2.17-2.5,4.25-4.5,6.25Zm-2.33,210.63c-.54-1.11-1.38-1.73-2.6-1.89.44.35.76.72.94,1.11.19.39.74.65,1.66.79Zm-4.17-92.63c.66.34,1.17.67,1.5,1s1,.5,2,.5c-.67-.66-.83-1.67-.5-3,.33-1.32-.17-2-1.5-2,0,1-.25,1.67-.75,2-.5.33-.75.84-.75,1.5Zm135-164.5c-.61-1.89-2.5-4.91-2.5-7.75s-.33-5.58-1-8.25c-.67-2.66-2-4.83-4-6.5-2-1.66-3.16-5.19-4-6-.99-.95-5-1.75-7-3.25s-4.48-2.8-7-3.25c-5.53-1-12.18-.33-18.5,1-6.33,1.33-12.84,1.84-19.5,1.5-8,3.67-15.17,8-21.5,13-6.33,5-12.34,10.34-18,16-1.67,4-2.83,8.25-3.5,12.75-.67,4.5-1.67,8.92-3,13.25,1.33,2.67,1.75,5.92,1.25,9.75-.5,3.84-.21,7.58.25,10.75,1.03,7.19,3.25,14.17,7.75,19.5,4.5,5.33,8.03,13.06,11.25,16.5,2.56,2.74,8.34,5.67,12,9,3.66,3.33,10.46,5.21,14,7.5,1.85,1.19,4.42,4.08,7.25,5.25,2.83,1.17,5.65,2.57,8.25,4.25,1.99,1.28,3.83,2.5,5.5,3.5,1.66,1,3.66,1.84,6,2.5,1.33,3,3.5,5.17,6.5,6.5,3,1.33,5,3.67,6,7,1.66.67,3.25,1.25,4.75,1.75s3.26,1.36,3.75,2.25c1.06,1.94,1.75,5.5,3.25,7.5s2.75,4.17,3.75,6.5c-1.34,4.67-.75,8.75,1.75,12.25s4.03,7.32,4.75,11.25c.91,4.94,1.17,10.09.5,15.25-.67,5.17-.59,11.99-2,16.75-.87,2.95-3.25,6.17-4.75,8.5-1.5,2.33-3.09,4.84-4.75,7.5v1.5c-2,3.67-4.45,6.03-7.52,7.27-3.07,1.24-6.2,3.27-9.37,5.89-1.67,0-3.36.25-5.06.73-1.7.49-3.4.89-5.09,1.2-8.73.62-16.22-.6-22.5-3.94-6.27-3.34-11.28-7.83-14.97-12.65-3.81-4.98-6.11-10.24-6.5-15.5-.56-7.57-.92-15.83-.75-24.5.17-8.66,2.44-23.63.25-27-.81-1.25-6.09-2-9.25-2s-6.25.33-9.25,1c-3,.67-6.17,1.25-9.5,1.75-3.34.5-6.84.25-10.5-.75-.67,8-.58,16.34.25,25,.83,8.67.75,17.84-.25,27.5-.34,2.67-.75,5.42-1.25,8.25-.5,2.84-.75,5.59-.75,8.25,0,1.34.08,2.84.25,4.5.17,1.67.19,3.4.12,5.01.54,2.91.97,4.99,1.25,6.51.28,1.52.74,2.89,1.37,4.13.31.75.47,1.47.46,2.17s.15,1.38.49,2.05c1.66,4.45,4.26,7.27,7.53,9.39,3.27,2.12,7.76,4.03,13.42,5.81,1.34.49,2.75.94,4.24,1.35s2.9.88,4.25,1.38c6.24,1.54,12.72,2.63,19.49,3.12,6.77.49,13.79,1.31,21.05,2.54,1.32.33,2.41.63,3.25.92.83.29,2.05.54,3.25.93.64.21,1.33.33,1.97.15.63-.18,1.28-.25,1.94-.21,1.31.09,2.4.34,3.25.76.84.41,1.84.73,2.76.73,1.51,0,3.17-.32,4.63-.58,1.46-.26,3.03-.22,4.7.12,3.18-1.98,6.89-3.49,11.06-4.55,4.16-1.05,8.11-2.43,11.83-4.08,2.69-1.2,5.09-2.55,7.15-4.08,2.06-1.53,5.77-2.84,7.21-4.28,1.56-1.56,3.13-5.6,5.07-7.9,1.93-2.3,3.97-5.01,5.6-8.07,1.87-3.53,3.37-7.5,4.66-11.32,1.29-3.81,3.33-7.72,4.25-11,1.92-6.84,2.25-16.58,3.75-24.75,1.5-8.16,2.73-16.38,3.25-24.25.44-6.54-.08-12.33-1.25-17-1.17-4.66-2.35-9.46-3.75-14-1.82-5.91-4.17-11.5-6.5-16.5-.67-1.66-1.25-3.17-1.75-4.5-.5-1.33-1.09-2.33-1.75-3-1.67-2.33-4-4.67-7-7-3-2.33-5.34-4.33-7-6-1-.66-1.84-1.5-2.5-2.5-.67-1-1.34-1.83-2-2.5-1.67-1.33-3.75-2.33-6.25-3-2.5-.67-5.19-1.63-7.75-3-2.31-1.23-4.5-2.83-6.5-4.5-2-1.66-4.08-2.98-6-4-2.31-1.23-4.75-2.25-7.25-2.75s-4.59-1.25-6.25-2.25c-1-.66-1.84-1.34-2.5-2s-1.34-1.16-2-1.5c-1.34-.66-2.67-1.25-4-1.75-1.33-.5-2.84-.41-4.5.25-.67-2-1.75-3.33-3.25-4-1.5-.67-2.92-1.5-4.25-2.5-.67-1-1.42-1.08-2.25-.25s-1.91.94-2.75.25c-.66-.54-.75-1.5-.25-2.5s.25-1.83-.75-2.5c-3-1.33-5.17-4-6.5-8-1.33-4-1.92-8.17-1.75-12.5.17-4.32,1.17-8.33,3-12,1.83-3.66,4.64-5.97,8.25-7,3.3-.94,6.34-.83,9,.5,2.66,1.33,5,3.17,7,5.5,2,2.33,3.5,5,4.5,8s1.66,5.67,2,8c7.33-1.66,14.33-3.33,21-5,6.66-1.67,14.33-2.66,23-3-.67-5.33-2.25-9.83-4.75-13.5-2.5-3.66-2.48-10.56-3.75-14.5Zm-121.5,59c0,1.34-.34,2.08-1,2.25-.67.17-1.17.59-1.5,1.25.33.67,1.42,0,3.25-2,1.83-2,3.58-3.16,5.25-3.5,0-1.66-.34-2.5-1-2.5-.34,1.34-1,2.25-2,2.75s-2,1.09-3,1.75Zm4.44,206.51c.98-.19,1.98.16,2.99,1.09,1.01.93,1.6,1.05,1.79.32-.9-.16-1.36-.67-1.34-1.5.02-.83-.4-1.29-1.3-1.44-.43.29-.87.53-1.32.72-.46.19-.73.46-.82.81Zm11.06-192.01c-.67,1.34-1.67,2.59-3,3.75-1.34,1.17-2.67,2.25-4,3.25-1.33,1-2.42,2.09-3.25,3.25-.83,1.17-1.25,2.59-1.25,4.25,2.66-2.66,5.25-5.08,7.75-7.25,2.5-2.16,5.08-4.41,7.75-6.75-.34-.33-1.67-.5-4-.5Zm-5.8,181.95c.2-.11-.15-.65-1.16-1s-1.64-.37-1.87-.06c.63.06,1.07.28,1.31.63.24.36,1.26.69,1.72.43Zm2.8-157.95c2,1.34,3.66,2,5,2,1-3.33,2.58-6,4.75-8,2.16-2,4.08-4.33,5.75-7-3.34,0-6.25,1.5-8.75,4.5s-4.75,5.84-6.75,8.5Zm22.49,170.45c-2.24.53-4.12,1.29-5.61,2.34-1.49,1.05-3.17,1.97-5.03,2.75,1.5.94,3.3,1.62,5.39,1.99-.23-1.91.3-3.29,1.53-4.29,1.23-.99,2.48-1.92,3.71-2.79Zm-10.49-163.45c1.33.67,2.42,1.34,3.25,2,.83.66,2.08,1.17,3.75,1.5-.34-1-.5-2.08-.5-3.25s-.17-2.25-.5-3.25c1.66-1.33,3.67-2.33,6-3,2.32-.67,3.83-2.16,4.5-4.5-1.8-1.2-2.7-1.8-4.5-3-1,3.34-2.84,5.75-5.5,7.25-2.67,1.5-4.84,3.59-6.5,6.25Zm25.14,165.67c-1.03.38-2.28,1.27-3.49,2.24-1.22.97-2.16,1.9-2.83,2.37-.83.59-1.9,1.08-2.73,1.54-.84.47-1.17,1.32-.95,2.63,1.39,0,2.75.22,4.05.69,1.3.47,2.7.84,4.21,1.09-.74-3.8.46-6.34,3.48-8.14,3.01-1.8,6.35-3.37,9.92-4.8-.93.13-2.06.01-3.37-.34-1.32-.35-2.27-.34-2.82.04.84,1.19.43,1.87-1.23,2.01-1.67.14-3.23.29-4.23.66Zm-13.64-159.17c1.33,0,2.34.34,3,1s1.5,1.17,2.5,1.5c0-1.33-.67-3-2-5,.33,1.34-.18,1.92-1.5,1.75-1.33-.17-2,.09-2,.75Zm10,7.5c1.33,1.67,2.75,1.33,4.25-1,1.5-2.33,3.08-4.33,4.75-6,1.33-.66,3-1.33,5-2,2-.67,2.16-1.66.5-3-3,1.34-5.5,3.25-7.5,5.75s-4.34,4.59-7,6.25Zm12.5,93c-1-.66-1.5-1.58-1.5-2.75s-.67-1.75-2-1.75c0,1-.43,1.42-1.25,1.25-.83-.17-1.09.42-.75,1.75,1.66,2,3.42,4,5.25,6,1.83,2,4.58,3.34,8.25,4,.66-.33.92-1,.75-2-.17-1,.25-1.33,1.25-1,5.33-1,9.66-3.33,13-7,3.33-3.66,6.83-6.83,10.5-9.5.66-.66,1.67-1.25,3-1.75,1.33-.5,2-1.25,2-2.25-6.34,2.67-12.5,5.42-18.5,8.25-6,2.83-12.67,5.09-20,6.75Zm-.12,70.9c2.88-.11,5.04-.34,6.44-.69-1.61-1.57-1.99-2.71-1.12-3.49.87-.78.79-1.48-.28-2.11-.65,1.16-1.53,2.19-2.64,3.06-1.11.88-1.92,1.94-2.41,3.23Zm3.12-160.4c.33-.66.75-1.08,1.25-1.25.5-.17.91-.58,1.25-1.25-.67-.33-1.42-.08-2.25.75s-.92,1.42-.25,1.75Zm.5,76c0-.66.33-1,1-1,1.33-.33,2.17-.25,2.5.25.33.5,1.16.75,2.5.75,6.66-3.33,13.5-6.33,20.5-9,7-2.67,13-6.33,18-11,.66-.66,1.34-.66,2,0s1.16.5,1.5-.5c-1-.33-1.17-1.5-.5-3.5.67-2,.16-2.83-1.5-2.5-2.67,2-5.34,3.92-8,5.75-2.67,1.83-5.43,3.91-8,5.25-2.08,1.09-4.5,1.83-6.5,2.5-2,.67-4.54,1.17-6.5,2-2.18.92-4.59,2.75-6.75,4.25-2.17,1.5-4.59,1.75-7.25.75-.67,1-1.5,2.09-2.5,3.25-1,1.17-1.17,2.09-.5,2.75Zm6-175c-1.67,2-3.09,3.92-4.25,5.75-1.17,1.84-1.75,4.42-1.75,7.75,2.33-1,4.08-2.41,5.25-4.25,1.16-1.83,2.58-3.75,4.25-5.75h2.5c0-1.66-.59-2.67-1.75-3-1.17-.33-2.59-.5-4.25-.5Zm21.5,103.5c-3.67,2.34-7,4.84-10,7.5-3,2.67-6.5,5.17-10.5,7.5,0,1-.08,2.09-.25,3.25-.17,1.17-.92,2.09-2.25,2.75,4.66-2.66,9.16-5.67,13.5-9,4.33-3.33,9.16-6.16,14.5-8.5-1-.33-1.67-1-2-2-.33-1-1.34-1.5-3-1.5Zm-16,30.5c-2.67,0-4.34.34-5,1,1,.67,1.25,2,.75,4s-.25,3.34.75,4c3.66-4.66,8.08-8.42,13.25-11.25,5.16-2.83,10.08-5.91,14.75-9.25-.34-1.66-.17-3,.5-4,.66-1,1.33-1.83,2-2.5-5.34,2.34-10.17,5.09-14.5,8.25-4.34,3.17-8.5,6.42-12.5,9.75Zm29.5-2.5c-5,3.34-10,6.67-15,10-5,3.33-9.84,6.84-14.5,10.5-1,.67-1.92.33-2.75-1-.83-1.33-1.42-1.16-1.75.5-.34,0-.42.93-.25,2.75.17,1.83.58,3.09,1.25,3.75,7.33-2.66,14.16-5.83,20.5-9.5,6.33-3.66,11.66-8.33,16-14-.67-.66-1-1.41-1-2.25s-.84-1.08-2.5-.75Zm-31.5-39.5c0-.66.5-.92,1.5-.75,1,.17,1.42-.77,1-1.25-.3-.34-1.17-.75-1.5-1.25-.33-.5-1.17-.58-2.5-.25.66,2.34,1.16,3.5,1.5,3.5Zm12.5-70c0-.66-.5-1.42-1.5-2.25-1-.83-1.84-1.25-2.5-1.25-1.67-.33-3.5,1-5.5,4s-3.34,5.5-4,7.5c1,.34,1.92.67,2.75,1,.83.33,1.91.67,3.25,1,.33-1.33,1.75-3,4.25-5s3.58-3.66,3.25-5Zm-12.22,225.9c.97.09,1.5-.03,1.61-.37.11-.34.45-.72,1.04-1.13-1.6.09-2.74-.13-3.45-.66.13.94.4,1.66.79,2.17Zm2.65,11.26c1.69.21,2.54.32,4.24.52-.18-.85-.96-1.61-2.33-2.31-.2.51-.52.81-.96.89-.44.08-.76.38-.95.9Zm14.85.07c2.18-.04,3.83-.57,4.96-1.55,1.12-.97,2.27-1.94,3.44-2.9-4.4.94-7.2,2.37-8.4,4.45Zm2.72-66.73c1.66-.66,3.42-1.75,5.25-3.25,1.83-1.5,2.41-3.08,1.75-4.75-1.34,1.34-2.5,2.67-3.5,4-1,1.33-2.17,2.5-3.5,3.5h-1v1c-.34,0-1,.5-2,1.5.66.34,1,.34,1,0s.33-.5,1-.5l1-.5v-1Zm12.5-172c0-.33.16-.66.5-1s.16-.66-.5-1c0,.67-.17,1.09-.5,1.25-.34.17-.17.42.5.75Zm8,8c-2,.67-3.59,1.75-4.75,3.25-1.17,1.5-2.42,2.92-3.75,4.25,1.33,0,2.5.17,3.5.5,1,.33,1.83.67,2.5,1,1.66-1.66,2.16-4,1.5-7,1.33-1,2.42-2.16,3.25-3.5.83-1.33,2.41-2,4.75-2,1.66-1.66,2.83-3.33,3.5-5,.67-1.66,1.83-3.33,3.5-5h-5c-.34,1.67-1.09,3.09-2.25,4.25s-1.42,2.59-.75,4.25c-1.67.34-2.92,1-3.75,2-.83,1-1.59,2-2.25,3Zm-6.5,141.5h1.5v-1.5h-1.5v1.5Z"/>
        <path d="m805.73,774.47c-2,1-3.59.91-4.75-.25s-3.09-1.58-5.75-1.25c.66,1.67,1.83,2.75,3.5,3.25,1.66.5,3.33,1.08,5,1.75,1.66.67,3.09,1.59,4.25,2.75s2.58,2.09,4.25,2.75c5.66,3.67,11,7.67,16,12,5,4.33,9.45,9.69,13.5,15,4.29,5.62,8.17,12,10.5,19,2.33,7,4.33,15.34,6,25,0,.67.17,1.42.5,2.25.33.83.81,1.84,1,2.75.67,3.19.17,7-.5,10-.67,3-1.43,6.06-2,9-.38,1.94-.25,4,.25,6s.14,4.17-.25,6c-.62,2.92-1.08,6.59-2.25,9.75-1.17,3.17-2.25,6.25-3.25,9.25.66,3.34.42,6.5-.75,9.5-1.17,3-2.19,6.51-3.22,9.43-1.38,3.91-3.26,7.3-4.92,9.85-1.66,2.55-3.67,3.97-6.07,5.12.1.44.49.65,1.18.7.68.05,1.08.26,1.21.55-2.23,1.13-5.55,2.07-10.14,3.27-4.59,1.2-8.06,2.58-10.25,4.49-.62.22-1.23.45-1.84.67-.62.23-1.56.53-2.84.91-2.01,1.76-3.95,3.69-5.91,5.61-1.96,1.92-5.02,4.35-9.25,7.36-1.23.8-2.41,1.78-3.52,2.99-1.12,1.21-2.51,2.23-4.19,2.96-.71.19-1.53.35-2.45.46-.92.11-1.76.57-2.33.84-.82.39-2.07.77-3.02,1.46-.95.69-1.95,1.43-2.91,1.9-1.87.92-4.49,1.51-7.26,1.94-2.77.43-5.45,1.07-7.82,2.05-1.72.7-3.34,1.64-4.83,2.67-1.48,1.03-3.16,1.65-4.41,2.11-1.3.48-2.76,1.02-4.09,1.02-1.34,0-2.74.18-4.19.53-3.27.8-6.53,1.65-9.78,2.57-3.24.92-6.45,1.64-9.32,1.85-1.81.13-3.86,0-5.93-.22-2.08-.22-4.43-.38-7.03-.51-1.12-.09-2.21.04-3.27.4-1.06.36-2.31.6-3.26.38-1.04-.24-2.21-.86-3.16-1.3-.95-.45-2.18-.83-3.66-1.19-.74-.17-1.73-.08-2.95.27-1.23.36-2.39.47-3.47.34-.36.06-.46-.08-.3-.4.15-.32-.14-.57-.87-.76-2.88-.14-6.11-.56-9.66-1.24-3.56-.68-6.4-1.63-8.52-2.8-.72-.48-1.53-1.38-2.43-2.65-.9-1.27-1.88-2.4-2.93-3.37-.35-.23-.61-.21-.77.07-.17.28-.25.16-.27-.38-.36-.5-1.06-1.31-2.1-2.42-1.04-1.11-1.9-1.9-2.58-2.39-.7-1-1.04-2.09-1.05-3.26-.01-1.17-.36-2.37-1.04-3.64-1.36-2.79-3.03-5.59-5.03-8.49-1.99-2.9-3.68-5.58-4.46-7.73-.75-2.05-.89-4.17-.72-5.77.18-1.59.17-3.67-.21-6.04-.52-3.29-1.45-6.61-2.44-9.62-.98-3.01-1.82-7.04-1.98-11.56-.09-2.57.08-5.67.25-9,.17-3.32.59-6.31.75-8.5.11-1.54.25-4.16.75-7.5.5-3.33.41-6.65.25-9.5-.1-1.89-.25-4.25-.75-6.75s-.78-6.16.25-8.75c.95-2.4,3.75-4.83,6.25-6.5,2.5-1.66,4.58-3.83,6.25-6.5,1.33-1.66,2.83-4.16,4.5-7.5,1.66-3.33,3.94-5.45,6.5-6.5,2.95-1.2,6.58-1.5,10.75-.5,4.16,1,7.9,1.16,10.75,1,2.83-.16,6.25-.42,9.75-1.25,3.5-.83,7.61-1.11,12.25-.75,3.97.31,7.33.83,10,1.5,2.66.67,5.33,1.67,8,3,.33,3.34,1.5,6.17,3.5,8.5-1,7.67-1.17,15.18-.5,22.5.67,7.33,1.33,15.17,2,23.5,6.33-4.66,9.26-13.11,8.5-25-.29-4.63-.42-9.17-.25-13.5.17-4.32-.71-8.92-2.75-13.5-1.91-4.29-4.67-7.92-8-10.75-3.33-2.83-5.84-6.08-7.5-9.75-8.34-3.66-16.25-7.67-23.75-12-7.5-4.33-13.59-10.16-18.25-17.5-3,0-5.47-.34-6-1-.8-.98-1-2.66-1-3s-.17-1.16-.5-2.5c-2-2.33-4.25-4.83-6.75-7.5-2.5-2.66-4.82-5.34-6.75-8-2.35-3.24-3.84-7.75-5-12.5-.55-2.26-1.08-4.17-1.25-5.5-.17-1.32.08-3.33.75-6,0-1.66-.08-4.33-.25-8-.17-3.66-.59-6.83-1.25-9.5,1.33-3,2.17-5.92,2.5-8.75.33-2.82.83-6.08,1.5-9.75,2.66-3,5-6.17,7-9.5,2-3.33,4.16-6.5,6.5-9.5,4.66-3.66,9.16-7,13.5-10,.66-.66,1.25-1.33,1.75-2,.5-.66,1.08-1.16,1.75-1.5,3-2,6.25-3.67,9.75-5,3.5-1.33,6.41-3.5,8.75-6.5,4-.66,7.41-2.08,10.25-4.25,2.83-2.16,6.41-3.58,10.75-4.25,1.33.67,1.83.42,1.5-.75-.33-1.16.13-1.39,1-1.25,1.94.31,4.33-.5,6-1.5,1.66-.33,2.75.09,3.25,1.25.5,1.17,1.58,1.75,3.25,1.75,5.66-.66,11.66-1.5,18-2.5,6.33-1,12.66-.66,19,1,2.66.67,4.84,1.84,6.5,3.5s3.83,2.67,6.5,3c2.33,2.67,5.17,5.59,8.5,8.75,3.33,3.16,6.04,7.1,8,11.75,1.68,3.97,2.75,8.67,3.25,14,.5,5.34,1.58,10.34,3.25,15,.66,3,2,6.09,4,9.25,2,3.17,3.16,6.26,3,8.75-.16,2.52-1.25,4.92-2.75,6.75-1.5,1.83-2.09,3.92-1.75,6.25-4,3.67-7.25,8.09-9.75,13.25-2.5,5.17-5.59,9.92-9.25,14.25Zm-143,146.5c-.67.67-1.59,1-2.75,1s-1.59.84-1.25,2.5c1.66,0,2.92-.58,3.75-1.75.83-1.16,1.94-2.37,3.25-3.25,1.53-1.03,3.17-1.75,4.5-2.25,1.33-.5,2.66-1.06,3.5-1.75.66-.54,1.5-1.58,2.5-2.75,1-1.16,1-2.25,0-3.25-2,2.34-4.34,4.17-7,5.5-2.67,1.33-4.84,3.34-6.5,6Zm-4-11.5c1.33.67,2,.5,2-.5s.33-1.66,1-2c-1.34,0-2.34-.33-3-1v3.5Zm2.91,28.38c1.01-.92,2.59-1.85,4.77-2.8,2.17-.94,3.77-2.07,4.78-3.41.33-.33.84-1,1.52-2.02.67-1.02.51-1.55-.49-1.56-1.69,2.09-3.7,3.58-6.04,4.55-2.34.98-3.86,2.76-4.54,5.24Zm.95,7.63c1.32.59,1.49,1.51.48,2.78-1.01,1.26-.68,2.17.99,2.71,4.35-3.86,9.38-6.75,15.07-8.52-.33-.58-.33-1.47.01-2.68.34-1.2-.16-1.67-1.5-1.37-1.35,2.46-3.62,4.36-6.8,5.8-3.19,1.45-5.94,1.87-8.26,1.28Zm4.64-41.51c1.66-1,3.25-2.33,4.75-4,1.5-1.66,3.75-2.5,6.75-2.5-.34-.66-.42-1.25-.25-1.75.17-.5-.09-.75-.75-.75-1.67,1.34-4,2.5-7,3.5s-4.17,2.84-3.5,5.5Zm.5-15.5c2-1.66,4.25-3,6.75-4s4.08-3.16,4.75-6.5c-2,1.34-4.25,3-6.75,5s-4.09,3.84-4.75,5.5Zm5.93,78.61c-.35-.73-.2-1.62.47-2.66-.68.03-1.19-.07-1.52-.31-.33-.23-.85-.34-1.52-.31.01,1.78.86,2.87,2.56,3.28Zm-.93-241.61c-1.67,2-1.83,2.92-.5,2.75,1.32-.17,1.5-1.08.5-2.75Zm9.5,25c-.34.34-.84.5-1.5.5h-1.5c-2.34,1.67-4.42,3.84-6.25,6.5-1.83,2.67-1.92,4.84-.25,6.5,3-3,6-5.92,9-8.75,3-2.83,6.33-5.41,10-7.75v-4.5c0-1.33-.34-2.66-1-4-1.67,1.34-3,3.09-4,5.25-1,2.17-2.5,4.25-4.5,6.25Zm-5.9,222.85c-.05-1.77-.75-2.6-2.1-2.5.34.49.53,1.04.54,1.67.01.64.53.91,1.55.83Zm-.6-104.85c.66.34,1.17.67,1.5,1s1,.5,2,.5c-.67-.66-.83-1.67-.5-3,.33-1.32-.17-2-1.5-2,0,1-.25,1.67-.75,2-.5.33-.75.84-.75,1.5Zm135-164.5c-.61-1.89-2.5-4.91-2.5-7.75s-.33-5.58-1-8.25c-.67-2.66-2-4.83-4-6.5-2-1.66-3.16-5.19-4-6-.99-.95-5-1.75-7-3.25s-4.48-2.8-7-3.25c-5.53-1-12.18-.33-18.5,1-6.33,1.33-12.84,1.84-19.5,1.5-8,3.67-15.17,8-21.5,13-6.33,5-12.34,10.34-18,16-1.67,4-2.83,8.25-3.5,12.75-.67,4.5-1.67,8.92-3,13.25,1.33,2.67,1.75,5.92,1.25,9.75-.5,3.84-.21,7.58.25,10.75,1.03,7.19,3.25,14.17,7.75,19.5,4.5,5.33,8.03,13.06,11.25,16.5,2.56,2.74,8.34,5.67,12,9,3.66,3.33,10.46,5.21,14,7.5,1.85,1.19,4.42,4.08,7.25,5.25,2.83,1.17,5.65,2.57,8.25,4.25,1.99,1.28,3.83,2.5,5.5,3.5,1.66,1,3.66,1.84,6,2.5,1.33,3,3.5,5.17,6.5,6.5,3,1.33,5,3.67,6,7,1.66.67,3.25,1.25,4.75,1.75s3.26,1.36,3.75,2.25c1.06,1.94,1.75,5.5,3.25,7.5s2.75,4.17,3.75,6.5c-1.34,4.67-.75,8.75,1.75,12.25s4.03,7.32,4.75,11.25c.91,4.94,1.17,10.09.5,15.25-.67,5.17-.59,11.99-2,16.75-.87,2.95-3.25,6.17-4.75,8.5-1.5,2.33-3.09,4.84-4.75,7.5v1.5c-2,3.67-4.53,6.05-7.49,7.27-2.96,1.21-5.89,3.17-8.8,5.56-1.67.01-3.33.25-4.98.7-1.66.46-3.31.84-4.97,1.14-8.67.67-16.33-.28-22.92-3.54-6.58-3.26-11.65-7.81-15.34-12.63-3.81-4.98-6.11-10.24-6.5-15.5-.56-7.57-.92-15.83-.75-24.5.17-8.66,2.44-23.63.25-27-.81-1.25-6.09-2-9.25-2s-6.25.33-9.25,1c-3,.67-6.17,1.25-9.5,1.75-3.34.5-6.84.25-10.5-.75-.67,8-.58,16.34.25,25,.83,8.67.75,17.84-.25,27.5-.34,2.67-.75,5.42-1.25,8.25-.5,2.84-.75,5.59-.75,8.25,0,1.34.08,2.84.25,4.5.17,1.67.24,3.46.24,5.18.65,3.1,1.15,5.43,1.47,7.14.33,1.71.82,3.3,1.49,4.75.33.87.5,1.73.5,2.58s.17,1.67.51,2.48c1.69,5.42,4.18,8.97,7.46,11.25,3.27,2.28,7.85,3.91,13.76,4.84,1.39.3,2.87.52,4.44.67,1.57.15,3.05.35,4.46.6,6.61.27,13.58-.25,20.8-1.36,7.23-1.11,14.66-1.97,22.32-2.72,1.4-.07,2.56-.1,3.45-.09.89,0,2.12-.11,3.46-.12.68,0,1.41-.09,2.06-.35.65-.26,1.31-.44,2-.56,1.37-.23,2.51-.32,3.43-.27.91.05,1.94.02,2.91-.2,1.62-.36,3.24-.89,4.71-1.34s3.07-.76,4.82-.94c3.01-1.64,6.55-2.95,10.57-4.05,4.01-1.1,7.72-2.17,11.16-3.2,2.49-.75,4.65-1.45,6.48-2.16,1.82-.71,4.92-1.13,6.53-2.11.98-.6,2.48-2.43,4.17-3.67,1.69-1.23,3.47-2.8,4.86-4.93,1.57-2.4,2.85-5.69,3.94-9.39,1.08-3.69,3.33-7.71,4.25-11,1.92-6.84,2.25-16.58,3.75-24.75,1.5-8.16,2.73-16.38,3.25-24.25.44-6.54-.08-12.33-1.25-17-1.17-4.66-2.35-9.46-3.75-14-1.82-5.91-4.17-11.5-6.5-16.5-.67-1.66-1.25-3.17-1.75-4.5-.5-1.33-1.09-2.33-1.75-3-1.67-2.33-4-4.67-7-7-3-2.33-5.34-4.33-7-6-1-.66-1.84-1.5-2.5-2.5-.67-1-1.34-1.83-2-2.5-1.67-1.33-3.75-2.33-6.25-3-2.5-.67-5.19-1.63-7.75-3-2.31-1.23-4.5-2.83-6.5-4.5-2-1.66-4.08-2.98-6-4-2.31-1.23-4.75-2.25-7.25-2.75s-4.59-1.25-6.25-2.25c-1-.66-1.84-1.34-2.5-2s-1.34-1.16-2-1.5c-1.34-.66-2.67-1.25-4-1.75-1.33-.5-2.84-.41-4.5.25-.67-2-1.75-3.33-3.25-4-1.5-.67-2.92-1.5-4.25-2.5-.67-1-1.42-1.08-2.25-.25s-1.91.94-2.75.25c-.66-.54-.75-1.5-.25-2.5s.25-1.83-.75-2.5c-3-1.33-5.17-4-6.5-8-1.33-4-1.92-8.17-1.75-12.5.17-4.32,1.17-8.33,3-12,1.83-3.66,4.64-5.97,8.25-7,3.3-.94,6.34-.83,9,.5,2.66,1.33,5,3.17,7,5.5,2,2.33,3.5,5,4.5,8s1.66,5.67,2,8c7.33-1.66,14.33-3.33,21-5,6.66-1.67,14.33-2.66,23-3-.67-5.33-2.25-9.83-4.75-13.5-2.5-3.66-2.48-10.56-3.75-14.5Zm-121.5,59c0,1.34-.34,2.08-1,2.25-.67.17-1.17.59-1.5,1.25.33.67,1.42,0,3.25-2,1.83-2,3.58-3.16,5.25-3.5,0-1.66-.34-2.5-1-2.5-.34,1.34-1,2.25-2,2.75s-2,1.09-3,1.75Zm-.66,218.79c1.35-.71,2.41-.58,3.18.38.76.96,1.46.87,2.09-.29-1.05.15-1.35-.42-.9-1.66.45-1.24.15-1.76-.89-1.63-.67.6-1.33,1.14-2,1.61-.67.48-1.17,1.01-1.48,1.58Zm16.16-204.29c-.67,1.34-1.67,2.59-3,3.75-1.34,1.17-2.67,2.25-4,3.25-1.33,1-2.42,2.09-3.25,3.25-.83,1.17-1.25,2.59-1.25,4.25,2.66-2.66,5.25-5.08,7.75-7.25,2.5-2.16,5.08-4.41,7.75-6.75-.34-.33-1.67-.5-4-.5Zm-6.09,187.78c.31-.23-.03-.85-1.07-1.11-1.04-.26-1.72-.15-2.04.34.68-.05,1.12.15,1.3.59.19.44,1.25.61,1.81.19Zm3.09-163.78c2,1.34,3.66,2,5,2,1-3.33,2.58-6,4.75-8,2.16-2,4.08-4.33,5.75-7-3.34,0-6.25,1.5-8.75,4.5s-4.75,5.84-6.75,8.5Zm22.7,171.91c-2.69,1.37-5.09,2.95-7.21,4.81-2.12,1.86-4.52,3.74-7.2,5.58,1.5.56,3.5.62,5.99.16.44-2.3,1.57-4.24,3.34-5.92,1.77-1.68,3.46-3.21,5.07-4.63Zm-10.7-164.91c1.33.67,2.42,1.34,3.25,2,.83.66,2.08,1.17,3.75,1.5-.34-1-.5-2.08-.5-3.25s-.17-2.25-.5-3.25c1.66-1.33,3.67-2.33,6-3,2.32-.67,3.83-2.16,4.5-4.5-1.8-1.2-2.7-1.8-4.5-3-1,3.34-2.84,5.75-5.5,7.25-2.67,1.5-4.84,3.59-6.5,6.25Zm27.03,162.33c-1.27.75-2.73,2.03-4.31,3.49-1.58,1.47-2.84,2.81-3.79,3.64-1.16,1.02-2.53,1.98-3.67,2.87-1.15.9-1.81,2.04-1.95,3.5,1.75-.64,3.36-.98,4.83-1.01,1.47-.03,3.11-.24,4.9-.64.05-3.96,1.99-7.19,5.67-10.04,3.67-2.84,7.46-5.29,11.34-7.46-1.01.36-2.23.58-3.65.65-1.42.06-2.45.33-3.08.83.86.81.37,1.54-1.49,2.19-1.87.65-3.6,1.28-4.8,1.99Zm-15.53-155.83c1.33,0,2.34.34,3,1s1.5,1.17,2.5,1.5c0-1.33-.67-3-2-5,.33,1.34-.18,1.92-1.5,1.75-1.33-.17-2,.09-2,.75Zm10,7.5c1.33,1.67,2.75,1.33,4.25-1,1.5-2.33,3.08-4.33,4.75-6,1.33-.66,3-1.33,5-2,2-.67,2.16-1.66.5-3-3,1.34-5.5,3.25-7.5,5.75s-4.34,4.59-7,6.25Zm12.5,93c-1-.66-1.5-1.58-1.5-2.75s-.67-1.75-2-1.75c0,1-.43,1.42-1.25,1.25-.83-.17-1.09.42-.75,1.75,1.66,2,3.42,4,5.25,6,1.83,2,4.58,3.34,8.25,4,.66-.33.92-1,.75-2-.17-1,.25-1.33,1.25-1,5.33-1,9.66-3.33,13-7,3.33-3.66,6.83-6.83,10.5-9.5.66-.66,1.67-1.25,3-1.75,1.33-.5,2-1.25,2-2.25-6.34,2.67-12.5,5.42-18.5,8.25-6,2.83-12.67,5.09-20,6.75Zm1.4,64.38c3.47-1.35,6.03-2.49,7.7-3.4-1.71-.88-2.01-1.85-.95-2.92,1.06-1.06,1.01-1.66-.14-1.85-.82,1.29-1.92,2.6-3.31,3.9-1.39,1.3-2.5,2.72-3.3,4.28Zm1.6-153.88c.33-.66.75-1.08,1.25-1.25.5-.17.91-.58,1.25-1.25-.67-.33-1.42-.08-2.25.75s-.92,1.42-.25,1.75Zm.5,76c0-.66.33-1,1-1,1.33-.33,2.17-.25,2.5.25.33.5,1.16.75,2.5.75,6.66-3.33,13.5-6.33,20.5-9,7-2.67,13-6.33,18-11,.66-.66,1.34-.66,2,0s1.16.5,1.5-.5c-1-.33-1.17-1.5-.5-3.5.67-2,.16-2.83-1.5-2.5-2.67,2-5.34,3.92-8,5.75-2.67,1.83-5.43,3.91-8,5.25-2.08,1.09-4.5,1.83-6.5,2.5-2,.67-4.54,1.17-6.5,2-2.18.92-4.59,2.75-6.75,4.25-2.17,1.5-4.59,1.75-7.25.75-.67,1-1.5,2.09-2.5,3.25-1,1.17-1.17,2.09-.5,2.75Zm6-175c-1.67,2-3.09,3.92-4.25,5.75-1.17,1.84-1.75,4.42-1.75,7.75,2.33-1,4.08-2.41,5.25-4.25,1.16-1.83,2.58-3.75,4.25-5.75h2.5c0-1.66-.59-2.67-1.75-3-1.17-.33-2.59-.5-4.25-.5Zm21.5,103.5c-3.67,2.34-7,4.84-10,7.5-3,2.67-6.5,5.17-10.5,7.5,0,1-.08,2.09-.25,3.25-.17,1.17-.92,2.09-2.25,2.75,4.66-2.66,9.16-5.67,13.5-9,4.33-3.33,9.16-6.16,14.5-8.5-1-.33-1.67-1-2-2-.33-1-1.34-1.5-3-1.5Zm-16,30.5c-2.67,0-4.34.34-5,1,1,.67,1.25,2,.75,4s-.25,3.34.75,4c3.66-4.66,8.08-8.42,13.25-11.25,5.16-2.83,10.08-5.91,14.75-9.25-.34-1.66-.17-3,.5-4,.66-1,1.33-1.83,2-2.5-5.34,2.34-10.17,5.09-14.5,8.25-4.34,3.17-8.5,6.42-12.5,9.75Zm29.5-2.5c-5,3.34-10,6.67-15,10-5,3.33-9.84,6.84-14.5,10.5-1,.67-1.92.33-2.75-1-.83-1.33-1.42-1.16-1.75.5-.34,0-.42.93-.25,2.75.17,1.83.58,3.09,1.25,3.75,7.33-2.66,14.16-5.83,20.5-9.5,6.33-3.66,11.66-8.33,16-14-.67-.66-1-1.41-1-2.25s-.84-1.08-2.5-.75Zm-31.5-39.5c0-.66.5-.92,1.5-.75,1,.17,1.42-.77,1-1.25-.3-.34-1.17-.75-1.5-1.25-.33-.5-1.17-.58-2.5-.25.66,2.34,1.16,3.5,1.5,3.5Zm12.5-70c0-.66-.5-1.42-1.5-2.25-1-.83-1.84-1.25-2.5-1.25-1.67-.33-3.5,1-5.5,4s-3.34,5.5-4,7.5c1,.34,1.92.67,2.75,1,.83.33,1.91.67,3.25,1,.33-1.33,1.75-3,4.25-5s3.58-3.66,3.25-5Zm-8.16,215.68c1.04-.21,1.62-.45,1.73-.74.11-.28.46-.65,1.08-1.1-1.69.49-2.92.64-3.69.44.16.65.46,1.13.89,1.4Zm2.77,8.41c1.91-.46,2.87-.7,4.77-1.17-.19-.67-1.05-1.03-2.57-1.13-.24.51-.6.89-1.1,1.13-.5.24-.87.62-1.1,1.16Zm16.51-5.44c2.38-.8,4.13-1.78,5.26-2.84,1.12-1.06,2.26-2.06,3.39-3.01-4.52,1.91-7.43,3.82-8.65,5.85Zm-3.12-48.16c1.66-.66,3.42-1.75,5.25-3.25,1.83-1.5,2.41-3.08,1.75-4.75-1.34,1.34-2.5,2.67-3.5,4-1,1.33-2.17,2.5-3.5,3.5h-1v1c-.34,0-1,.5-2,1.5.66.34,1,.34,1,0s.33-.5,1-.5l1-.5v-1Zm12.5-172c0-.33.16-.66.5-1s.16-.66-.5-1c0,.67-.17,1.09-.5,1.25-.34.17-.17.42.5.75Zm8,8c-2,.67-3.59,1.75-4.75,3.25-1.17,1.5-2.42,2.92-3.75,4.25,1.33,0,2.5.17,3.5.5,1,.33,1.83.67,2.5,1,1.66-1.66,2.16-4,1.5-7,1.33-1,2.42-2.16,3.25-3.5.83-1.33,2.41-2,4.75-2,1.66-1.66,2.83-3.33,3.5-5,.67-1.66,1.83-3.33,3.5-5h-5c-.34,1.67-1.09,3.09-2.25,4.25s-1.42,2.59-.75,4.25c-1.67.34-2.92,1-3.75,2-.83,1-1.59,2-2.25,3Zm-6.5,141.5h1.5v-1.5h-1.5v1.5Z"/>
      </g>
    </g>
  </g>
</svg>