<svg xmlns="http://www.w3.org/2000/svg" width="2789" height="592"><path d="M51 57.425c0 .234 57.834 54.543 128.521 120.688 70.686 66.144 128.399 120.56 128.25 120.923-.149.363-56.633 53.394-125.521 117.846C113.363 481.335 57 534.503 57 535.034c0 .619 69.852.878 194.25.722 180.051-.226 185.655-.281 76.671-.75l-117.58-.506 33.94-31.75 33.94-31.75 83.64-.241 83.639-.242-82.73-.508-82.73-.509 90.608-84.766c78.728-73.652 90.82-84.601 92.23-83.5 1.452 1.133 1.474 1.078.208-.534-1.273-1.621-.927-2.314 3.5-7l4.914-5.2-5 4.68-5 4.68-93.675-87.68-93.676-87.68 85.676-.508 85.675-.509-86.612-.241-86.612-.242-34.152-32-34.152-32h-76.486C85.419 57 51 57.191 51 57.425" fill="#11a5e0" fill-rule="evenodd"/><path d="M238.124 89l34.152 32H445V57H203.972l34.152 32M591 177.376c-70.675 66.171-128.5 120.797-128.5 121.392 0 .595 56.475 53.968 125.5 118.607L713.5 534.9l47.5.005 47.5.004-5.119-4.704c-46.035-42.312-246.376-230.899-246.167-231.725.157-.622 57.661-54.803 127.786-120.403 70.125-65.6 127.65-119.679 127.833-120.175.196-.528-19.067-.888-46.5-.869l-46.833.033L591 177.376m1633.672-32.992c-6.97 1.944-12.498 6.287-16.055 12.614-2.708 4.819-3.086 6.427-3.049 13 .033 6.115.533 8.454 2.702 12.651 10.25 19.833 39.649 18.544 48.281-2.117 1.905-4.559 1.863-16.296-.074-20.932-2.151-5.148-8.272-11.608-12.977-13.694-5.656-2.509-13.123-3.112-18.828-1.522M978 299.5V428h142v-34h-100v-79h88v-34h-88v-76h100v-34H978v128.5m181.209-126.268c12.042 18.67 78.121 125.566 78.122 126.378.002.982-9.866 17.003-65.694 106.658l-13.555 21.768 23.56-.268 23.56-.268 26.649-45.668c14.657-25.117 26.911-45.929 27.231-46.248.32-.32 13.595 20.338 29.5 45.906l28.918 46.488 23.357.011c18.286.009 23.25-.26 22.863-1.239-.271-.687-18.099-29.509-39.617-64.047-34.006-54.584-38.981-63.063-38.036-64.829.868-1.621 58.602-94.425 75.042-120.624l3.922-6.25h-46.809l-26.948 46.25c-14.821 25.438-27.359 46.24-27.861 46.228-.502-.012-13.778-20.712-29.502-46l-28.589-45.978-23.788-.268-23.788-.269 1.463 2.269M1595 299.5V428H1635.983l.259-56.25.258-56.25 42.75-.261 42.75-.26V281h-86.024l.262-37.75.262-37.75 54.75-.259 54.75-.258V171h-151v128.5m471.25-77.503c-15.494 2.186-29.426 7.76-40.75 16.303-7.19 5.424-12.282 11.902-16.715 21.263-3.227 6.814-3.285 7.186-3.285 20.937v14l3.763 7.881c5.331 11.165 13.351 18.821 26.734 25.521 10.35 5.181 20.667 8.685 47.503 16.131 23.683 6.571 33.829 12.08 37.62 20.426 3.509 7.723 1.811 14.973-5.068 21.648-10.79 10.468-34.612 12.991-51.456 5.45-9.739-4.361-19.596-16.057-19.596-23.253V366h-44.024l.612 4.25c2.396 16.647 10.487 30.664 23.919 41.434 15.868 12.724 36.835 19.316 61.434 19.316 25.432 0 46.61-7.491 60.647-21.451 9.02-8.971 13.92-18.453 15.617-30.218 3.361-23.298-7.555-43.497-29.733-55.019-10.992-5.71-15.885-7.478-39.729-14.358-23.886-6.891-29.361-8.895-36.142-13.225-16.905-10.795-13.082-32.282 6.813-38.283 12.096-3.649 28.579-2.591 38.357 2.462 7.896 4.08 16.152 15.462 16.207 22.342L2119 286h42v-3.34c0-5.725-3.778-18.446-7.689-25.888-8.714-16.583-24.733-28.099-46.311-33.294-7.712-1.857-31.864-2.734-40.75-1.481m317.705.102c-7.98 1.033-21.706 4.931-29.51 8.383-14.61 6.461-31.255 20.446-40.011 33.618-11.452 17.225-16.388 33.624-17.169 57.04-1.12 33.542 7.43 58.64 27.083 79.505 12.565 13.34 27.345 21.99 46.161 27.017 8.872 2.37 11.894 2.678 26.991 2.754 12.889.064 19.055-.355 25.5-1.73 32.414-6.919 60.184-29.319 72.451-58.438 11.024-26.171 11.384-60.518.911-87.101-12.885-32.708-41.876-55.162-78.362-60.695-10.282-1.559-23.648-1.697-34.045-.353m251.545.314c-8.54 1.676-15.239 3.937-22.507 7.597-6.534 3.291-17.146 11.098-19.979 14.699L2591 247.27V224h-42v204h42v-62.84c0-59.335.11-63.271 1.978-70.575 4.55-17.791 14.562-28.982 31.022-34.679 8.942-3.095 26.54-3.174 35.748-.161 16.264 5.321 26.368 16.578 31.506 35.101 2.038 7.35 2.138 10.15 2.507 70.404l.385 62.75H2735v-63.276c0-76.534-.478-81.868-8.988-100.224-9.495-20.483-26.764-34.622-49.512-40.539-10.403-2.705-31.116-3.487-41-1.548M1769 290.89c0 56.582.242 68.163 1.569 75.16 6.973 36.757 32.636 59.892 71.045 64.045 25.264 2.732 47.967-4.245 64.467-19.811l6.919-6.526V428h42V224h-41.904l-.356 63.75c-.322 57.638-.527 64.325-2.141 69.75-7.208 24.226-23.49 36.535-48.599 36.738-10.771.087-19.69-1.856-27.144-5.913-6.808-3.705-15.367-13.04-18.831-20.537-5.796-12.545-6.025-15.694-6.025-82.746V224h-41v66.89M2211 326v102h41V224h-41v102m178.757-67.966c-14.588 2.456-28.113 10.343-36.213 21.119-6.121 8.142-7.934 11.797-11.18 22.525-2.364 7.813-2.675 10.537-2.725 23.822-.066 17.414 1.318 24.317 7.458 37.195 14.113 29.602 48.662 40.555 79.681 25.262 15.057-7.424 25.634-20.555 31.38-38.957 2.033-6.512 2.342-9.543 2.339-23-.003-17.417-1.794-26.055-7.769-37.465-4.772-9.113-16.487-20.412-25.728-24.815-12.062-5.748-25.076-7.735-37.243-5.686M1383 294.5V312h152v-35h-152v17.5M244.354 502.638c-18.62 17.4-34.041 31.8-34.271 32-.229.199 52.534.362 117.25.362H445v-64H278.208l-33.854 31.638" fill="#686868" fill-rule="evenodd"/></svg>