<svg width="1672" height="426" xmlns="http://www.w3.org/2000/svg" xmlns:xlink="http://www.w3.org/1999/xlink" xml:space="preserve" overflow="hidden"><defs><clipPath id="clip0"><rect x="1363" y="1017" width="1672" height="426"/></clipPath></defs><g clip-path="url(#clip0)" transform="translate(-1363 -1017)"><path d="M1463.16 1017 1463.16 1061.24 1427.84 1061.24 1427.84 1017 1363 1017 1363 1135 1427.84 1135 1427.84 1090.8 1463.16 1090.8 1463.16 1135 1528 1135 1528 1017 1463.16 1017Z" fill="#CC0000" fill-rule="evenodd"/><path d="M1666.32 1135 1731 1135 1688.21 1017 1579.79 1017 1537 1135 1601.64 1135 1606.98 1120.23 1660.92 1120.23 1666.27 1135ZM1617.73 1090.77 1634 1045.86 1650.27 1090.77 1617.73 1090.77Z" fill="#CC0000" fill-rule="evenodd"/><path d="M2084.3 1135 2149 1135 2106.2 1017 1997.8 1017 1955 1135 2019.7 1135 2025.05 1120.23 2079 1120.23 2084.35 1135ZM2035.65 1090.77 2051.98 1045.86 2068.25 1090.77 2035.65 1090.77Z" fill="#CC0000" fill-rule="evenodd"/><path d="M2502.36 1135 2567 1135 2524.21 1017 2415.83 1017 2373 1135 2437.64 1135 2442.98 1120.23 2496.92 1120.23 2502.32 1135ZM2453.73 1090.77 2470 1045.86 2486.32 1090.77 2453.77 1090.77Z" fill="#CC0000" fill-rule="evenodd"/><path d="M2691 1017 2544 1017 2544 1046.5 2585.16 1046.5 2585.16 1135 2649.88 1135 2649.88 1046.5 2691 1046.5 2691 1017Z" fill="#CC0000" fill-rule="evenodd"/><path d="M1873.79 1017 1843.07 1083 1812.35 1017 1740 1017 1740 1135 1804.79 1135 1804.79 1084.56 1828.28 1135 1857.86 1135 1881.26 1084.74 1881.26 1135 1946 1135 1946 1017 1873.79 1017Z" fill="#CC0000" fill-rule="evenodd"/><path d="M2291.79 1017 2261.07 1083 2230.34 1017 2158 1017 2158 1135 2222.79 1135 2222.79 1084.56 2246.28 1135 2275.86 1135 2299.26 1084.74 2299.26 1135 2364 1135 2364 1017 2291.79 1017Z" fill="#CC0000" fill-rule="evenodd"/><path d="M2826.6 1058.29 2773.39 1058.29C2765.37 1058.29 2761.8 1054.35 2761.8 1049.53 2761.8 1044.71 2765.42 1040.77 2773.43 1040.77 2781.45 1040.77 2785.06 1044.67 2785.11 1049.44L2856 1049.44C2856 1028.56 2844.32 1017 2820.69 1017L2738.22 1017C2708.77 1017 2697 1037.6 2697 1055.31 2697 1073.02 2705.84 1093.71 2732.35 1093.71L2779.2 1093.71C2787.26 1093.71 2790.83 1097.61 2790.83 1102.47 2790.83 1107.34 2787.22 1111.19 2779.2 1111.19 2771.19 1111.19 2767.62 1107.34 2767.57 1102.56L2697.05 1102.56C2697.05 1123.21 2708.86 1135 2732.4 1135L2820.78 1135C2856.69 1135 2862 1114.58 2862 1096.78L2862 1096.69C2862 1078.98 2856.09 1058.34 2826.65 1058.34Z" fill="#CC0000" fill-rule="evenodd"/><path d="M2970.21 1017 2970.21 1093.71 2970.21 1093.71C2970.21 1103.48 2962.28 1111.37 2952.52 1111.37 2942.76 1111.37 2934.79 1103.44 2934.79 1093.71L2934.79 1093.71 2934.79 1017 2870 1017 2870 1093.71C2870 1123.16 2899.46 1135 2934.79 1135 2942.9 1135 2932.77 1135 2970.21 1135 3005.54 1135 3035 1123.16 3035 1093.71L3035 1017 2970.21 1017Z" fill="#CC0000" fill-rule="evenodd"/><path d="M1363 1207.93 1376.46 1207.93C1386.99 1207.93 1395.73 1211.65 1395.73 1223.51 1395.73 1235.37 1386.85 1239.23 1377.56 1239.23L1370.37 1239.23 1370.37 1260.07 1363 1260.07 1363 1207.93ZM1370.37 1232.63 1377.65 1232.63C1382.18 1232.63 1387.95 1230.3 1387.95 1223.42 1387.95 1216.53 1381.17 1214.44 1376.6 1214.44L1370.32 1214.44 1370.32 1232.63ZM1441.83 1260.07 1449.2 1260.07 1449.2 1236.3 1473.79 1236.3 1473.79 1260.07 1481.11 1260.07 1481.11 1207.93 1473.79 1207.93 1473.79 1229.74 1449.2 1229.74 1449.2 1207.93 1441.83 1207.93 1441.83 1260.07ZM1553.86 1207C1569.47 1207 1578.58 1218.53 1578.58 1233.98 1578.58 1249.42 1569.51 1260.95 1553.86 1260.95 1538.2 1260.95 1529.13 1249.84 1529.13 1233.98 1529.13 1218.12 1538.24 1207 1553.86 1207M1553.86 1254.4C1565.67 1254.4 1570.79 1244.4 1570.79 1233.98 1570.79 1223.56 1565.21 1213.46 1553.86 1213.6 1542.55 1213.51 1536.92 1223.37 1536.92 1233.98 1536.92 1244.58 1542 1254.4 1553.86 1254.4M1636.4 1260.07 1643.77 1260.07 1643.77 1214.44 1659.74 1214.44 1659.74 1207.88 1620.47 1207.88 1620.47 1214.44 1636.44 1214.44 1636.44 1260.07ZM1726.26 1207C1741.87 1207 1750.98 1218.53 1750.98 1233.98 1750.98 1249.42 1741.92 1260.95 1726.26 1260.95 1710.61 1260.95 1701.59 1249.84 1701.59 1233.98 1701.59 1218.12 1710.7 1207 1726.26 1207M1726.26 1254.4C1738.12 1254.4 1743.2 1244.4 1743.2 1233.98 1743.2 1223.56 1737.62 1213.46 1726.26 1213.6 1714.95 1213.51 1709.37 1223.37 1709.37 1233.98 1709.37 1244.58 1714.45 1254.4 1726.26 1254.4M1798.55 1260.07 1805.92 1260.07 1805.92 1217.14 1806.06 1217.14 1829.31 1260.07 1838.74 1260.07 1838.74 1207.93 1831.37 1207.93 1831.37 1249.93 1831.24 1249.93 1808.57 1207.93 1798.59 1207.93 1798.59 1260.07ZM1946.51 1260.07 1953.88 1260.07 1953.88 1207.93 1946.51 1207.93 1946.51 1260.07ZM2028.45 1208.86C2024.93 1207.6 2020.9 1207 2017.51 1207 2008.22 1207 2001.03 1211.93 2001.03 1221.19 2001.03 1237.42 2023.1 1234.21 2023.1 1245.84 2023.1 1251.98 2017.24 1254.35 2013.03 1254.35 2009.27 1254.35 2004.88 1252.86 2002.36 1251.84L2001.63 1258.77C2005.02 1259.93 2008.54 1260.95 2012.16 1260.95 2022.46 1260.95 2030.93 1256.53 2030.93 1245.42 2030.93 1228.21 2008.82 1230.53 2008.82 1220.53 2008.82 1215.09 2013.71 1213.56 2017.79 1213.56 2021.59 1213.56 2023.69 1214.21 2027.45 1215.7L2028.45 1208.86ZM2157.69 1207C2173.3 1207 2182.41 1218.53 2182.41 1233.98 2182.41 1249.42 2173.35 1260.95 2157.69 1260.95 2142.03 1260.95 2132.97 1249.84 2132.97 1233.98 2132.97 1218.12 2142.08 1207 2157.69 1207M2157.69 1254.4C2169.55 1254.4 2174.63 1244.4 2174.63 1233.98 2174.63 1223.56 2169.04 1213.46 2157.69 1213.6 2146.38 1213.51 2140.75 1223.37 2140.75 1233.98 2140.75 1244.58 2145.83 1254.4 2157.69 1254.4M2269.99 1207.93 2262.66 1207.93 2262.66 1237.46C2262.66 1247.51 2259.6 1254.4 2250.07 1254.4 2240.55 1254.4 2237.53 1247.56 2237.53 1237.46L2237.53 1207.93 2230.16 1207.93 2230.16 1238.49C2230.16 1253.14 2237.44 1261 2250.07 1261 2262.71 1261 2270.03 1253.14 2270.03 1238.49L2270.03 1207.93ZM2319.84 1207.93 2332.43 1207.93C2342.6 1207.93 2352.35 1209.56 2352.35 1222.07 2352.35 1228.4 2347.68 1232.91 2341.77 1233.93L2341.77 1234.12C2344.06 1235 2345.16 1236.12 2346.76 1239.33L2356.47 1260.12 2348.09 1260.12 2340.22 1242.02C2337.93 1236.95 2335.5 1236.95 2331.61 1236.95L2327.21 1236.95 2327.21 1260.12 2319.84 1260.12 2319.84 1207.98ZM2327.26 1230.35 2333.53 1230.35C2340.54 1230.35 2344.61 1227.23 2344.61 1222.21 2344.61 1217.51 2341.08 1214.49 2334.31 1214.49L2327.26 1214.49 2327.26 1230.35ZM2459.61 1207.93 2473.48 1207.93C2484.15 1207.93 2491.52 1211.42 2491.52 1221.05 2491.52 1228.21 2487.35 1231.79 2480.9 1233.47L2480.9 1233.65C2487.9 1234.26 2492.84 1238.86 2492.84 1246.21 2492.84 1257.42 2483.73 1260.12 2473.25 1260.12L2459.56 1260.12 2459.56 1207.98ZM2466.93 1230.16 2471.01 1230.16C2478.15 1230.16 2484.19 1229.51 2484.19 1221.79 2484.19 1215.6 2478.97 1214.02 2474.72 1214.02L2466.98 1214.02 2466.98 1230.16ZM2466.93 1253.93 2472.47 1253.93C2479.06 1253.93 2485.06 1252.54 2485.06 1245.47 2485.06 1237.42 2478.1 1236.3 2471.74 1236.3L2466.93 1236.3 2466.93 1253.93ZM2582.07 1207.93 2574.7 1207.93 2574.7 1237.46C2574.7 1247.51 2571.59 1254.4 2562.11 1254.4 2552.63 1254.4 2549.52 1247.56 2549.52 1237.46L2549.52 1207.93 2542.15 1207.93 2542.15 1238.49C2542.15 1253.14 2549.43 1261 2562.11 1261 2574.79 1261 2582.02 1253.14 2582.02 1238.49L2582.02 1207.93ZM2656.78 1208.86C2653.26 1207.6 2649.23 1207 2645.84 1207 2636.55 1207 2629.36 1211.93 2629.36 1221.19 2629.36 1237.42 2651.43 1234.21 2651.43 1245.84 2651.43 1251.98 2645.57 1254.35 2641.35 1254.35 2637.6 1254.35 2633.21 1252.86 2630.64 1251.84L2629.91 1258.77C2633.3 1259.93 2636.82 1260.95 2640.44 1260.95 2650.74 1260.95 2659.21 1256.53 2659.21 1245.42 2659.21 1228.21 2637.14 1230.53 2637.14 1220.53 2637.14 1215.09 2642 1213.56 2646.12 1213.56 2649.92 1213.56 2652.02 1214.21 2655.73 1215.7L2656.78 1208.86ZM2706.36 1260.07 2713.73 1260.07 2713.73 1207.93 2706.36 1207.93 2706.36 1260.07ZM2763.91 1260.07 2771.23 1260.07 2771.23 1217.14 2771.37 1217.14 2794.62 1260.07 2804.06 1260.07 2804.06 1207.93 2796.69 1207.93 2796.69 1249.93 2796.55 1249.93 2773.84 1207.93 2763.86 1207.93 2763.86 1260.07ZM2854.6 1260.07 2883.35 1260.07 2883.35 1253.47 2861.92 1253.47 2861.92 1236.26 2881.42 1236.26 2881.42 1229.7 2861.92 1229.7 2861.92 1214.4 2883.35 1214.4 2883.35 1207.84 2854.6 1207.84 2854.6 1259.98ZM2956.64 1208.86C2953.07 1207.6 2949.04 1207 2945.65 1207 2936.36 1207 2929.17 1211.93 2929.17 1221.19 2929.17 1237.42 2951.24 1234.21 2951.24 1245.84 2951.24 1251.98 2945.33 1254.35 2941.17 1254.35 2937.41 1254.35 2932.97 1252.86 2930.5 1251.84L2929.77 1258.77C2933.15 1259.93 2936.68 1260.95 2940.3 1260.95 2950.6 1260.95 2959.07 1256.53 2959.07 1245.42 2959.07 1228.21 2937 1230.53 2937 1220.53 2937 1215.09 2941.85 1213.56 2945.97 1213.56 2949.82 1213.56 2951.88 1214.21 2955.63 1215.7L2956.64 1208.86ZM3030.57 1208.86C3027.05 1207.6 3022.97 1207 3019.63 1207 3010.34 1207 3003.15 1211.93 3003.15 1221.19 3003.15 1237.42 3025.22 1234.21 3025.22 1245.84 3025.22 1251.98 3019.31 1254.35 3015.15 1254.35 3011.39 1254.35 3007 1252.86 3004.48 1251.84L3003.75 1258.77C3007.13 1259.93 3010.66 1260.95 3014.23 1260.95 3024.58 1260.95 3033 1256.53 3033 1245.42 3033 1228.21 3010.93 1230.53 3010.93 1220.53 3010.93 1215.09 3015.83 1213.56 3019.91 1213.56 3023.71 1213.56 3025.81 1214.21 3029.57 1215.7L3030.57 1208.86Z" fill="#686868" fill-rule="evenodd"/><path d="M1578 1433.61C1589.24 1417.58 1595.11 1405.26 1599.57 1394.55 1602.89 1398.39 1606.76 1401.51 1610.4 1403.61 1603.71 1418.59 1601.26 1423.08 1593.02 1437.37 1593.34 1438.24 1593.84 1439.06 1593.84 1439.98 1593.84 1440.8 1593.15 1441.17 1592.43 1441.17 1591.7 1441.17 1590.79 1440.8 1589.97 1440.34L1578 1433.61ZM1585.65 1365.01C1591.52 1367.75 1602.44 1373.52 1607.72 1377.65 1604.76 1381.4 1603.49 1383.55 1600.07 1389.46 1591.97 1383.42 1580.87 1378.47 1578.59 1377.42L1585.65 1365.01ZM1594.06 1336.84C1602.03 1340.37 1610.13 1345.45 1614.73 1349.71 1611.81 1353.51 1608.04 1358.91 1606.4 1361.3 1602.03 1357.63 1591.61 1350.99 1586.1 1348.2L1594.06 1336.84ZM1671.52 1396.7 1688.68 1396.7 1688.68 1409.57 1664.74 1409.57C1670.29 1416.44 1682.35 1427.29 1692 1432.24 1687.68 1435.9 1687.31 1436.27 1681.44 1443 1671.11 1436.27 1659.14 1425.05 1652.68 1416.53L1662.06 1409.57 1634.7 1409.57 1644.81 1416.44C1645.4 1416.8 1645.9 1417.26 1645.9 1417.86 1645.9 1419.05 1644.26 1419.78 1642.12 1419.41 1636.71 1426.7 1625.1 1437.83 1616.18 1443 1614.91 1441.58 1609.86 1436.41 1603.99 1432.83 1616.77 1426.56 1627.65 1415.02 1632.38 1409.57L1611.27 1409.57 1611.27 1396.7 1621.96 1396.7 1621.96 1341.56 1628.52 1342.98C1645.31 1343.3 1666.06 1337.57 1672.98 1334L1681.31 1345.45C1681.9 1346.27 1682.49 1347.01 1682.49 1347.79 1682.49 1348.75 1681.44 1348.98 1680.76 1348.98 1679.35 1348.98 1678.17 1348.38 1677.12 1347.92 1665.15 1351.95 1647.17 1354.06 1636.16 1354.43L1636.16 1363.4 1685.58 1363.4 1685.58 1376.55 1671.61 1376.55 1671.61 1396.74ZM1657.82 1376.5 1636.12 1376.5 1636.12 1396.7 1657.82 1396.7 1657.82 1376.5Z" fill="#686868" fill-rule="evenodd"/><path d="M1730.43 1442 1716.4 1442 1716.4 1401.67C1713.09 1411.26 1710.23 1416.67 1707.01 1422.04 1702.04 1417.18 1698.82 1415.07 1695 1412.96 1705.45 1400.53 1712.58 1380.66 1715.8 1369.51L1699.05 1369.51 1699.05 1356.16 1716.35 1356.16 1716.35 1334 1730.57 1334.69C1731.77 1334.83 1732.97 1335.28 1732.97 1336.25 1732.97 1337.3 1731.91 1337.99 1730.34 1338.82L1730.34 1356.11 1744.7 1356.11 1744.7 1367.68C1750.5 1356.57 1751.92 1346.75 1752.98 1340.1L1766.97 1344.69C1768.77 1345.29 1769.09 1345.42 1769.09 1346.48 1769.09 1348.13 1767.66 1348.27 1765.27 1348.5 1763.61 1354.65 1758.64 1373.96 1747.83 1387.45 1744.06 1384.47 1741.2 1382.86 1735.5 1380.34 1741.06 1373.82 1742.12 1372.03 1743.69 1369.46L1730.3 1369.46 1730.3 1371.71C1733.24 1379.05 1738.49 1388.87 1745.71 1397.59 1741.52 1400.8 1738.44 1403.74 1735.36 1407.5 1733.79 1404.56 1732.41 1401.58 1730.25 1396.63L1730.25 1441.91ZM1776.59 1377.08C1777.65 1377.31 1778.25 1377.91 1778.25 1378.5 1778.25 1379.83 1777.05 1380.38 1775.16 1380.98 1772.31 1391.4 1766.83 1410.57 1762.83 1421.22 1767.11 1420.62 1777.56 1419.2 1785.98 1417.68 1781.7 1407.5 1777.56 1400.43 1775.76 1397.31L1789.43 1391.76C1792.28 1396.81 1801.76 1413.78 1808.07 1435.39 1804.29 1436.82 1799.05 1439.06 1794.22 1441.68 1793.02 1436.95 1791.87 1433.05 1790.4 1429.15 1781.84 1431.08 1771.9 1432.96 1744.84 1437.32 1744.33 1437.46 1743.5 1437.55 1742.68 1437.69 1741.71 1439.8 1741.16 1440.9 1739.82 1440.9 1739.45 1440.9 1738.76 1440.53 1738.53 1438.88L1736.14 1424.06C1737.94 1423.97 1745.53 1423.24 1747.65 1423.1 1749.9 1416.86 1759.29 1388 1761.54 1373.55L1776.64 1377.08ZM1791.13 1336.39C1791.13 1346.8 1792.79 1364.51 1810 1378.96 1806.78 1381.07 1804.2 1383.23 1799.09 1389.06 1792.6 1382.91 1781.65 1368.09 1778.71 1349.65L1770.38 1349.65 1770.38 1336.39 1791.13 1336.39Z" fill="#686868" fill-rule="evenodd"/><path d="M1854.49 1392.11C1855.45 1392.71 1856.05 1393.31 1856.05 1394.01 1856.05 1395.3 1854.49 1395.3 1852.98 1395.21 1844.01 1409.47 1840.03 1414.5 1828.55 1426.26 1824.79 1422.8 1819.94 1419.11 1815 1416.16 1827.72 1406.28 1835.68 1394.61 1840.86 1384.04L1854.54 1392.11ZM1861.91 1336 1877.6 1336.6C1879.16 1336.6 1880.21 1336.92 1880.21 1338.03 1880.21 1338.95 1879.25 1339.32 1878.2 1339.83L1878.2 1361.52 1917.83 1361.52 1917.83 1376.06 1878.2 1376.06 1878.2 1421C1878.2 1429.22 1878.2 1439 1859.21 1439 1857.1 1439 1853.53 1438.72 1851.2 1438.54 1850.83 1435.91 1850.37 1431.52 1846.12 1422.62 1849.18 1423.08 1853.67 1423.68 1856.87 1423.68 1861.95 1423.68 1861.95 1421.88 1861.95 1414.4L1861.95 1376.1 1822.18 1376.1 1822.18 1361.57 1861.95 1361.57 1861.95 1336.09ZM1898.7 1383.35C1908.17 1392.25 1919.61 1407.39 1923 1413.8 1918.97 1416.9 1913.34 1422.25 1910.83 1424.65 1905.15 1414.17 1894.08 1399.78 1886.85 1392.76L1898.65 1383.39Z" fill="#686868" fill-rule="evenodd"/><path d="M1968.65 1367.08C1985.07 1375.4 2001.13 1385.93 2011 1395.77 2006.41 1400.64 2004.77 1402.67 1999.72 1408.69 1985.39 1394.85 1970.88 1386.53 1962.69 1382.12L1962.69 1440 1946 1440 1946 1336 1962.69 1336.92C1963.83 1337.06 1964.92 1337.2 1964.92 1338.21 1964.92 1339.49 1963.42 1339.91 1962.69 1340L1962.69 1375.54 1968.65 1366.99Z" fill="#686868" fill-rule="evenodd"/><path d="M2125 1410.07 2125 1426 2023 1426 2023 1410.07 2125 1410.07ZM2110.66 1350 2110.66 1365.42 2037.53 1365.42 2037.53 1350 2110.66 1350Z" fill="#686868" fill-rule="evenodd"/><path d="M2216.42 1352.94C2220.35 1352.94 2222.45 1352.12 2224.55 1351.16L2233 1358.59C2230.99 1362 2224.78 1375.84 2220.9 1384.54 2202.49 1425.29 2173.53 1438.77 2164.49 1443 2162.34 1440.27 2160.11 1437.72 2151.88 1431.48 2193.95 1414.09 2205.09 1382.76 2210.67 1367.42L2177.92 1367.42C2170.06 1378.94 2162.02 1388.09 2150.29 1398.65 2144.99 1393.14 2143.34 1391.37 2138 1387.86 2150.47 1377.62 2168.51 1359.77 2177.46 1335L2191.94 1341.92C2192.53 1342.19 2193.58 1342.65 2193.58 1343.7 2193.58 1344.83 2191.48 1345.2 2190.75 1345.2 2189.34 1348.02 2188.38 1349.8 2186.73 1352.94L2216.38 1352.94Z" fill="#686868" fill-rule="evenodd"/><path d="M2255.84 1357.86 2255.84 1342.91 2315.75 1342.91C2317.63 1342.91 2321.97 1342.68 2323.89 1342L2331.9 1350.57C2329.52 1353.62 2328.24 1356.31 2327.41 1358.08 2322.43 1369.61 2319.73 1375.81 2312.18 1388.02 2321.15 1394.72 2339.67 1410.71 2349 1422.01 2344.84 1426.47 2338.25 1433.77 2336.83 1435.36 2330.48 1426.57 2320.69 1413.76 2303.36 1400.37 2295.22 1410.57 2276.1 1428.53 2256.16 1437 2252.5 1430.67 2250.49 1427.98 2245 1423.24 2252.04 1420.78 2269.28 1414.4 2286.71 1395.77 2299.47 1382.28 2303.95 1371.21 2308.98 1357.81L2255.84 1357.81Z" fill="#686868" fill-rule="evenodd"/><path d="M2441.41 1442 2427.84 1442 2427.84 1406.54C2418.43 1423.37 2408.3 1432.39 2406.2 1434.04 2402.09 1430.04 2399.12 1428.11 2394.55 1426.09 2416.11 1408.79 2423.55 1392.42 2424.23 1390.63L2404.23 1390.63 2404.23 1378.16 2427.89 1378.16 2427.89 1365.47 2414.23 1365.47C2410.72 1372.74 2410.35 1373.56 2408.94 1375.91 2404.09 1371.86 2398.34 1371.17 2396.7 1370.94 2398.02 1369.2 2398.48 1368.6 2399.07 1367.63L2387.74 1367.63 2387.74 1370.35C2392.81 1382.07 2400.72 1389.11 2404.32 1392.28 2401.26 1394.67 2399.16 1398.45 2396.7 1403.09 2392.81 1399.41 2390.67 1396.33 2387.74 1391.82L2387.74 1442 2374.91 1442 2374.91 1398.35C2371.62 1406.54 2368.66 1412.75 2364.09 1419.69 2360.66 1410.91 2356.87 1408.33 2355 1407 2366.19 1393.98 2372.54 1374.16 2374.32 1367.63L2358.65 1367.63 2358.65 1354.71 2374.91 1354.71 2374.91 1333.23 2387.52 1333.6C2388.84 1333.6 2390.21 1334.2 2390.21 1335.25 2390.21 1336.08 2389.75 1336.45 2387.74 1337.6L2387.74 1354.71 2399.66 1354.71 2399.66 1366.8C2407.2 1355.17 2409.44 1345.46 2410.35 1338.93L2422 1342.24C2423.55 1342.75 2424.14 1342.84 2424.14 1343.67 2424.14 1344.5 2422.96 1345.1 2421.81 1345.46 2421.31 1347.35 2420.99 1348.68 2419.44 1353.19L2427.93 1353.19 2427.93 1333 2441.68 1333.46C2443.46 1333.6 2444.15 1333.83 2444.15 1334.89 2444.15 1335.94 2443.83 1336.22 2441.45 1337.14L2441.45 1353.19 2464.29 1353.19 2464.29 1365.52 2441.45 1365.52 2441.45 1378.21 2466.39 1378.21 2466.39 1390.67 2445.2 1390.67C2449.44 1399.32 2457.07 1411.42 2471 1420.94 2467.57 1423.88 2464.97 1426.82 2462.19 1432.94 2455.79 1427.93 2447.8 1418.54 2441.45 1406.22L2441.45 1442Z" fill="#686868" fill-rule="evenodd"/><path d="M2513.35 1422.13C2521.91 1420.71 2529.66 1418.91 2536.03 1417.4 2534.67 1421.4 2534.35 1426.91 2534.48 1430.41 2517.13 1435.05 2501.73 1437.67 2483.29 1440.01 2482.79 1441.3 2482.24 1443 2480.78 1443 2479.73 1443 2479.14 1441.58 2479.05 1440.89L2476 1427C2487.61 1425.95 2493.63 1425.12 2497.82 1424.52L2497.82 1397.26 2478.92 1397.26 2478.92 1384.21 2530.7 1384.21 2530.7 1397.26 2513.35 1397.26 2513.35 1422.18ZM2557.94 1333C2561.86 1335.25 2569.51 1339.9 2576.39 1346.06 2574.88 1347.62 2571.47 1352.44 2569.24 1355.8L2584.04 1355.8 2584.04 1369.68 2544.46 1369.68C2545.51 1376.39 2549.15 1398.46 2563.36 1418.5 2564.18 1419.69 2567 1423.74 2569.01 1423.74 2571.01 1423.74 2572.11 1420.52 2572.93 1417.81 2573.38 1416.52 2574.75 1410.46 2575.16 1409.26 2577.12 1411.51 2581.72 1416.16 2587 1418.73 2583.99 1432.7 2579.39 1441.16 2571.15 1441.16 2556.57 1441.16 2537.67 1412.34 2530.75 1369.68L2476.73 1369.68 2476.73 1355.8 2528.88 1355.8C2528.56 1353.18 2527.29 1341.69 2527.38 1333.51L2542.91 1334.56C2543.59 1334.56 2545.14 1334.88 2545.14 1336.08 2545.14 1337.64 2543.37 1338.33 2542.18 1338.79 2542.09 1342.15 2541.95 1347.11 2542.77 1355.75L2565.68 1355.75C2562.36 1352.54 2557.44 1348.26 2549.83 1343.21L2558.03 1333Z" fill="#686868" fill-rule="evenodd"/><path d="M2678.13 1383.58 2618.27 1383.58 2618.27 1373.21C2611.56 1377.46 2606.03 1380.06 2602.97 1381.48 2602.1 1380.2 2597.99 1374.31 2592 1369.7 2608.59 1364.41 2632.9 1347.34 2641.03 1332L2658.07 1334.51C2659.12 1334.65 2659.85 1335.33 2659.85 1336.02 2659.85 1337.11 2658.58 1337.43 2657.16 1337.8 2663.97 1347.79 2687.32 1362.85 2705 1368.01 2700.02 1371.21 2695.59 1379.83 2695.18 1380.38 2687.77 1377.41 2681.42 1373.81 2678.09 1371.89L2678.09 1383.53ZM2600.13 1424.56C2603.88 1424.29 2616.77 1423.51 2618.27 1423.51 2624.03 1413.52 2627.37 1405.48 2628.05 1403.47L2600.13 1403.47 2600.13 1390.42 2697.32 1390.42 2697.32 1403.47 2669.68 1403.47C2683.8 1415.75 2690.2 1424.1 2696.64 1432.69 2691.11 1436.43 2687.36 1440.67 2685.21 1443 2679.78 1434.65 2679.23 1433.78 2676.62 1430.63 2669.45 1431.68 2652.59 1433.78 2645.05 1434.65 2639.11 1435.33 2612.74 1438.07 2607.44 1438.62 2606.71 1440.4 2606.12 1441.68 2604.7 1441.68 2604.02 1441.68 2603.42 1440.99 2603.1 1438.98L2600.13 1424.52ZM2675.8 1370.52C2662.6 1362.49 2657.02 1356.97 2647.88 1347.93 2638.65 1357.24 2633.26 1362.76 2622.29 1370.52L2675.8 1370.52ZM2665.43 1403.47 2647.15 1403.47C2647.38 1403.84 2647.52 1404.07 2647.52 1404.3 2647.52 1405.57 2645.05 1405.94 2644.09 1406.08 2642.31 1410.09 2637.47 1418.58 2635.23 1422.23 2650.08 1420.91 2651.72 1420.82 2666.34 1419.27 2664.33 1417.03 2661.64 1414.66 2656.93 1410.69L2665.38 1403.47Z" fill="#686868" fill-rule="evenodd"/><path d="M2744.7 1442 2730.03 1442 2730.03 1407.84C2725.18 1412.25 2721.28 1415.2 2718.35 1417.45 2715.37 1410.55 2711.02 1407.01 2709 1405.22 2721.65 1397.77 2737.6 1382.46 2742.68 1370.74L2713.72 1370.74 2713.72 1357.08 2730.03 1357.08 2730.03 1334.23 2744.56 1334.74C2746.21 1334.74 2746.81 1335.79 2746.81 1336.39 2746.81 1337.08 2746.21 1337.54 2744.65 1338.41L2744.65 1357.13 2756.84 1357.13 2763.35 1363.29C2756.61 1376.8 2755.28 1379.06 2750.34 1385.72 2756.75 1392.94 2764.91 1398.28 2768.44 1400.67 2765.5 1403.1 2761.1 1407.98 2759.23 1411.66 2752.26 1406.69 2748.96 1403.33 2744.7 1398.83L2744.7 1442ZM2761.38 1383.2 2761.38 1368.9 2782.19 1368.9 2782.19 1334 2798.13 1334.74C2799.09 1334.74 2799.92 1335.2 2799.92 1336.02 2799.92 1337.22 2799.14 1337.45 2797.45 1337.95L2797.45 1368.9 2818.39 1368.9 2818.39 1383.2 2797.45 1383.2 2797.45 1424.48 2821 1424.48 2821 1438.14 2753.96 1438.14 2753.96 1424.48 2782.23 1424.48 2782.23 1383.2 2761.43 1383.2Z" fill="#686868" fill-rule="evenodd"/></g></svg>