<svg xmlns="http://www.w3.org/2000/svg" height="396" width="1009.333" version="1.0"><path d="M730.667 90v45h60V90h30v112.333h-30V153h-60v49.333H701V90h29.667zM448 90v19h-45.333v93.333h-30V109h-45.334V90H448zM563.667 202.333h-33l-9.667-24h-56l-4.667 12-5 12h-33L474.667 90h36.666l52.334 112.333zM493 109l-20.667 51.333h41.334L493 109z" fill="#686868"/><path d="M563.667 202.333h-33l-9.667-24h-56l-4.667 12-5 12h-33L474.667 90h36.666l52.334 112.333" fill="none"/><path d="M493 109l-20.667 51.333h41.334L493 109" fill="none"/><path d="M844.333 202.333V90H874v112.333h-29.667zM173.333 90v45h60V90h30v112.333h-30V153h-60v49.333h-29.666V90h29.666zM286.667 202.333V90h30v112.333h-30zM562.667 171.333L561 165.667l-1.333-6-.667-6-.333-6.334L559 143v-4.333l.667-4.334.666-4.333 1.334-4 1.333-4 1.667-3.667 1.666-3.666 2.334-3.667 2.666-3.333 3-3 3-3 3.334-2.334L584.333 97 588 95l4-1.667 8-2.666 8-2 8.333-1 8.667-.334h5l5 .334 4.667.666 5 1 4.666 1 4.334 1.334 4.666 1.666L662.667 95l4 2L670 99.667l3.333 2.666 3 3L679 109l2 3.667 1.667 4.333 1.333 4 .667 3.667.333 3.666h-31.333l-.334-4.666-.666-2-.667-2-1-2.334-1.333-2-1.334-2-1.666-2-2-1.333-2-1.333-2.334-1.334-2.333-.666-3-1-3.333-.667-3.334-.333h-7l-4 .666-3.666.667-3.334 1.333-2.666 1-2.667 1.334-2.333 2-2.334 2-2 2-1.666 2.666-1.334 2.667-1.333 2.667-1.667 5.666-1.333 6-.667 6-.333 6 .333 5 .334 5 1 5 1 4.667 1.333 3 1.333 3 1.667 2.667 2 2.333 2 2 2.667 2 2.666 1.667L609 185l4 1 3.667 1 4.333.667h7.667l3.333-.334 3.667-.666 3-1L641 185l2-1.333 2-1 1.667-1.334 1.666-1.666 1.334-1.667 1-2 1.333-2 1-3 .667-2.667L654 165l.333-3h31.334l-.667 5.333-1 5.334-1 4-1.667 4-2.333 3.666-2.333 3.334-3 3-3 2.666-3.667 2.334-3.667 1.666L659 199l-4.667 1.667-4.666 1.333-4.667 1-5 1-5 .667-5 .333-5 .333-7.667-.333-7.666-1-7.667-1.333-7-2-5.667-2-5-2.667-4.666-3-4.334-3.333-4-4-3.666-4.334-2.667-5-2.333-5zM117 234l-26.667 2.333v4h1l6 .667 2 .667 1.334.666.666 1 .334 1.334.333 4.666V305h16v-71.333l-1 .333zM173 255l-3.333.333-3.334.667-2.666 1.333-2.667 1.334-2 1.666-1.667 2-2.666 3.334v-11l-1 .333L132 258.333V262h1l2.333.333H137l1.667.667 1 .667.666 1L141 266v2l.333 2v35h13.334v-25.667l.333-2.666.667-2.667 1.333-2.667 1.667-2.333 2-2.333L163 265l2.333-1 2.334-.333L170 264l1.667.667 1 1 1 1.666.333 2 .333 2.667.334 5.667V305H188v-35l-.333-3.333-.667-3-1.333-2.667-1.667-2.333-2-1.667-2.667-1-2.666-1H173zM225.667 274.333l-4-2-3-2-1.334-1-.666-1L216 267l-.333-1.333.333-1.334.667-1 .666-.666 1-.667 2.667-.667h4l2 .334 3.333 1.333 3 1.333 2 1.334 2.334 1.333-.334-2v-8.333l-1.333-.334-5.333-1-3.334-.333H219l-4 1-3.333 1-3 1.667-2 2-1.667 2.666-1.333 2.667-.334 3.333.334 3 1 2.334 1.666 2.333 2 2 2.334 1.667L213 282l5.333 2.667 3.667 2 3.333 2 1.334 1.333 1 1 .666 1.333.334 1.334V295l-.667 1.333-.667 1-1 .667-1.333.667-1.333.666-2 .334h-2l-2.334-.334-2-.333-4-1.333-3.666-1.667-2.667-1.333-1.333-1V304l1 .333 5.666 1 4 .334 5 .333 4.667-.333 4.333-.667 3.667-1.333 3.333-1.667 2.334-2 1.666-2.667L240 296l.667-1.667L241 291l-.333-3-1-3-1.667-2.333-2-2-2.333-2L231 277l-5.333-2.667zM284.667 255h-2l-1.667.333-2 .667-1.667.667-3.666 2-3.334 3v-7l-1 .333L248 258.333V262h.667l2.333.333h2l1.333.667 1 .667.667 1 .667 1.333v2l.333 2v55.333h13.333v-25l2 2 1.334 1 1.666 1L277 305l2 .333 2.333.667h5.334l2.333-.333 2.333-.667 2-.667 2-1 1.667-1 1.667-1.333 1.333-1.667 1.333-1.666 1-2 1-2.334L304 291l.667-2.667.666-2.666.334-6-.334-5.667-.666-2.333L304 269l-.667-2-1-2-1-2-1.333-1.667-1.333-1.333-1.667-1.333-1.667-1.334-2-.666-2-1-2-.334L287 255h-2.333zm-4 7.333h1.666l1.334.334 1.333.666 1.333.667 1 .667.667 1 1.333 2.333.667 3 .667 2.667.333 3v3l-.333 4.333-.334 4-.666 3.333-1.334 2.667-1.333 2-1.667 1.333-2 1-2.333.334-3-.334-2.333-1-2-1.666-1.334-2-1-2.334-.666-2.333-.334-2.667v-7l.334-4.666.333-3 1-2.667 1.333-2.667.667-1 1-1 1.333-1 1.334-.666 1.333-.334h1.667zM315 258.333V262h.667l2.333.333h2l1.333.667 1 .667.667 1 .333 1.333.334 2v37h13.666v-50.333L336 255l-21 3.333zM330.667 248.667h1.666l1.667-.334 1.333-.666 1.334-1 1-1 .666-1.334L339 243v-3l-.667-1.333-.666-1.334-1-1-1.334-.666L334 235l-1.667-.667H329l-1.333.667-1.667.667-1 .666-1 1-1 1.334-.333 1.333v3l.333 1.333 1 1.334 1 1 1 1 1.333.666 1.667.334h1.667zM393.333 266v-10.333l-.666-.334-3.334-.333h-5.666l-2.667.667-2 1.333-1.667 1.333-1.666 1.334-1.334 1.666-1.666 3.334v-10l-1.334.333L350 258.333V262h1l2.333.333H355l1.667.667 1 .667.666 1 .334 1.333.333 2v37h13.667v-27l.333-2.333.667-2.334 1-2.333 2-2 1-1 1.333-.667 1.667-.666 1.666-.667 2-.333h2.334L389 266l2.333.667 2 .666V266zM446.333 275l-.333-4.667-.333-2-.667-2-.667-2-1-1.666-1.333-1.334-1-1.333-1.667-1.333-1.666-1L436 257l-2-1-4.667-.667-5-.333-6 .333-2.666.334-2.334.666-2.333 1-2 1-2 1-1.667 1.667-1.333 1.333-1.333 2-1 2-1 2-.667 2.334-.667 2.666L399 276v2.667l.333 3.333.334 2.667.666 3 .667 2.666 1 2.334 1.333 2.333 1.667 2 1.667 1.667 2 1.666L411 302l2.333 1 2.667 1 2.667 1 3 .667L425 306h3.333l5.334-.333 5-.667 3.666-1 2.334-.667.666-.333v-6.667L444 297l-2 .667-2.333.333-3 .333-3 .334-2.667-.334-2.333-.333-2.334-.667-1.666-.666-2-1-1.667-1.334-1.333-1.333-1.334-1.667-2-3.333-1.333-4-1-4-.333-4h32.666v-1zm-22.666-14.667h2.666l2 .667 1.334 1 1.333 1.333 1 1.667.333 1.667.334 1.666L433 270h-19.333l.666-3 .667-1.667 1-1.333 1.333-1.667 1.667-1 2-.666 2.667-.334zM568.667 255h-3.334L562 256l-2.667 1-2.333 1.667-2.333 1.666L553 262l-1.333 1.667-1.334 2V232l-1 .333L528 235v3.667h1l2 .333 2 .333 1.333.334 1 1 .667 1 .667 1.333.333 1.667V305h13.333v-25l.334-3.333.666-3.334 1.334-2.666 1.666-2.334 2-2 2.334-1.333 2-1 2.333-.333 2.333.333 2 .667 1.334 1 1 1.333.333 1.667.333 1.666V305H584v-32.333l-.333-2.334v-2.666l-.667-3-1-3-1-1.334-1-1.333-1-1-1.667-1-1.666-1-2-.667-2.334-.333h-2.666zM644 275l-.333-4.667-.334-2-.666-2-.667-2-1-1.666-1-1.334-1.333-1.333-1.667-1.333-1.667-1-1.666-.667-2-1-4.667-.667-5-.333-6 .333-2.667.334-2.333.666-2.333 1-2 1-2 1L603 261l-1.333 1.333-1.334 2-1 2-1 2-.666 2.334-.334 2.666L597 276l-.333 2.667L597 282l.333 2.667.667 3 .667 2.666 1.333 2.334 1.333 2.333 1.334 2 2 1.667 1.666 1.666 2.334 1.667 2.333 1 2.667 1 2.666 1 3 .667 3.334.333H626l5.667-.333 4.666-.667 3.667-1 2.333-.667L643 303v-6.667l-1 .667-2 .667-2.667.333-2.666.333-3.334.334-2.666-.334-2.334-.333-2-.667-2-.666-2-1-1.666-1.334-1.334-1.333-1.333-1.667-2-3.333-1.333-4-1-4-.334-4H644v-1zm-22.667-14.667H624l2 .667 1.333 1 1.334 1.333 1 1.667.666 1.667.334 1.666V270h-19.334l.667-3 .667-1.667 1-1.333 1.333-1.667 1.667-1 2.333-.666 2.333-.334zM493.667 240.667V256h-9v6h9v32.333l.333 2 .333 1.667.667 1.667.667 1.333 1 1 1 1 1.333 1 2.667 1 3 .667 3.666.333H512l3.667-.333 4.333-.334.667-.333v-6l-1.334.333-1.666.334h-5l-2-.334-1.334-.666-1.333-1-.667-1.334-.333-1.666V262h15v-6h-15v-15.333h-13.333zM757.667 235H744v53l-35-53h-31v4l2.667.333 5 1L687 241l1.333.667.667 1 .333 1.666.334 4.667v56H704v-55.667L740.667 305h18v-70h-1zM818.667 275l-.334-4.667-.666-2-.667-2-.667-1.666-1-1.667-1-1.667L813 260l-1.667-1.333-1.666-1L808 257l-2-.667-4.667-1-5-.333h-3l-3 .333-2.666.334-2.334.666-2.333 1-2 1-2 1.334-1.667 1.333-1.333 1.667-1.333 1.666-1 2-1 2-.667 2.334-.333 2.666-.334 2.667-.333 2.667.333 3.333.334 3 .666 2.667.667 2.666 1.333 2.334 1.334 2.333 1.333 2 2 1.667 2 1.666 2 1.667 2.333 1 2.667 1 3 1 2.667.667L797 306h3.333l5.667-.333 4.667-.667 3.666-1 2.334-.667.666-.333v-6.333l-1 .333-2 .667-2.666.333-2.667.333-3.333.334H803l-2.333-.667-2-.667-2-.666-2-1-1.334-1.334-1.666-1.333-1.334-1.667-2-3.333-1.333-4-1-4-.333-4h33v-1zm-23-14.667h2.666l2 .667 1.667 1 1 1.333 1 1.667.667 1.667.333 1.666v2h-19.333l.666-3.333.667-1.333 1-1.667 1.333-1.667 1.667-1 2.333-.666 2.334-.334zM892.667 240.667V256h-9v6h9v32.333l.333 2 .333 1.667.667 1.667.667 1.333 1 1 1 1 1.333 1 2.667 1 3 .667 3.666.333H911l3.667-.333 4-.334 1-.333v-6l-1.334.333-1.666.334h-5l-2-.334-1.334-.666-1.333-1-.667-1.334-.333-1.666V262h15v-6h-15v-15.333h-13.333zM865.333 272l14-16H865l-13 15-11.667-15H820v4h.667l4.333.667 1.667.333 1.666.667 1.334 1L831 264l2.667 3.333L842 278.667l-13.667 15.666h14.334l6-7L862 305h16l-25.333-33h12.666z" fill="#686868"/><path d="M892.333 240.667H878L895.333 221h14.334l-17.334 19.667z" fill="#ff0026"/></svg>