<svg width="1645" height="465" xmlns="http://www.w3.org/2000/svg" xmlns:xlink="http://www.w3.org/1999/xlink" xml:space="preserve" overflow="hidden"><g transform="translate(-1377 -1005)"><path d="M1628.02 1281 1681 1189.03 1627.98 1097 1575 1189 1628.02 1281 1628.02 1281Z" fill="#BF0E1B" fill-rule="evenodd"/><path d="M1628 1281 1681 1373 1787 1373 1733.97 1281 1628 1281 1628 1281Z" fill="#BF0E1B" fill-rule="evenodd"/><path d="M1628 1281 1521.99 1281 1469 1373 1575.01 1373 1628 1281 1628 1281Z" fill="#BF0E1B" fill-rule="evenodd"/><path d="M2642.71 1206.29 2547.84 1206.29 2547.84 1193.6 2652 1193.6 2652 1169.91 2547.84 1169.91 2547.84 1160.34C2580.8 1159.31 2611.98 1157.49 2645.83 1154.2L2642.1 1129C2565.55 1136.1 2497.26 1137.57 2416.68 1137.57L2420.07 1161.57C2454.81 1161.57 2485.07 1161.54 2513.16 1161.09L2513.16 1169.87 2409 1169.87 2409 1193.57 2513.16 1193.57 2513.16 1206.25 2418.29 1206.25 2418.29 1297.29 2513.16 1297.29 2513.16 1308.67 2418.29 1308.67 2418.29 1331.44 2513.16 1331.44 2513.16 1345.91 2409 1345.91 2409 1373 2651.97 1373 2651.97 1345.91 2547.8 1345.91 2547.8 1331.44 2642.68 1331.44 2642.68 1308.67 2547.8 1308.67 2547.8 1297.29 2642.68 1297.29 2642.68 1206.25ZM2449.43 1227.24 2513.2 1227.24 2513.2 1242.09 2449.43 1242.09 2449.43 1227.24ZM2449.43 1276.41 2449.43 1261.01 2513.2 1261.01 2513.2 1276.41 2449.43 1276.41ZM2611.6 1276.41 2547.84 1276.41 2547.84 1261.01 2611.6 1261.01 2611.6 1276.41ZM2611.6 1227.24 2611.6 1242.09 2547.84 1242.09 2547.84 1227.24 2611.6 1227.24Z" fill="#686868" fill-rule="evenodd"/><path d="M2163.38 1179 2196.73 1179 2196.73 1165.99 2279.24 1165.99 2279.24 1179 2312.58 1179 2312.58 1165.99 2360 1165.99 2360 1143.39 2312.58 1143.39 2312.58 1130 2279.24 1130 2279.24 1143.39 2196.73 1143.39 2196.73 1130 2163.38 1130 2163.38 1143.39 2116 1143.39 2116 1165.99 2163.38 1165.99 2163.38 1179Z" fill="#686868" fill-rule="evenodd"/><path d="M2366 1350.48C2335.13 1348.55 2303.46 1342.74 2275.37 1334.65 2293.25 1322.54 2308.21 1308.16 2320.65 1292.03L2359.85 1292.03 2365.21 1263.58 2305.94 1263.58C2300.37 1263.58 2298.54 1260.93 2298.54 1255.67L2298.54 1249.65 2359.85 1249.65 2359.85 1224.46 2255.33 1224.46 2255.33 1210.26 2354.04 1210.26 2354.04 1187.72 2255.33 1187.72 2255.33 1173 2220.53 1173 2220.53 1187.72 2121.82 1187.72 2121.82 1210.26 2220.53 1210.26 2220.53 1224.46 2116.01 1224.46 2116.01 1249.65 2157.37 1249.65C2147.09 1259.31 2128.8 1268.57 2109 1273.25L2120.31 1294.23C2153.56 1285.56 2184.02 1269.81 2199.77 1249.61L2262.27 1249.61 2262.27 1264.78C2262.27 1269.46 2264.09 1272.73 2266.67 1274.79L2236.52 1274.79C2239.61 1271.53 2242.67 1268.12 2245.63 1264.61L2216.2 1254.33C2192.75 1280.78 2154.49 1302.28 2114.78 1314.63L2125.57 1335.65C2144.58 1330.84 2162.26 1324.71 2178.59 1316.77 2186.6 1323.58 2195.92 1329.98 2206.33 1335.89 2179.72 1345.97 2147.68 1351.89 2109.21 1352.13L2120.62 1376.9C2169.65 1375.94 2209.81 1367.37 2242.5 1352.82 2275.71 1365.58 2315.29 1374.39 2357.68 1378L2365.97 1350.51ZM2202.9 1303C2205.2 1301.49 2207.47 1299.91 2209.7 1298.29L2267.5 1298.29C2258.52 1306.72 2248.42 1314.46 2236.97 1321.27 2223.39 1315.56 2211.77 1309.33 2202.9 1303Z" fill="#686868" fill-rule="evenodd"/><path d="M1833 1340 2077 1340 2077 1373 1833 1373Z" fill="#686868" fill-rule="evenodd"/><path d="M1848 1233 2062 1233 2062 1263 1848 1263Z" fill="#686868" fill-rule="evenodd"/><path d="M1838 1143 2072 1143 2072 1172 1838 1172Z" fill="#686868" fill-rule="evenodd"/><path d="M2826.71 1342.01 2826.71 1174.24 2920.61 1174.24 2920.61 1145 2696.39 1145 2696.39 1174.24 2790.29 1174.24 2790.29 1342.01 2687 1342.01 2687 1373 2930 1373 2930 1342.01 2826.71 1342.01Z" fill="#686868" fill-rule="evenodd"/></g></svg>