<svg xmlns="http://www.w3.org/2000/svg" viewBox="0 0 170 49"><defs><style>.prefix__cls-1,.prefix__cls-3{fill:#003aaf}.prefix__cls-1{fill-rule:evenodd}</style></defs><g id="prefix__レイヤー_2" data-name="レイヤー 2"><g id="prefix__header"><path class="prefix__cls-1" d="M64.78 2.87A27.32 27.32 0 0051.91.08H2.77l8 4.16L0 34.37h14.4l9.9-27.46h10.36l-9.84 27.46h14.41L49.07 7a8.57 8.57 0 015.44 1.94 6.08 6.08 0 012 4.78 10.49 10.49 0 01-.66 3.49l-6.14 17.16H64l6.22-17a15.05 15.05 0 00.94-4.94C71.11 8.3 69 5.09 64.78 2.87zM140 8.23a16.4 16.4 0 016-1.32h21.57L170 0h-23a42.66 42.66 0 00-13 2.28c-9.1 2.91-15 8-17.56 15.17a14 14 0 00-.93 4.8c0 4.09 2.15 7.27 6.39 9.45a28.1 28.1 0 0012.85 2.69h23l2.45-6.89h-21.63a8.73 8.73 0 01-5.85-1.85 6 6 0 01-2-4.78 10.9 10.9 0 01.7-3.69A14.59 14.59 0 01140 8.23zM123.69.17h-49.2L72 7.05h17.4l-9.81 27.32h14.46l9.81-27.32h17.37z"/><path d="M85.37.17a24.74 24.74 0 0110 2.63q6 3.19 6 9.06a13.54 13.54 0 01-.52 3.54l3-8.32h17.36l2.48-6.91z" fill="#d7000f"/><path class="prefix__cls-3" d="M29.99 41.61l1.37 3.99h.01l1.3-3.99h1.82v5.81h-1.21V43.3h-.02l-1.43 4.12h-1l-1.43-4.07h-.02v4.07h-1.21v-5.81h1.82z"/><path class="prefix__cls-1" d="M38.47 44.2a.83.83 0 00-.64-.23 1 1 0 00-.46.09 1 1 0 00-.3.24.89.89 0 00-.15.29 1.68 1.68 0 00-.06.27h1.9a1.26 1.26 0 00-.29-.66zm-1.32 2.21a1.06 1.06 0 00.76.25 1.12 1.12 0 00.61-.17.8.8 0 00.31-.37h1a1.92 1.92 0 01-.75 1.08 2.3 2.3 0 01-1.23.32 2.38 2.38 0 01-.91-.16 1.84 1.84 0 01-.68-.45 2.06 2.06 0 01-.43-.7 2.56 2.56 0 01-.15-.89 2.33 2.33 0 01.16-.88 2 2 0 01.44-.7 2.18 2.18 0 01.68-.47 2.31 2.31 0 01.89-.17 2 2 0 01.94.21 1.8 1.8 0 01.66.56 2.13 2.13 0 01.37.79 2.92 2.92 0 01.09.94h-3.05a1.21 1.21 0 00.29.81z"/><path class="prefix__cls-3" d="M43.36 43.22V44h-.86v2.08a.61.61 0 00.1.39.63.63 0 00.4.09h.36v.9H42.68a4.22 4.22 0 01-.52 0 1.1 1.1 0 01-.42-.14.7.7 0 01-.29-.3 1 1 0 01-.11-.52V44h-.71v-.77h.71V42h1.16v1.26z"/><path class="prefix__cls-1" d="M46.78 45.46a.86.86 0 01-.23.06H46l-.26.07a.76.76 0 00-.22.11.5.5 0 00-.15.17.54.54 0 00-.06.27.53.53 0 00.06.26.5.5 0 00.15.17.63.63 0 00.23.08 1.24 1.24 0 00.27 0 1 1 0 00.54-.12.73.73 0 00.28-.27.94.94 0 00.11-.32v-.69a.49.49 0 01-.17.21zm-2.3-1.63a1.45 1.45 0 01.46-.43 2.15 2.15 0 01.63-.23 3.33 3.33 0 01.7-.07 4.87 4.87 0 01.65 0 1.9 1.9 0 01.6.17 1.2 1.2 0 01.44.36 1 1 0 01.17.62v2.18a4.91 4.91 0 000 .55 1.07 1.07 0 00.11.39H47.1l-.05-.2L47 47a1.61 1.61 0 01-.66.4 2.87 2.87 0 01-.77.11 2.12 2.12 0 01-.57-.07 1.53 1.53 0 01-.46-.23 1 1 0 01-.3-.39 1.22 1.22 0 01-.11-.56 1.29 1.29 0 01.12-.59 1.19 1.19 0 01.33-.37 1.75 1.75 0 01.46-.21l.52-.11.52-.06.45-.07a.75.75 0 00.31-.15.31.31 0 00.11-.27.6.6 0 00-.06-.29.4.4 0 00-.17-.17.53.53 0 00-.23-.09h-.3a.87.87 0 00-.54.15.65.65 0 00-.23.49h-1.14a1.3 1.3 0 01.2-.69z"/><path class="prefix__cls-3" d="M49.48 41.61h1.17v5.81h-1.17zM54.33 42.69v-1.08h4.8v1.08h-1.75v4.73h-1.29v-4.73h-1.76z"/><path class="prefix__cls-1" d="M62.17 44.2a.85.85 0 00-.64-.23 1 1 0 00-.46.09.82.82 0 00-.3.24.92.92 0 00-.16.29 1.57 1.57 0 000 .27h1.9a1.45 1.45 0 00-.34-.66zm-1.32 2.21a1 1 0 00.75.25 1.09 1.09 0 00.61-.17.74.74 0 00.31-.37h1a2 2 0 01-.76 1.08 2.3 2.3 0 01-1.23.32 2.36 2.36 0 01-.9-.16 1.69 1.69 0 01-.68-.45 1.92 1.92 0 01-.43-.7 2.69 2.69 0 010-1.77 2.19 2.19 0 01.44-.7 2.22 2.22 0 01.69-.47 2.3 2.3 0 01.88-.17 2 2 0 01.95.21 2 2 0 01.66.56 2.3 2.3 0 01.37.79 2.92 2.92 0 01.08.94h-3.03a1.16 1.16 0 00.29.81z"/><path class="prefix__cls-3" d="M66.75 44a.79.79 0 00-.47.13 1.05 1.05 0 00-.31.32 1.29 1.29 0 00-.16.44 2 2 0 000 .48 1.85 1.85 0 000 .46 1.23 1.23 0 00.16.43 1 1 0 00.29.31.85.85 0 00.46.12.89.89 0 00.65-.23 1.11 1.11 0 00.28-.62h1.13a1.9 1.9 0 01-.66 1.27 2.14 2.14 0 01-1.39.44 2.25 2.25 0 01-.87-.16 1.86 1.86 0 01-.68-.44 2.07 2.07 0 01-.43-.68 2.2 2.2 0 01-.16-.86 2.94 2.94 0 01.14-.91 2 2 0 01.43-.72 1.86 1.86 0 01.68-.48 2.4 2.4 0 01.92-.17 2.46 2.46 0 01.72.1 1.75 1.75 0 01.63.3 1.48 1.48 0 01.44.49 1.43 1.43 0 01.2.7h-1.14a.78.78 0 00-.86-.72zM71 41.61v2.19a1.38 1.38 0 01.57-.53 1.55 1.55 0 01.67-.17 1.9 1.9 0 01.77.13 1.06 1.06 0 01.47.35 1.21 1.21 0 01.24.54 3.17 3.17 0 01.07.71v2.59h-1.13V45a1.44 1.44 0 00-.17-.77.64.64 0 00-.58-.26.8.8 0 00-.69.28 1.58 1.58 0 00-.21.92v2.21h-1.17v-5.77zM76.23 43.22v.58a1.34 1.34 0 01.58-.53 1.65 1.65 0 01.72-.17 1.9 1.9 0 01.77.13 1.12 1.12 0 01.47.35 1.33 1.33 0 01.24.54 3.17 3.17 0 01.07.71v2.59h-1.14V45a1.44 1.44 0 00-.17-.77.64.64 0 00-.58-.26.8.8 0 00-.69.28 1.58 1.58 0 00-.21.92v2.21h-1.17v-4.2z"/><path class="prefix__cls-1" d="M81.48 45.81a1.25 1.25 0 00.17.43.87.87 0 00.32.31 1.15 1.15 0 001 0 .8.8 0 00.32-.31 1.25 1.25 0 00.17-.43 2 2 0 000-.49 2.12 2.12 0 000-.5 1.25 1.25 0 00-.17-.43.85.85 0 00-.32-.3 1.06 1.06 0 00-1 0 .93.93 0 00-.32.3 1.25 1.25 0 00-.17.43 2.83 2.83 0 000 .5 2.63 2.63 0 000 .49zm-1.06-1.4a1.88 1.88 0 01.45-.7 1.92 1.92 0 01.69-.45 2.29 2.29 0 01.9-.16 2.45 2.45 0 01.91.16 1.92 1.92 0 01.69.45 1.86 1.86 0 01.44.7 2.67 2.67 0 010 1.82 1.9 1.9 0 01-.44.69 1.92 1.92 0 01-.69.45 2.67 2.67 0 01-.91.15 2.5 2.5 0 01-.9-.15 2 2 0 01-1.14-1.14 2.84 2.84 0 010-1.82z"/><path class="prefix__cls-3" d="M85.86 41.61h1.16v5.81h-1.16z"/><path class="prefix__cls-1" d="M89.43 45.81a1.49 1.49 0 00.17.43 1 1 0 00.32.31 1 1 0 00.49.11 1.09 1.09 0 00.5-.11 1 1 0 00.32-.31 1.49 1.49 0 00.17-.43 2.63 2.63 0 000-.49 2.83 2.83 0 000-.5 1.49 1.49 0 00-.17-.43 1 1 0 00-.32-.3 1 1 0 00-.5-.12.91.91 0 00-.49.12 1 1 0 00-.32.3 1.49 1.49 0 00-.17.43 2.81 2.81 0 000 .5 2.63 2.63 0 000 .49zm-1.05-1.4a1.86 1.86 0 01.44-.7 1.92 1.92 0 01.69-.45 2.64 2.64 0 011.81 0 1.92 1.92 0 01.69.45 2 2 0 01.45.7 2.84 2.84 0 010 1.82 2.06 2.06 0 01-.45.69 1.92 1.92 0 01-.69.45 2.81 2.81 0 01-1.81 0 1.92 1.92 0 01-.69-.45 1.9 1.9 0 01-.44-.69 2.67 2.67 0 010-1.82zM96.19 46.33a.88.88 0 00.31-.26 1.18 1.18 0 00.19-.37 1.61 1.61 0 00.06-.44 2.63 2.63 0 000-.49 1.15 1.15 0 00-.17-.41.74.74 0 00-.3-.28 1 1 0 00-.48-.11.82.82 0 00-.42.1.8.8 0 00-.29.26 1.21 1.21 0 00-.18.38 2.1 2.1 0 000 .91A1.28 1.28 0 0095 46a1 1 0 00.29.29.79.79 0 00.45.11 1 1 0 00.45-.07zm1.6 1.39a1.51 1.51 0 01-.3.61 1.82 1.82 0 01-.67.47 3.1 3.1 0 01-1.8.12 1.93 1.93 0 01-.59-.24 1.26 1.26 0 01-.44-.42 1.2 1.2 0 01-.21-.61h1.16a.65.65 0 00.32.45 1.09 1.09 0 00.55.13.86.86 0 00.72-.29 1.2 1.2 0 00.22-.74v-.56a1.1 1.1 0 01-.54.5 1.8 1.8 0 01-.73.15 1.88 1.88 0 01-.82-.16 1.61 1.61 0 01-.57-.46 1.81 1.81 0 01-.32-.67 3.12 3.12 0 01-.1-.82 2.54 2.54 0 01.11-.78 2.14 2.14 0 01.35-.67 2 2 0 01.57-.46 1.8 1.8 0 01.79-.17 1.54 1.54 0 01.73.16 1.2 1.2 0 01.53.52v-.56h1.11v3.93a3.15 3.15 0 01-.07.57z"/><path class="prefix__cls-3" d="M100.77 48.67a1.79 1.79 0 01-.94.22h-.71v-1h.68a.47.47 0 00.34-.18.63.63 0 00.06-.6l-1.48-3.94H100l1 2.87.93-2.87h1.21l-1.78 4.72a1.42 1.42 0 01-.59.78zM110.45 43.16a1.29 1.29 0 00-.68-.53 1.21 1.21 0 00-.46-.08 1.49 1.49 0 00-.73.17 1.42 1.42 0 00-.5.44 2.17 2.17 0 00-.27.64 3.06 3.06 0 00-.09.74 2.82 2.82 0 00.09.71 2 2 0 00.27.62 1.33 1.33 0 00.5.44 1.39 1.39 0 00.73.17 1.2 1.2 0 00.93-.36 1.62 1.62 0 00.4-.94h1.25a3 3 0 01-.25 1 2.33 2.33 0 01-.54.75 2.19 2.19 0 01-.79.47 3.1 3.1 0 01-2.21-.07 2.44 2.44 0 01-.9-.63 2.72 2.72 0 01-.57-1 3.48 3.48 0 01-.2-1.18 3.66 3.66 0 01.2-1.21 2.86 2.86 0 01.57-1 2.61 2.61 0 01.9-.65 3.11 3.11 0 011.21-.23 3.05 3.05 0 01.92.13 2.59 2.59 0 01.77.44 2 2 0 01.56.65 2.33 2.33 0 01.28.89h-1.25a1.12 1.12 0 00-.14-.38z"/><path class="prefix__cls-1" d="M114.14 45.81a1.25 1.25 0 00.17.43.92.92 0 00.31.31 1.06 1.06 0 00.5.11 1 1 0 00.49-.11.87.87 0 00.32-.31 1.25 1.25 0 00.17-.43 2.63 2.63 0 00.05-.49 2.83 2.83 0 00-.05-.5 1.25 1.25 0 00-.17-.43.93.93 0 00-.32-.3.94.94 0 00-.49-.12 1 1 0 00-.5.12 1 1 0 00-.31.3 1.25 1.25 0 00-.17.43 2.83 2.83 0 000 .5 2.63 2.63 0 000 .49zm-1.06-1.4a2 2 0 01.44-.7 2.11 2.11 0 01.69-.45 2.64 2.64 0 011.81 0 2 2 0 01.7.45 1.86 1.86 0 01.44.7 2.67 2.67 0 010 1.82 1.9 1.9 0 01-.44.69 2 2 0 01-.7.45 2.81 2.81 0 01-1.81 0 2.11 2.11 0 01-.69-.45 2 2 0 01-.44-.69 2.67 2.67 0 010-1.82z"/><path class="prefix__cls-3" d="M118.04 46.16h1.29v1.26h-1.29zM123.31 41.61v4.73h2.85v1.08h-4.14v-5.81h1.29zM129.5 43.22V44h-.85v2.08a.55.55 0 00.1.39.62.62 0 00.39.09h.36v.9H128.82a4.06 4.06 0 01-.51 0 1.21 1.21 0 01-.43-.14.76.76 0 01-.29-.3 1.09 1.09 0 01-.1-.52V44h-.71v-.77h.71V42h1.16v1.26z"/><path class="prefix__cls-1" d="M133.44 44.8a1.32 1.32 0 00-.17-.42 1 1 0 00-.31-.3 1 1 0 00-.48-.11 1 1 0 00-.48.11 1 1 0 00-.32.31 1.32 1.32 0 00-.17.42 2.73 2.73 0 000 .5 2.05 2.05 0 00.06.49 1.19 1.19 0 00.18.43 1 1 0 00.32.31.85.85 0 00.46.12 1 1 0 00.48-.11.92.92 0 00.31-.31 1.49 1.49 0 00.17-.43 2.85 2.85 0 000-.51 2.74 2.74 0 00-.05-.5zm0 2.08a1.14 1.14 0 01-.53.49 1.79 1.79 0 01-.75.15 1.86 1.86 0 01-.84-.18 1.71 1.71 0 01-.6-.5 2.41 2.41 0 01-.35-.72 2.94 2.94 0 01-.12-.84 2.86 2.86 0 01.12-.82 2.24 2.24 0 01.35-.69 2 2 0 01.59-.49 1.8 1.8 0 01.82-.18 1.64 1.64 0 01.72.16 1.24 1.24 0 01.54.47v-2.12h1.17v5.81h-1.06v-.54z"/><path class="prefix__cls-3" d="M135.62 46.16h1.29v1.26h-1.29z"/></g></g></svg>