<?xml version="1.0" encoding="UTF-8"?>
<svg version="1.1" xmlns="http://www.w3.org/2000/svg" width="1763" height="221">
<path d="M0 0 C33 0 66 0 100 0 C100 5.28 100 10.56 100 16 C72.28 16 44.56 16 16 16 C16 26.56 16 37.12 16 48 C42.07 48 68.14 48 95 48 C94 53 94 53 89 64 C64.91 64 40.82 64 16 64 C16 74.56 16 85.12 16 96 C43.72 96 71.44 96 100 96 C100 100.95 100 105.9 100 111 C67 111 34 111 0 111 C0 74.37 0 37.74 0 0 Z " fill="#0E0E0E" transform="translate(1086,108)"/>
<path d="M0 0 C33 0 66 0 100 0 C100 5.28 100 10.56 100 16 C72.28 16 44.56 16 16 16 C16 26.56 16 37.12 16 48 C42.07 48 68.14 48 95 48 C94 53 94 53 89 64 C64.91 64 40.82 64 16 64 C16 74.56 16 85.12 16 96 C43.72 96 71.44 96 100 96 C100 100.95 100 105.9 100 111 C67 111 34 111 0 111 C0 74.37 0 37.74 0 0 Z " fill="#0E0E0E" transform="translate(1663,108)"/>
<path d="M0 0 C3.82850522 2.29710313 6.44491762 4.15763216 9.625 7.125 C13.16500368 10.37087874 16.76303365 13.48290252 20.5 16.5 C24.96276213 20.11032442 29.22719533 23.88427929 33.46875 27.75 C36.0884481 30.07862053 38.7751531 32.29562947 41.5 34.5 C45.0947765 37.4081338 48.58260628 40.38541332 52 43.5 C56.19729034 47.32170863 60.53710231 50.91474189 64.94921875 54.484375 C69.12182973 57.9250427 73.19461074 61.47594313 77.25854492 65.04394531 C82.740392 69.83650353 88.35178736 74.37873511 94 79 C94.33 53.59 94.66 28.18 95 2 C100.28 2 105.56 2 111 2 C111 39.29 111 76.58 111 115 C106.30355725 113.1214229 104.41410008 111.81285067 100.875 108.4375 C97.15353467 104.96080219 93.40628308 101.63504439 89.4375 98.4375 C85.86171531 95.55151207 82.39598682 92.59555196 79 89.5 C75.68010514 86.47717579 72.30235888 83.57487839 68.8125 80.75 C62.37288007 75.53481485 56.14544597 70.08668248 49.89648438 64.64648438 C45.78546254 61.07738921 41.64500277 57.54258692 37.5078125 54.00390625 C35.0393548 51.89237607 32.57672272 49.77425966 30.1171875 47.65234375 C29.48047119 47.10392822 28.84375488 46.5555127 28.18774414 45.99047852 C26.96705628 44.93888477 25.74743536 43.88605084 24.52905273 42.83178711 C22.08566007 40.7293163 19.68613128 38.79075418 17 37 C16.67 62.08 16.34 87.16 16 113 C10.72 113 5.44 113 0 113 C0 75.71 0 38.42 0 0 Z " fill="#0E0E0E" transform="translate(1525,106)"/>
<path d="M0 0 C2.66861895 0.00560429 5.33723732 0.00958717 8.00585938 0.01367188 C14.48309328 0.02458543 20.96029224 0.04123385 27.4375 0.0625 C26.96162884 6.09020138 24.24027043 10.82928289 21.4375 16.0625 C20.65124741 16.06614563 19.86499481 16.06979126 19.05491638 16.07354736 C11.62516948 16.11150093 4.19591994 16.16843626 -3.2335062 16.24640274 C-7.0525789 16.28581947 -10.87142305 16.31803603 -14.69067383 16.33349609 C-18.38032259 16.3487015 -22.06934278 16.38321426 -25.75871086 16.43080902 C-27.16236833 16.44558313 -28.56611557 16.45353873 -29.96985054 16.45438385 C-40.48791118 16.38863518 -40.48791118 16.38863518 -49.5625 21.0625 C-52.19646359 24.07735538 -53.44866456 27.38058143 -53.71875 31.37109375 C-53.37177785 36.51495589 -52.02893335 40.12762971 -48.5625 44.0625 C-42.96528935 47.85259021 -37.42974024 47.50320681 -30.91796875 47.50390625 C-29.79360916 47.51711411 -28.66924957 47.53032196 -27.51081848 47.54393005 C-23.92385391 47.5847396 -20.33714374 47.60646117 -16.75 47.625 C-13.17364714 47.64886968 -9.59753096 47.67715138 -6.02131653 47.71678162 C-3.79979169 47.74092593 -1.5781427 47.7559568 0.64350891 47.76039124 C12.19483489 47.87563618 21.99092065 49.73686961 30.51953125 58.10546875 C36.50939585 65.23025507 39.13165407 73.18797312 38.78125 82.48828125 C37.47717218 92.25404583 33.0386404 99.28935427 25.640625 105.59375 C19.64976189 110.15316794 13.89809703 111.36363998 6.41259766 111.28955078 C5.63143585 111.28984283 4.85027405 111.29013489 4.04544067 111.29043579 C1.48069897 111.28904992 -1.08374697 111.27352398 -3.6484375 111.2578125 C-5.43348024 111.25407972 -7.21852503 111.251234 -9.00357056 111.24923706 C-13.68892123 111.24162143 -18.3741468 111.22199079 -23.05944824 111.1998291 C-27.84560453 111.17932599 -32.63178115 111.17022581 -37.41796875 111.16015625 C-46.79954282 111.13874287 -56.1809914 111.10357767 -65.5625 111.0625 C-65.5625 106.1125 -65.5625 101.1625 -65.5625 96.0625 C-63.26659912 96.0531543 -60.97069824 96.04380859 -58.60522461 96.03417969 C-51.00549599 96.00035849 -43.40603745 95.944781 -35.80652523 95.87859726 C-31.20051114 95.83914807 -26.59468749 95.8069471 -21.98852539 95.79150391 C-17.54031628 95.77632038 -13.09263082 95.741845 -8.64465523 95.69419098 C-6.95071536 95.67939461 -5.25670073 95.67145999 -3.56269646 95.67061615 C-1.18308056 95.66823939 1.19509643 95.64110533 3.57446289 95.60839844 C4.26930283 95.6134288 4.96414276 95.61845917 5.68003845 95.62364197 C11.05741092 95.50985802 14.08384523 93.99651846 18.4375 91.0625 C21.60529021 87.26115175 22.58687014 82.96370756 22.4375 78.0625 C20.84267502 72.83501811 18.59278047 69.5944884 14.4375 66.0625 C11.39358778 65.04786259 9.21315713 64.8983086 6.02319336 64.82885742 C4.91451401 64.80180222 3.80583466 64.77474701 2.66355896 64.74687195 C1.46360794 64.72083389 0.26365692 64.69479584 -0.97265625 64.66796875 C-3.51499689 64.59914945 -6.05731411 64.52946002 -8.59960938 64.45898438 C-12.60632992 64.35192617 -16.61265118 64.2502664 -20.61987305 64.16381836 C-24.48811371 64.07795313 -28.35512674 63.96852017 -32.22265625 63.85546875 C-33.40843765 63.83550339 -34.59421906 63.81553802 -35.81593323 63.79496765 C-45.4025823 63.48541518 -53.85327942 61.53207866 -61.03125 54.828125 C-67.23254141 47.67765633 -70.06082632 39.06363173 -69.8046875 29.671875 C-69.00050599 21.00746771 -65.82423856 14.14997867 -59.5625 8.0625 C-42.98250601 -3.91333785 -19.48806912 -0.0642131 0 0 Z " fill="#0E0E0E" transform="translate(69.5625,107.9375)"/>
<path d="M0 0 C7.0377267 6.08252822 11.94517212 12.54097596 15.50390625 21.1640625 C15.50390625 21.4940625 15.50390625 21.8240625 15.50390625 22.1640625 C0.47761378 23.54716442 0.47761378 23.54716442 -4.0546875 20.37109375 C-5.31585345 18.80577967 -6.52599134 17.1980695 -7.68359375 15.5546875 C-13.08808757 8.42634652 -22.91928371 5.11315023 -31.45703125 3.66015625 C-45.16001645 2.08414706 -58.16083751 5.51526158 -69.24609375 13.7265625 C-75.32382871 19.25701327 -79.14997766 28.12805012 -79.61669922 36.26733398 C-80.08756885 50.01031887 -80.04527939 62.30134259 -70.49609375 73.1640625 C-59.52893839 82.5974969 -46.66023815 84.93922671 -32.66748047 84.33447266 C-21.6512286 83.4699186 -12.55575411 78.22372286 -4.84375 70.51171875 C-0.65538826 65.30491038 0.31648653 59.72632167 2.50390625 53.1640625 C-8.38609375 53.1640625 -19.27609375 53.1640625 -30.49609375 53.1640625 C-28.49609375 47.1640625 -28.49609375 47.1640625 -24.49609375 38.1640625 C-10.63609375 38.1640625 3.22390625 38.1640625 17.50390625 38.1640625 C17.50390625 56.31002609 17.38622913 69.88614441 5.45703125 83.5 C-7.4277691 96.16861243 -23.81135719 100.98861868 -41.49609375 101.1640625 C-54.85119458 100.38693379 -66.85051063 96.29494094 -77.49609375 88.1640625 C-78.41648437 87.50664062 -78.41648437 87.50664062 -79.35546875 86.8359375 C-88.58502843 79.72999332 -93.89656045 68.50026926 -95.49609375 57.1640625 C-95.73165665 52.95748021 -95.7269674 48.75164145 -95.74609375 44.5390625 C-95.76671875 43.42660156 -95.78734375 42.31414062 -95.80859375 41.16796875 C-95.87550238 26.7993407 -92.20343292 14.07485084 -82.24609375 3.3515625 C-59.84392245 -17.15042463 -23.95621641 -18.62098918 0 0 Z " fill="#0E0E0E" transform="translate(740.49609375,119.8359375)"/>
<path d="M0 0 C16.27053089 -0.57341078 32.0757415 4.5850054 44.66015625 14.96875 C50.30235152 20.44850203 55.45612258 27.23686015 56.59765625 35.15625 C41.26211954 36.38582533 41.26211954 36.38582533 37.51953125 33.62109375 C36.22265625 31.59375 36.22265625 31.59375 35.02734375 29.390625 C30.95424928 23.02502381 22.2993839 19.46121154 15.1875 17.65234375 C-0.09396032 14.72512586 -12.79733345 16.96313356 -25.7578125 25.75390625 C-31.98651676 30.69713683 -35.77098167 37.38206182 -37.40234375 45.15625 C-37.67686276 49.00671036 -37.67969615 52.85954326 -37.71484375 56.71875 C-37.74384766 57.75322266 -37.77285156 58.78769531 -37.80273438 59.85351562 C-37.88625036 70.11313339 -35.56189655 78.93909626 -28.30078125 86.4453125 C-18.29917087 95.45910951 -5.64346848 98.08548162 7.5078125 97.5390625 C18.93168247 96.69520869 28.74328746 91.56130462 36.47265625 83.21875 C40.93832185 77.79172583 42.42621152 73.18491836 43.59765625 66.15625 C33.03765625 66.15625 22.47765625 66.15625 11.59765625 66.15625 C14.59765625 57.15625 14.59765625 57.15625 17.59765625 51.15625 C31.45765625 51.15625 45.31765625 51.15625 59.59765625 51.15625 C59.59765625 67.82584497 59.37666192 83.59849578 47.5703125 96.37109375 C33.55911978 109.05052954 16.95912186 114.80921364 -1.96484375 114.03125 C-18.06886161 112.57938518 -32.414816 106.1461487 -43.40234375 94.15625 C-51.40154251 83.11938083 -53.61749734 73.13093225 -53.69750977 59.67578125 C-53.7145552 57.68986756 -53.75841535 55.70424227 -53.80273438 53.71875 C-53.88991035 40.30706093 -51.04389054 29.54449242 -42.40234375 19.15625 C-41.87898438 18.52074219 -41.355625 17.88523437 -40.81640625 17.23046875 C-30.41774706 5.79194364 -15.00559199 0.97597346 0 0 Z " fill="#0E0E0E" transform="translate(1400.40234375,106.84375)"/>
<path d="M0 0 C4.78881051 3.59160789 9.02818512 6.79470548 13.3125 10.8125 C17.84365617 14.99318 22.52026176 18.91422545 27.31640625 22.78515625 C29.94708557 24.95632827 32.47942424 27.20241357 35 29.5 C38.31989486 32.52282421 41.69764112 35.42512161 45.1875 38.25 C51.62711993 43.46518515 57.85455403 48.91331752 64.10351562 54.35351562 C69.37691254 58.93175826 74.69443015 63.45919697 80 68 C84.62 71.96 89.24 75.92 94 80 C94.33 54.26 94.66 28.52 95 2 C99.95 2 104.9 2 110 2 C110 39.29 110 76.58 110 115 C105.90036716 112.95018358 102.83935744 110.43196879 99.4375 107.4375 C98.18189775 106.34530925 96.92537747 105.25417303 95.66796875 104.1640625 C95.04712402 103.62555664 94.4262793 103.08705078 93.78662109 102.53222656 C91.31294947 100.41077766 88.78535898 98.35959442 86.25 96.3125 C81.86848205 92.75732096 77.68289319 89.03230463 73.51171875 85.234375 C70.99848768 82.99865467 68.42688521 80.86622318 65.8125 78.75 C59.37288007 73.53481485 53.14544597 68.08668248 46.89648438 62.64648438 C43.92144786 60.06362569 40.93053302 57.49946203 37.9375 54.9375 C37.37353516 54.45458496 36.80957031 53.97166992 36.22851562 53.47412109 C34.48595925 51.98241733 32.74301804 50.49116429 31 49 C28.39537541 46.77136767 25.79130516 44.54208961 23.1875 42.3125 C22.58220459 41.79486084 21.97690918 41.27722168 21.35327148 40.74389648 C17.11283235 37.11283235 17.11283235 37.11283235 16 36 C15.67 61.41 15.34 86.82 15 113 C10.05 113 5.1 113 0 113 C0 75.71 0 38.42 0 0 Z " fill="#0E0E0E" transform="translate(1214,106)"/>
<path d="M0 0 C10.869375 -0.04125 21.73875 -0.0825 32.9375 -0.125 C36.35343506 -0.14320801 39.76937012 -0.16141602 43.28881836 -0.18017578 C46.01415856 -0.18602025 48.73950051 -0.19111592 51.46484375 -0.1953125 C52.16194962 -0.20053925 52.85905548 -0.20576599 53.57728577 -0.21115112 C66.08230412 -0.30012041 77.62491957 0.13975939 87.23828125 9.08203125 C94.58634361 16.96742906 97.37076803 24.55981127 97.2109375 35.31640625 C96.35951556 46.14838541 91.09800618 53.60686641 83.1015625 60.578125 C79.9146574 62.73432102 76.46449802 64.33812524 73 66 C73.48073975 66.73597412 73.48073975 66.73597412 73.97119141 67.48681641 C80.60613442 77.6516336 87.20753698 87.83788093 93.75 98.0625 C94.3579541 99.00754395 94.9659082 99.95258789 95.59228516 100.92626953 C96.1547998 101.80782715 96.71731445 102.68938477 97.296875 103.59765625 C97.79541992 104.37633057 98.29396484 105.15500488 98.80761719 105.95727539 C100 108 100 108 101 111 C85.24506424 112.50047007 85.24506424 112.50047007 80.66796875 109.44140625 C78.81671012 106.73716263 77.44642079 103.94306452 76 101 C74.60738135 98.71053918 73.16142637 96.46026185 71.70947266 94.20800781 C70.12613495 91.75176065 68.57200114 89.27907058 67.0234375 86.80078125 C65.11634396 83.76024938 63.18859041 80.73584218 61.2265625 77.73046875 C60.59596924 76.76318848 60.59596924 76.76318848 59.95263672 75.77636719 C59.1688846 74.57798698 58.38161488 73.38189768 57.59033203 72.18847656 C55 68.21994728 55 68.21994728 55 66 C47.41 66 39.82 66 32 66 C32.83282712 61.83586441 33.66079038 59.34463388 35.5625 55.6875 C36.01753906 54.80449219 36.47257812 53.92148438 36.94140625 53.01171875 C37.29074219 52.34785156 37.64007813 51.68398437 38 51 C39.25490234 50.98598145 39.25490234 50.98598145 40.53515625 50.97167969 C43.67416015 50.9273582 46.81222868 50.86560805 49.95068359 50.79248047 C51.9629854 50.75076728 53.97566395 50.72871469 55.98828125 50.70703125 C64.64487372 50.48952893 71.0095913 49.9904087 77.375 43.625 C80.43693763 38.67879306 81.48953918 34.65930151 80.53125 28.953125 C79.04174963 23.47702069 75.79452452 20.47046564 71.07421875 17.76171875 C53.50723904 11.31056801 33.70982772 15.39808144 15 15 C15 46.68 15 78.36 15 111 C10.05 111 5.1 111 0 111 C0 74.37 0 37.74 0 0 Z " fill="#0E0E0E" transform="translate(366,108)"/>
<path d="M0 0 C4.95 0 9.9 0 15 0 C15 15.84 15 31.68 15 48 C37.77 48 60.54 48 84 48 C84 32.16 84 16.32 84 0 C89.28 0 94.56 0 100 0 C100 36.63 100 73.26 100 111 C94.72 111 89.44 111 84 111 C84 95.49 84 79.98 84 64 C61.23 64 38.46 64 15 64 C15 79.51 15 95.02 15 111 C10.05 111 5.1 111 0 111 C0 74.37 0 37.74 0 0 Z " fill="#0E0E0E" transform="translate(781,108)"/>
<path d="M0 0 C5.61 0 11.22 0 17 0 C22.43233763 10.64518687 27.46739042 21.36719531 32.21234131 32.33349609 C34.14009375 36.78684486 36.08325027 41.23345282 38.02734375 45.6796875 C38.42959167 46.59989685 38.8318396 47.5201062 39.24627686 48.46820068 C45.72278835 63.25110332 52.42304811 77.93502754 59.1096344 92.62380981 C59.75126124 94.03442962 60.39095046 95.4459327 61.02850342 96.85839844 C61.72156605 98.38621031 62.42379731 99.90987677 63.13214111 101.43066406 C63.49926208 102.22956055 63.86638306 103.02845703 64.24462891 103.8515625 C64.58056061 104.57424316 64.91649231 105.29692383 65.26260376 106.04150391 C66 108 66 108 66 111 C60.39 111 54.78 111 49 111 C47.92105469 108.52757812 46.84210938 106.05515625 45.73046875 103.5078125 C36.6648847 82.7643192 27.47440979 62.08272486 18.1081543 41.47314453 C17.52742661 40.19482758 17.52742661 40.19482758 16.93496704 38.89068604 C16.2164593 37.30986316 15.49718456 35.72938854 14.77694702 34.14935303 C12.79375248 29.78933297 10.87087913 25.40943799 9 21 C3.72143452 32.22113433 -1.41674262 43.5017016 -6.5 54.8125 C-6.88485565 55.66764191 -7.2697113 56.52278381 -7.66622925 57.40383911 C-11.9689122 66.96529522 -16.24894053 76.53618331 -20.47265625 86.1328125 C-20.82222382 86.92699081 -21.17179138 87.72116913 -21.5319519 88.53941345 C-23.18976261 92.30862561 -24.8435131 96.07956605 -26.4921875 99.8527832 C-27.07942314 101.19222178 -27.6666625 102.53165873 -28.25390625 103.87109375 C-28.76252197 105.03568115 -29.2711377 106.20026855 -29.79516602 107.40014648 C-31 110 -31 110 -32 111 C-34.86267567 111.07325168 -37.700719 111.09238205 -40.5625 111.0625 C-41.36880859 111.05798828 -42.17511719 111.05347656 -43.00585938 111.04882812 C-45.00393756 111.03700518 -47.00197783 111.01906914 -49 111 C-43.40491994 97.6503353 -37.52183282 84.4398441 -31.5625 71.25 C-23.15509253 52.64074236 -14.91094847 33.96262851 -6.7379303 15.24934387 C-4.51257324 10.15695829 -2.26083541 5.07673929 0 0 Z " fill="#0E0E0E" transform="translate(278,108)"/>
<path d="M0 0 C33.33 0 66.66 0 101 0 C100 6 100 6 95 16 C82.79 16 70.58 16 58 16 C58 47.35 58 78.7 58 111 C53.05 111 48.1 111 43 111 C43 79.65 43 48.3 43 16 C28.81 16 14.62 16 0 16 C0 10.72 0 5.44 0 0 Z " fill="#0E0E0E" transform="translate(903,108)"/>
<path d="M0 0 C33.33 0 66.66 0 101 0 C100 5 100 5 95 16 C82.46 16 69.92 16 57 16 C57 47.35 57 78.7 57 111 C52.05 111 47.1 111 42 111 C42 79.65 42 48.3 42 16 C28.14 16 14.28 16 0 16 C0 10.72 0 5.44 0 0 Z " fill="#0E0E0E" transform="translate(119,108)"/>
<path d="M0 0 C4.95 0 9.9 0 15 0 C15 31.68 15 63.36 15 96 C41.73 96 68.46 96 96 96 C95 102 95 102 91 111 C60.97 111 30.94 111 0 111 C0 74.37 0 37.74 0 0 Z " fill="#0E0E0E" transform="translate(488,108)"/>
<path d="M0 0 C4.95 0 9.9 0 15 0 C15 36.63 15 73.26 15 111 C10.05 111 5.1 111 0 111 C0 74.37 0 37.74 0 0 Z " fill="#0E0E0E" transform="translate(1483,108)"/>
<path d="M0 0 C4.95 0 9.9 0 15 0 C15 36.63 15 73.26 15 111 C10.05 111 5.1 111 0 111 C0 74.37 0 37.74 0 0 Z " fill="#0E0E0E" transform="translate(607,108)"/>
<path d="M0 0 C5.61 0 11.22 0 17 0 C14.91809657 6.57161672 12.44226212 12.80741089 9.61328125 19.08984375 C9.19257858 20.03324112 8.77187592 20.97663849 8.33842468 21.94862366 C7.00039783 24.94669847 5.65659837 27.94214302 4.3125 30.9375 C3.4299471 32.91193445 2.54778262 34.88654257 1.66601562 36.86132812 C-0.05841153 40.72207748 -1.78493148 44.58187942 -3.51318359 48.44091797 C-7.02532861 56.28660919 -10.51225405 64.14343608 -14 72 C-19.61 72 -25.22 72 -31 72 C-28.99461252 65.67392121 -26.6446904 59.69442374 -23.8671875 53.671875 C-23.47105255 52.80218079 -23.0749176 51.93248657 -22.66677856 51.03643799 C-21.40712362 48.27231785 -20.14153684 45.51097273 -18.875 42.75 C-17.22345801 39.14203592 -15.57497518 35.53269546 -13.9296875 31.921875 C-13.52490173 31.03375122 -13.12011597 30.14562744 -12.70306396 29.23059082 C-8.31239131 19.55412553 -4.14354401 9.78430357 0 0 Z " fill="#0E0E0E" transform="translate(326,0)"/>
</svg>
