<?xml version="1.0" encoding="UTF-8"?>
<svg id="Layer_2" data-name="Layer 2" xmlns="http://www.w3.org/2000/svg" viewBox="0 0 641.91 46.32">
  <defs>
    <style>
      .cls-1 {
        fill: #fff;
        stroke-width: 0px;
      }
    </style>
  </defs>
  <g id="LOGO">
    <g>
      <path class="cls-1" d="M20.59,46.32c-2.82,0-5.47-.25-7.95-.75-2.48-.5-4.66-1.31-6.55-2.44-1.89-1.13-3.38-2.62-4.46-4.46-1.09-1.85-1.63-4.12-1.63-6.81v-.59c0-.22.02-.39.07-.52h11.27c0,.13-.01.29-.03.49-.02.2-.03.36-.03.49,0,1.39.36,2.51,1.07,3.35.72.85,1.73,1.46,3.03,1.82,1.3.37,2.82.56,4.56.56.96,0,1.85-.04,2.67-.13.82-.09,1.56-.24,2.22-.46s1.23-.49,1.73-.81c.5-.33.87-.72,1.11-1.17s.36-.99.36-1.6c0-1-.38-1.82-1.14-2.48-.76-.65-1.78-1.19-3.06-1.63-1.28-.43-2.73-.85-4.33-1.24-1.61-.39-3.28-.8-5.01-1.24-1.74-.43-3.41-.98-5.02-1.63-1.61-.65-3.05-1.48-4.33-2.48-1.28-1-2.3-2.25-3.06-3.75-.76-1.5-1.14-3.31-1.14-5.44,0-2.34.5-4.38,1.5-6.09,1-1.71,2.38-3.12,4.14-4.2,1.76-1.08,3.79-1.88,6.09-2.38,2.3-.5,4.75-.75,7.36-.75s4.96.26,7.2.78c2.24.52,4.22,1.34,5.96,2.44,1.74,1.11,3.1,2.5,4.07,4.17s1.49,3.68,1.53,6.03v.78h-11.2v-.46c0-1-.27-1.88-.82-2.64-.54-.76-1.36-1.37-2.44-1.82-1.08-.46-2.43-.68-4.04-.68s-2.96.15-4.07.46-1.95.74-2.54,1.3-.88,1.24-.88,2.02c0,.96.38,1.74,1.14,2.35s1.79,1.13,3.1,1.56c1.3.43,2.76.83,4.36,1.2,1.6.37,3.27.76,4.98,1.17,1.72.41,3.38.93,4.98,1.56s3.06,1.43,4.36,2.41,2.33,2.18,3.1,3.62c.76,1.43,1.14,3.17,1.14,5.21,0,3.56-.84,6.43-2.51,8.6-1.67,2.17-3.98,3.76-6.91,4.76-2.93,1-6.25,1.5-9.94,1.5Z"/>
      <path class="cls-1" d="M55.7,45.54V10.36h-14.53V.78h40.72v9.58h-14.53v35.18h-11.66Z"/>
      <path class="cls-1" d="M77.14,45.54L93.95.78h14.01l16.81,44.76h-12.44l-2.67-7.75h-17.85l-2.67,7.75h-11.99ZM94.6,29.06h12.18l-3.19-9.45c-.17-.48-.38-1.08-.62-1.79s-.48-1.48-.72-2.28c-.24-.8-.47-1.62-.68-2.44-.22-.83-.43-1.54-.65-2.15h-.46c-.17.83-.42,1.76-.75,2.8-.33,1.04-.65,2.09-.98,3.13-.32,1.04-.62,1.96-.88,2.74l-3.26,9.45Z"/>
      <path class="cls-1" d="M128.47,45.54V.78h26c3.3,0,6.06.62,8.27,1.86,2.21,1.24,3.88,2.93,4.98,5.08,1.11,2.15,1.66,4.55,1.66,7.2,0,2.87-.66,5.42-1.99,7.65s-3.18,3.98-5.57,5.24l8.99,17.72h-13.03l-7.43-15.77h-10.23v15.77h-11.66ZM140.14,21.11h12.05c1.6,0,2.9-.53,3.88-1.6.98-1.06,1.47-2.49,1.47-4.27,0-1.17-.22-2.17-.65-3-.43-.82-1.04-1.47-1.82-1.92-.78-.46-1.74-.68-2.87-.68h-12.05v11.47Z"/>
      <path class="cls-1" d="M175.71,45.54V.78h11.66v35.18h22.74v9.58h-34.4Z"/>
      <path class="cls-1" d="M214.67,45.54V.78h11.66v44.76h-11.66Z"/>
      <path class="cls-1" d="M254.86,46.32c-7.21,0-12.69-1.91-16.45-5.73-3.76-3.82-5.63-9.64-5.63-17.46,0-5.17.92-9.46,2.77-12.87,1.85-3.41,4.54-5.97,8.08-7.69,3.54-1.72,7.81-2.57,12.8-2.57,3,0,5.82.35,8.47,1.04,2.65.69,4.99,1.73,7.04,3.1,2.04,1.37,3.62,3.08,4.75,5.15s1.7,4.49,1.7,7.26h-11.47c0-1.17-.26-2.23-.78-3.16-.52-.93-1.25-1.71-2.18-2.34-.94-.63-2.01-1.11-3.22-1.43-1.22-.32-2.5-.49-3.84-.49-2,0-3.77.26-5.31.78-1.54.52-2.81,1.33-3.81,2.41-1,1.09-1.75,2.41-2.25,3.98-.5,1.56-.75,3.39-.75,5.47v2.87c0,2.78.43,5.1,1.3,6.97.87,1.87,2.18,3.27,3.94,4.2s3.92,1.4,6.48,1.4c2,0,3.79-.3,5.38-.91,1.58-.61,2.84-1.49,3.78-2.64s1.4-2.53,1.4-4.14v-.32h-12.05v-8.21h23.39v24.56h-6.78l-1.11-4.69c-1.35,1.22-2.79,2.24-4.33,3.06-1.54.83-3.24,1.43-5.08,1.82s-3.92.59-6.22.59Z"/>
      <path class="cls-1" d="M287.24,45.54V.78h11.66v17.2h18.18V.78h11.66v44.76h-11.66v-18.05h-18.18v18.05h-11.66Z"/>
      <path class="cls-1" d="M349.39,45.54V10.36h-14.53V.78h40.72v9.58h-14.53v35.18h-11.66Z"/>
      <path class="cls-1" d="M391.35,45.54V.78h36.94v9.12h-25.28v8.4h22.09v8.93h-22.09v9.19h25.73v9.12h-37.4Z"/>
      <path class="cls-1" d="M435.13,45.54V.78h10.36l16.29,20.78c.3.35.71.85,1.21,1.5.5.65.99,1.31,1.47,1.99s.82,1.2,1.04,1.6l.32-.07V.78h10.81v44.76h-10.29l-17.26-21.89c-.57-.69-1.1-1.41-1.6-2.15-.5-.74-.9-1.34-1.2-1.82l-.33.07v25.8h-10.81Z"/>
      <path class="cls-1" d="M505.16,46.32c-7.21,0-12.69-1.91-16.45-5.73-3.76-3.82-5.63-9.64-5.63-17.46,0-5.17.92-9.46,2.77-12.87,1.85-3.41,4.54-5.97,8.08-7.69,3.54-1.72,7.81-2.57,12.8-2.57,3,0,5.82.35,8.47,1.04,2.65.69,4.99,1.73,7.04,3.1,2.04,1.37,3.62,3.08,4.75,5.15s1.7,4.49,1.7,7.26h-11.47c0-1.17-.26-2.23-.78-3.16-.52-.93-1.25-1.71-2.18-2.34-.94-.63-2.01-1.11-3.22-1.43-1.22-.32-2.5-.49-3.84-.49-2,0-3.77.26-5.31.78-1.54.52-2.81,1.33-3.81,2.41-1,1.09-1.75,2.41-2.25,3.98-.5,1.56-.75,3.39-.75,5.47v2.87c0,2.78.43,5.1,1.3,6.97.87,1.87,2.18,3.27,3.94,4.2s3.92,1.4,6.48,1.4c2,0,3.79-.3,5.38-.91,1.58-.61,2.84-1.49,3.78-2.64s1.4-2.53,1.4-4.14v-.32h-12.05v-8.21h23.39v24.56h-6.78l-1.11-4.69c-1.35,1.22-2.79,2.24-4.33,3.06-1.54.83-3.24,1.43-5.08,1.82s-3.92.59-6.22.59Z"/>
      <path class="cls-1" d="M536.24,45.54V.78h11.66v44.76h-11.66Z"/>
      <path class="cls-1" d="M556.04,45.54V.78h10.36l16.29,20.78c.3.35.71.85,1.21,1.5.5.65.99,1.31,1.47,1.99s.82,1.2,1.04,1.6l.32-.07V.78h10.81v44.76h-10.29l-17.26-21.89c-.57-.69-1.1-1.41-1.6-2.15-.5-.74-.9-1.34-1.2-1.82l-.33.07v25.8h-10.81Z"/>
      <path class="cls-1" d="M604.51,45.54V.78h36.94v9.12h-25.28v8.4h22.09v8.93h-22.09v9.19h25.73v9.12h-37.4Z"/>
    </g>
  </g>
</svg>