<?xml version="1.0" encoding="UTF-8"?>
<svg id="_レイヤー_1" data-name="レイヤー 1" xmlns="http://www.w3.org/2000/svg" xmlns:xlink="http://www.w3.org/1999/xlink" viewBox="0 0 478.721 135.153">
  <defs>
    <style>
      .cls-1 {
        fill: #df0615;
      }

      .cls-2 {
        fill: none;
      }

      .cls-3 {
        fill: #231815;
      }

      .cls-4 {
        clip-path: url(#clippath);
      }
    </style>
    <clipPath id="clippath">
      <rect class="cls-2" width="478.721" height="135.153"/>
    </clipPath>
  </defs>
  <rect id="__white_background__" x="0" y="0" width="478.721" height="135.153" fill="#ffffff"/>

  <polygon class="cls-1" points="73.117 80.283 88.567 53.527 73.114 26.762 57.664 53.522 73.117 80.283"/>
  <polygon class="cls-1" points="73.117 80.283 88.566 107.045 119.466 107.045 104.015 80.283 73.117 80.283"/>
  <polygon class="cls-1" points="73.117 80.283 42.214 80.283 26.762 107.045 57.668 107.045 73.117 80.283"/>
  <g class="cls-4">
    <path class="cls-3" d="M368.403,58.414h-27.69v-3.702h30.399v-6.911h-30.399v-2.79c9.618-.297,18.724-.829,28.604-1.788l-1.087-7.348c-22.339,2.065-42.267,2.501-65.785,2.501l.988,7.002c10.14,0,18.967-.013,27.166-.139v2.562h-30.398v6.911h30.398v3.702h-27.688v26.547h27.688v3.321h-27.688v6.642h27.688v4.219h-30.398v7.9h70.911v-7.9h-30.399v-4.219h27.69v-6.642h-27.69v-3.321h27.69v-26.547ZM311.993,64.517h18.605v4.331h-18.605v-4.331ZM311.993,74.369h18.605v4.488h-18.605v-4.488ZM359.323,78.857h-18.61v-4.488h18.61v4.488ZM359.323,68.848h-18.61v-4.331h18.61v4.331Z"/>
    <polygon class="cls-3" points="228.883 50.586 238.573 50.586 238.573 46.753 262.552 46.753 262.552 50.586 272.241 50.586 272.241 46.753 286.018 46.753 286.018 40.081 272.241 40.081 272.241 36.133 262.552 36.133 262.552 40.081 238.573 40.081 238.573 36.133 228.883 36.133 228.883 40.081 215.107 40.081 215.107 46.753 228.883 46.753 228.883 50.586"/>
    <path class="cls-3" d="M287.813,100.401c-8.978-.557-18.191-2.251-26.358-4.598,5.202-3.524,9.553-7.7,13.165-12.39h11.398l1.558-8.266h-17.237c-1.624,0-2.155-.769-2.155-2.304v-1.745h17.834v-7.316h-30.398v-4.133h28.715v-6.552h-28.715v-4.278h-10.115v4.278h-28.713v6.552h28.713v4.133h-30.398v7.316h12.031c-2.99,2.812-8.305,5.502-14.065,6.861l3.291,6.105c9.666-2.52,18.529-7.104,23.108-12.966h18.182v4.407c0,1.358.525,2.309,1.279,2.905h-8.773c.903-.948,1.786-1.935,2.646-2.963l-8.555-2.993c-6.824,7.69-17.953,13.943-29.503,17.532l3.141,6.106c5.533-1.402,10.669-3.185,15.42-5.487,2.333,1.98,5.042,3.84,8.069,5.557-7.743,2.927-17.06,4.649-28.245,4.716l3.32,7.196c14.264-.276,25.942-2.775,35.454-7,9.663,3.709,21.174,6.271,33.499,7.316l2.407-7.989ZM240.365,86.595c.668-.44,1.325-.896,1.976-1.366h16.811c-2.605,2.454-5.553,4.698-8.878,6.677-3.948-1.663-7.335-3.466-9.909-5.311"/>
    <rect class="cls-3" x="132.846" y="97.439" width="70.918" height="9.604"/>
    <rect class="cls-3" x="137.229" y="66.111" width="62.024" height="8.797"/>
    <rect class="cls-3" x="134.252" y="39.903" width="67.979" height="8.616"/>
    <polygon class="cls-3" points="421.821 98.002 421.821 49.058 449.222 49.058 449.222 40.532 383.789 40.532 383.789 49.058 411.19 49.058 411.19 98.002 381.048 98.002 381.048 107.043 451.959 107.043 451.959 98.002 421.821 98.002"/>
  </g>
</svg>