<?xml version="1.0" encoding="UTF-8"?>
<svg id="_レイヤー_2" data-name="レイヤー 2" xmlns="http://www.w3.org/2000/svg" viewBox="0 0 320.71 72.08">
  <defs>
    <style>
      .cls-1 {
        fill: #ea5504;
      }
    </style>
  </defs>
  <rect id="__white_background__" x="0" y="0" width="320.71" height="72.08" fill="#ffffff"/>

  <g id="_レイヤー_1-2" data-name="レイヤー 1">
    <g>
      <g>
        <path class="cls-1" d="M74.85.21h4.72v11.05L88.18.21h5.78l-8.07,10.05,8.63,15.32h-5.52l-6.26-11.56-3.17,3.94v7.62h-4.72V.21Z"/>
        <path class="cls-1" d="M104.37,15.2L97.09.21h5.15l4.5,10.24L111.23.21h5.15l-7.28,14.98v10.39h-4.72v-10.39Z"/>
        <path class="cls-1" d="M121.84,23.12c-2.42-2.53-2.47-5.38-2.47-10.23s.05-7.7,2.47-10.23C123.48.94,125.52,0,128.34,0s4.84.94,6.5,2.67c2.4,2.53,2.46,5.38,2.46,10.23s-.05,7.7-2.46,10.23c-1.65,1.73-3.7,2.67-6.5,2.67s-4.86-.94-6.5-2.67ZM125.41,20.2c.77.78,1.76,1.19,2.93,1.19s2.15-.41,2.92-1.19c1.21-1.27,1.31-3.42,1.31-7.3s-.1-6.04-1.31-7.3c-.77-.78-1.74-1.19-2.92-1.19s-2.17.41-2.93,1.19c-1.19,1.26-1.31,3.42-1.31,7.3s.12,6.04,1.31,7.3Z"/>
        <path class="cls-1" d="M147.27,4.61h-6.34V.21h17.43v4.4h-6.36v20.97h-4.72V4.61Z"/>
        <path class="cls-1" d="M164.26,23.12c-2.42-2.53-2.47-5.38-2.47-10.23s.05-7.7,2.47-10.23C165.9.94,167.95,0,170.76,0s4.84.94,6.5,2.67c2.4,2.53,2.46,5.38,2.46,10.23s-.05,7.7-2.46,10.23c-1.65,1.73-3.7,2.67-6.5,2.67s-4.86-.94-6.5-2.67ZM167.83,20.2c.77.78,1.76,1.19,2.93,1.19s2.15-.41,2.92-1.19c1.21-1.27,1.31-3.42,1.31-7.3s-.1-6.04-1.31-7.3c-.77-.78-1.74-1.19-2.92-1.19s-2.17.41-2.93,1.19c-1.19,1.26-1.31,3.42-1.31,7.3s.12,6.04,1.31,7.3Z"/>
      </g>
      <g>
        <path class="cls-1" d="M74.85,37.24h15.98v4.4h-11.25v6.25h9.6v4.4h-9.6v10.31h-4.72v-25.37Z"/>
        <path class="cls-1" d="M98.29,60.15c-1.52-1.57-2.35-3.72-2.35-6.25v-16.66h4.72v16.5c0,2.9,1.65,4.69,4.21,4.69s4.23-1.78,4.23-4.69v-16.5h4.72v16.66c0,2.53-.85,4.69-2.35,6.25-1.62,1.69-3.94,2.67-6.6,2.67s-4.96-.98-6.58-2.67Z"/>
        <path class="cls-1" d="M118.28,59.48l3.05-3.19c1.53,1.6,3.63,2.14,5.87,2.14,1.64,0,2.85-.41,3.55-1.12.49-.53.77-1.23.77-2.05,0-.62-.12-1.1-.31-1.5-.39-.8-1.16-1.25-2.46-1.46l-3.05-.48c-2.78-.43-4.77-1.55-5.76-3.62-.46-.98-.7-2.12-.7-3.47,0-2.1.68-3.88,1.96-5.22,1.48-1.55,3.79-2.48,6.75-2.48s5.51.86,7.59,2.94l-2.98,3.12c-1.31-1.35-2.78-1.75-4.74-1.75-1.52,0-2.57.45-3.21,1.1-.53.57-.8,1.28-.8,2.03,0,.53.1.96.26,1.3.46.94,1.52,1.37,2.68,1.55l3.04.48c2.83.45,4.66,1.5,5.64,3.58.49,1.02.75,2.28.75,3.74,0,2.1-.72,3.79-1.93,5.08-1.64,1.71-4.18,2.62-7.09,2.62-3.68,0-6.5-.8-8.87-3.35Z"/>
        <path class="cls-1" d="M141.94,37.24h4.72v25.37h-4.72v-25.37Z"/>
        <path class="cls-1" d="M155.32,60.15c-2.42-2.53-2.47-5.38-2.47-10.23s.05-7.7,2.47-10.23c1.64-1.73,3.68-2.67,6.5-2.67s4.84.94,6.5,2.67c2.4,2.53,2.46,5.38,2.46,10.23s-.05,7.7-2.46,10.23c-1.65,1.73-3.7,2.67-6.5,2.67s-4.86-.94-6.5-2.67ZM158.89,57.23c.77.78,1.76,1.19,2.93,1.19s2.15-.41,2.92-1.19c1.21-1.27,1.31-3.42,1.31-7.3s-.1-6.04-1.31-7.3c-.77-.78-1.74-1.19-2.92-1.19s-2.17.41-2.93,1.19c-1.19,1.27-1.31,3.42-1.31,7.3s.12,6.04,1.31,7.3Z"/>
        <path class="cls-1" d="M176.29,37.24h4.19l9.65,15.53v-15.53h4.74v25.37h-4.21l-9.65-15.53v15.53h-4.72v-25.37Z"/>
        <path class="cls-1" d="M201.89,37.24h15.98v4.4h-11.25v5.97h9.6v4.42h-9.6v6.18h11.25v4.4h-15.98v-25.37Z"/>
        <path class="cls-1" d="M223.18,37.24h15.98v4.4h-11.25v5.97h9.6v4.42h-9.6v6.18h11.25v4.4h-15.98v-25.37Z"/>
        <path class="cls-1" d="M245.14,37.24h9.5c4.96,0,7.9,3.51,7.9,7.75,0,3.44-1.94,5.7-4.42,6.77l5.41,10.85h-5.44l-4.72-10.12h-3.5v10.12h-4.72v-25.37ZM254.38,48.32c2.08,0,3.43-1.35,3.43-3.35s-1.35-3.33-3.43-3.33h-4.52v6.68h4.52Z"/>
        <path class="cls-1" d="M268.09,37.24h4.72v25.37h-4.72v-25.37Z"/>
        <path class="cls-1" d="M279.17,37.24h4.19l9.65,15.53v-15.53h4.74v25.37h-4.21l-9.65-15.53v15.53h-4.72v-25.37Z"/>
        <path class="cls-1" d="M305.07,60.15c-2.42-2.53-2.47-5.38-2.47-10.23s.05-7.7,2.47-10.23c1.64-1.73,3.68-2.67,6.46-2.67,5.58,0,8.48,3.78,9.12,8h-4.81c-.56-2.33-1.93-3.6-4.25-3.6-1.24,0-2.22.41-2.98,1.19-1.19,1.27-1.3,3.42-1.3,7.3s.1,6.04,1.3,7.3c.77.78,1.74,1.19,3.07,1.19,1.24,0,2.32-.48,3.1-1.3.9-.94,1.21-2.21,1.21-3.54v-.93h-4.47v-4.15h9.17v3.71c0,3.4-.49,5.84-2.49,7.93-1.89,1.98-4.16,2.69-6.68,2.69-2.78,0-4.83-.94-6.46-2.67Z"/>
      </g>
      <g>
        <ellipse class="cls-1" cx="48.4" cy="50.67" rx="11.74" ry="12.27"/>
        <path class="cls-1" d="M0,50.28v21.64c0,.09.07.17.16.17h20.78c.09,0,.16-.08.16-.17v-21.4c0-17.6,12.76-27.89,28.07-28.47.09,0,.15-.08.15-.16V.17C49.33.08,49.25,0,49.16,0,19.73.08,0,21.87,0,50.28Z"/>
      </g>
    </g>
  </g>
</svg>